<svg id="Layer_1" data-name="Layer 1" xmlns="http://www.w3.org/2000/svg" xmlns:xlink="http://www.w3.org/1999/xlink" viewBox="0 0 2028.05 1349.6"><defs><style>.cls-1,.cls-3{fill:none;stroke:#939393;stroke-miterlimit:10;}.cls-2{clip-path:url(#clip-path);}.cls-3{stroke-width:3px;}</style><clipPath id="clip-path"><path class="cls-1" d="M442.47,257.73C464,250,485,238,507.88,231.44q5.24-1.47,10.48-2.86C563.88,216.6,610.22,210.5,655,243c14,10,33,8,50.44,5.56q5.71-.59,11.43-1.29l9.6-.35,74.85-2.69-1.82,23.62c-.28,3.68-.59,7.73-.93,12.1C796,332,784,382,776,435c-2,16,2,31-1,47-1,12-10,21-22,24-14,3-27-3-37.83-10.62a99.42,99.42,0,0,1-9.14-6.9,101.22,101.22,0,0,1-8.14-7.69q-4.89-4.17-9.95-8.52L577.77,377.81q-4-3.46-8-6.91C564,367,558,361,555,355c-12-31,6-71-21-94-8.5-7.5-19-11-30.07-12.56-2.76-.39-5.57-.66-8.4-.81-14.53.37-29.53,4.37-44,9.2C445.58,257.51,442.47,257.73,442.47,257.73Z"/></clipPath></defs><title>bakgr2</title><line class="cls-1" x1="215.33" y1="-39.15" x2="-60.87" y2="539.06"/><line class="cls-1" x1="256.13" y1="-58.6" x2="-60.87" y2="600.47"/><line class="cls-1" x1="247.14" y1="-74.09" x2="-69.86" y2="584.98"/><line class="cls-1" x1="198.29" y1="-98.5" x2="-67.34" y2="457.59"/><line class="cls-1" x1="266.83" y1="-46.27" x2="-9.38" y2="531.94"/><line class="cls-1" x1="307.63" y1="-59.51" x2="-9.38" y2="599.56"/><line class="cls-1" x1="298.64" y1="-75" x2="-18.36" y2="584.07"/><line class="cls-1" x1="316.26" y1="-44.79" x2="15.47" y2="584.88"/><line class="cls-1" x1="357.06" y1="-58.03" x2="86.96" y2="503.52"/><line class="cls-1" x1="348.07" y1="-73.52" x2="52.25" y2="541.52"/><line class="cls-1" x1="178.93" y1="-164.95" x2="-97.27" y2="413.26"/><line class="cls-1" x1="219.73" y1="-178.19" x2="-97.27" y2="480.88"/><line class="cls-1" x1="210.75" y1="-193.68" x2="-106.26" y2="465.39"/><line class="cls-1" x1="153.26" y1="-218.36" x2="-122.94" y2="359.85"/><line class="cls-1" x1="194.06" y1="-231.6" x2="-122.94" y2="427.46"/><line class="cls-1" x1="185.08" y1="-247.09" x2="-131.93" y2="411.97"/><line class="cls-1" x1="169.25" y1="-278.47" x2="-147.76" y2="380.59"/><line class="cls-1" x1="160.26" y1="-293.96" x2="-156.74" y2="365.11"/><line class="cls-1" x1="235.16" y1="-107.48" x2="-81.84" y2="551.59"/><line class="cls-1" x1="226.17" y1="-122.96" x2="-90.83" y2="536.1"/><path class="cls-1" d="M952.91,127.53l-177.42,6.75-10.6.4C754,134,742,136,731,137c-36,6-68,26-106,20-23.62-4.37-45.72-14.11-69.8-14.43a85.85,85.85,0,0,0-10.45.49C504,143,479,180,445,197c-9,4-18,0-23-8-10-20-23-44-49.25-39.4l-7.18.27L255,154.08"/><path class="cls-1" d="M979.79,152.93l-216.44,7.8c-3.69.15-7.41.31-11.19.56-12.81,1-25,3.76-37.11,7.11-4,1.12-8,2.3-12,3.51C683,179,662,186,641,181c-35-9.17-69.31-15.56-103.82-13.6-3.45.2-6.91.48-10.39.89C494,173,473,200,444,214c-10,5-20,2-28-5-15-15-29-38-52.78-33.86l-7.62.27-112.78,4.06"/><line class="cls-1" x1="333.85" y1="162.41" x2="249.55" y2="165.45"/><path class="cls-1" d="M1000.82,138.39l-228.58,8.24-11.46.41C724,147,690,164,653,171c-7,1-13,2-20,1-29.7-3.6-56.16-17.73-85.2-17.56a83.12,83.12,0,0,0-9.78.62C525,155,513,159,502,165c-23,12-37,36-64,41-18,3-25-17-34-29a40.64,40.64,0,0,0-27-15.7,85.09,85.09,0,0,0-10-.08L332,162.48"/><path class="cls-1" d="M1033.65,86.4,759.15,96.84l-11.51.44c-59.16,7.29-118.64,11.26-177.87,7.84-3.48-.2-7-.38-10.61-.44C520,110,495,140,462,159c-6,3-14,5-18-1-15-22-25-53-55.76-47l-7.06.27-107.86,4.1"/><path class="cls-1" d="M963.07,167.48l-192.31,7.31-10.7.41C747,176,733,176,721,181q-6.5,2.5-13,4.57C688,192,667,195,646,190a333.79,333.79,0,0,0-110.92-8.93c-3.33.29-6.68.62-10,1C494,186,472,209,445,222a32.65,32.65,0,0,1-33-3c-16-12-30-30-50.75-28.6-2.59.07-5.16.17-7.69.26l-118.68,4.52"/><path class="cls-1" d="M981.49,195.69,752.21,204c-3.67.14-7.37.28-11.13.51q-6.63,1.06-13.25,2.27t-13.22,2.44C675,223,637,205,597,196c-26-6-50.67.44-75.47,6.36q-4.65,1.11-9.32,2.18C479,211,455,246,418,238c-25-5-45-25-71-19.46l-7.91.28-117.2,4.23"/><path class="cls-1" d="M1002.52,181.15l-233.6,8.41-11.27.41C751,189,745,191,738,191c-4.75.63-9.45,1.47-14.12,2.46s-9.32,2.12-13.94,3.32C690,201,670,209,649,203c-28-8-55-20-86-15-14.37,2.5-28,6.17-41.66,8.66-2.74.5-5.48,1-8.27,1.45C489,202,471,219,449,228c-9,3-18,6-27,4-25-6-42-32-68.94-27.46l-7.62.27L228.61,209"/><path class="cls-1" d="M961.5,209.58,753.3,217.5l-11.13.43c-4.77.26-9.51.69-14.22,1.24s-9.4,1.22-14.07,2C692,225,668,233,648,219c-44.69-29.25-89.37-14.93-133.32-4.18-3.38.83-6.77,1.66-10.2,2.59C462,241,415,255,368,234c-5-2-11-1-17.08-1.17-3,.09-5.94.21-8.86.32L214.68,238"/><path class="cls-1" d="M979.92,237.8l-246.36,8.87-11.47.41c-3.51.37-7,.72-10.52,1s-7,.63-10.51.91C665,256,637,231,604,221c-29.33-10-58.22-2.22-87.09,7.34-3.61,1.19-7.22,2.42-10.83,3.63C458,258,407,268,353.26,260.37l-8.86.31-143.12,5.16"/><path class="cls-1" d="M1001,223.25,733.21,232.9c-3.77.13-7.57.28-11.46.53q-5.5,1.08-11,2C694,238,677,240,660,235c-30-11-57-34-92-26-17,4-33.25,9-49.46,13.6q-4.86,1.38-9.73,2.69C472,237,439,262,397,252c-16-4-31-6-45.6-5.33q-4.56.14-9,.3L208,251.81"/><path class="cls-1" d="M1124,40.11,721.32,55.43l-12,.45C677,56,646,59,614.42,59.49l-11.64.45-6.39.24-6.35.24C548,61,516,91,480,111a15.29,15.29,0,0,1-18-4c-12-19-21-45-48.26-39.87l-7.11.27L294.68,71.65"/><path class="cls-1" d="M1142.45,68.32,747.75,82.53,735.82,83C685,87,633,89,582.17,88.51c-3.81.12-7.62.27-11.48.5C556,90,543,96,530,102c-27,11-49,51-76,39-20-10-24-50-55.24-45.89l-6.8.23-110.59,4"/><path class="cls-1" d="M1163.48,53.78,738,69.1l-12.16.44C686,71,646,74,605.59,73.92q-5.85.17-11.68.37l-6.41.23-6.38.24C541,76,512,106,478,126c-6,4-15,7-19,1-16-19-24-51-53.54-45.92l-7,.25-110.31,4"/><path class="cls-1" d="M1196.6-5.58,594.43,17.33l-8.56.34C558,18,533,30,505,36c-7,1-13,0-19-1-16-4-30-13-46.15-11.78l-6.56.24L315.71,27.93"/><path class="cls-1" d="M1215,22.63,599.67,44.79l-8.47.32C551,45,521,73,486,87c-3,1-8,1-11-1-16-13-25-38-49.68-34.91-2.12.06-4.23.14-6.31.21L302.45,55.5"/><path class="cls-1" d="M1211.43,8.94,591.13,31.28c-2.84.12-5.67.25-8.5.45C556,33,533,47,508,57c-6,2-13,5-20,3-21-4-34-27-56.9-23l-6.4.22L310.27,41.4"/><path class="cls-1" d="M1278.68-19.37,595.7,5.22l-7.35.27C563,6,540,11,515,15c-24,4-47-1-70.75,1.14-2.75.31-5.5.61-8.25.86-16,1-31,4-46,4-2,0-5-3-7-3-18,3-34-4-51.17-3.22-1.26,0-2.43,0-3.49.07l-6.45.23"/><path class="cls-1" d="M1299.71-33.91l-723.1,26c-2.37.09-4.74.17-7.09.27C526-7,483,3,439.33,7A69.12,69.12,0,0,1,429,6.34,56.87,56.87,0,0,1,419,4c-19-6-39-4-59.34-4-1.08,0-2.15.05-3.2.08l-27.82,1"/><path class="cls-1" d="M1046.21,113.24,781.1,122.79l-11.25.4C728,122,689,137,648,142c-30,4-58-12-87.79-11.22-3.8.1-7.61.24-11.41.38C534,132,520,138,506,145c-25,11-54,63-77,33-14-18-24-44-50.13-40.72l-6.79.24-111,4"/><path class="cls-1" d="M1067.24,98.7,750.92,110.09c-3.93.19-7.88.38-11.86.63C731,110,722,112,714,114c-48,12-94,10-141.72,2.78-3.78-.06-7.64,0-11.5.16C515,116,487,158,448,174c-2,1-6,0-8-1-18-17-21-53-52.27-49.76-2.3,0-4.6.1-6.88.18l-113,4.07"/><path class="cls-1" d="M1221.62,1346l-20-17.09c-3.2-2.72-580.71-498.25-584.57-501.54A51,51,0,0,1,605.78,818a46.22,46.22,0,0,1-7.27-11C585,780,605,751,601,723c-3-27-42-16-63-20.58q-6-.64-11.93-1.54a251.4,251.4,0,0,1-80.58-26.28c-3.18-1.73-6.32-3.48-9.42-5.3a168.64,168.64,0,0,1-17.93-11.88c-3-2.28-5.75-4.64-8.52-7l-66.54-56.78c-3-2.64-6-5.24-9-7.83C311,568,300,541,283,517c-7-9-16-14-26-19-23-10-47-17-65.39-33.76-4.19-3.48-8.18-6.86-12-10.1l-49.14-41.93"/><path class="cls-1" d="M1204,1356.72S618.9,854.7,600,838.47c-3.78-3.24-7.86-6.76-12-10.64a54.83,54.83,0,0,1-15-28.47,79.57,79.57,0,0,1-1.45-10.76C569,770,579,753,578,734c0-10-10-15-19.67-16.11-4.63-.42-9.08-.93-13.52-1.46-39.54-5-78.52-12.81-111.9-34.25q-6.45-3.34-13.18-6.39T406,670c-6-3-13-7-17.65-13l-8.19-7-48.91-41.94-8.91-7.64C301,582,283,561,265,540c-5-5-11-10-17-15-23-15-45-27-65.42-44.42q-6.12-5.2-11.71-10l-48.21-41.34"/><path class="cls-1" d="M1198.32,1339.52l-16-13.75C1178.84,1322.83,601,826.93,596.94,823c-9-9-12.9-19.68-14.3-31a82.76,82.76,0,0,1-.49-11.62C593,746,593,705,546.28,709.44c-4.67-.92-9.33-1.78-14-2.63-32.48-6-64.64-11.06-93.43-28-4.11-2.11-8.18-4.25-12.21-6.47a191.54,191.54,0,0,1-23.35-14.84l-8-6.86-64-54.9c-2.87-2.57-5.76-5.1-8.63-7.63C316,584,311,578,306,572c-16-19-25-40-46-54-25-18-52-28-74.55-47.31q-6-5.1-11.49-9.81l-47.29-40.55"/><path class="cls-1" d="M1176.12,1266.12S679.85,843.84,652.41,820.42c-3.92-3.35-8.06-6.89-12.36-10.62C627,801,623,786,625,771c4-23,25-45,10-66-19-27-56-18-85.1-16.41-4.32.14-8.61.18-12.79,0A72,72,0,0,1,525,687c-24-5-43-15-61.08-30.26q-5.76-4.4-11.6-8.69t-11.77-8.47l-8.2-7-57.29-48.91-8.89-7.58C337,557,328,524,322,491c-1-9-5-20-15-23-32-12-68-4-96.2-25.11-4.33-3.21-8.3-6.54-12.1-9.74L143.48,386"/><path class="cls-1" d="M1193.15,1361.21S608.55,859.64,590.39,844.14c-3.64-3.1-7.57-6.46-11.66-10.1-20.76-17.53-18-45.76-19.66-71.3-.23-3.65-.55-7.25-1-10.75a43.9,43.9,0,0,0-10.76-23.12,46.61,46.61,0,0,0-10.21-7.31c-26.74-14.46-72.42-12.36-98.93-28.21-4.14-1.54-8.15-3.07-12.14-4.62-19.69-7.79-39-15.8-54-30.92l-8.1-6.91-40.29-34.38L314.83,609C273,573,236,531,189.2,501.59c-4.4-3.62-8.6-7.17-12.64-10.58L117.3,440.44"/><path class="cls-1" d="M551.75,838.78C529,818,534,787,530,759c-7-42-63-41-98-53-7-3-14-4-21-7.54q-6.86-2.57-13.54-5.36c-22.26-9.38-42.8-21.09-60.1-37.74L328.77,648,286.28,611.6l-8.57-7.34c-9.51-7.88-18.87-15.91-28.17-24l-9.29-8.09q-31.87-27.25-62.84-53.89l-7.63-6.56-61.63-52.84"/><path class="cls-1" d="M559.33,830.69C552,819,542,806,546,792c21-80-74-76-122.82-96.86-4.09-1.36-8.18-2.73-12.24-4.16A185.91,185.91,0,0,1,387,681c-12-7-22-15-32.48-24.4l-7.85-6.74-54.83-47c-2.84-2.52-5.69-5-8.52-7.48-15.16-14.19-30.49-28.28-46.12-41.85q-4.69-4.08-9.42-8.08C221,541,215,535,208.71,529.73q-4.82-3.84-9.67-7.59t-9.76-7.38c-2.3-1.92-4.55-3.81-6.78-5.65L113,449.48"/><path class="cls-1" d="M1018.87,1249.31S578.57,875.22,561.86,861L551,851.72C519,831,518,793,514,758c-5-42-65-37-98.48-51.53q-5.92-1.85-11.79-3.76c-27.29-9-53.56-19.67-74.17-40.56q-5.65-4.57-11.3-9.07c-2.67-2.26-5.31-4.51-7.95-6.76l-46.57-39.74c-2.61-2.24-5.22-4.45-7.8-6.66C217,568,179,536,141.54,502.3l-11.13-9.5-27.19-23.2"/><path class="cls-1" d="M1067.93,1321.77S591.09,916.33,525.56,860.14c-2.94-2.56-5.93-5.15-8.92-7.79C484,833,485,793,481,758c-4-29-47-30-74.34-39.31-4.36-1.4-8.72-2.82-13.05-4.27-30.3-10.18-59.43-22.23-84.67-42.79-3-2.18-5.94-4.38-8.94-6.63-27-20-51-40-78-60.49q-5.3-4.31-10.51-8.68c-31.32-26.2-60.85-54.39-90.32-82.39l-8.12-7L93.57,489.78"/><path class="cls-1" d="M1079.45,1316s-472.7-401.9-533.63-454.13L537,854.26C520,840,498,823,502,799c12-63-44-77-90.72-86.37l-13.47-4.32c-26.74-8.66-52.74-17.88-73.63-38.24-3.78-3-7.49-5.92-11.2-8.83s-7.46-5.82-11.23-8.69c-2.65-2.24-5.25-4.47-7.84-6.69l-23-19.74-7.29-6.26C217,585,175,545,131.05,506.22l-9.39-8.05L99,478.75"/><path class="cls-1" d="M1210.38,1253.39S717.43,834,694.94,814.75l-7.8-6.71C654,787,661,748,677,718c4-9,4-20-3-26-31-29-78-17-117.41-21.09-4.32-.32-8.59-.75-12.81-1.38-12.61-1.9-24.65-5.65-35.38-14.12-3.27-2.59-6.45-5.23-9.61-7.89-6.33-5.31-12.61-10.71-18.82-16.26l-8.16-7L382,547.66c-2.92-2.49-5.83-5-8.65-7.54-15.24-16.33-16.65-36.51-16.06-56.92.13-4.09.33-8.19.55-12.29C357,458,364,443,354,433c-15-13-36-6-52.83-5.12-4.72.37-9.47.72-14.2.94-23.64,1.1-46.84-.91-65-17.72l-11.36-9.71-52.87-45.12"/><path class="cls-1" d="M1255.79,1319.88S735.93,877.35,675.92,826q-8.19-7-16.81-14.44C646,802,636,788,638,770c3-22,21-42,14-63-11-36-61-24-92-24.4-4.55.16-8.89.25-13.07.19A104.1,104.1,0,0,1,535,682c-18-3-35-9-48.94-20.61-3.61-2.78-7.05-5.59-10.5-8.39q-10.33-8.4-20.92-16.54l-8.24-7.06-73.1-62.6c-2.87-2.52-5.75-5-8.6-7.52C340.46,540.66,339,510,337,481.19c-.29-4.11-.59-8.19-1-12.19-2-6-3-13-9.75-15.38a32.18,32.18,0,0,0-8.25-3.89,42,42,0,0,0-9-1.73c-34-1-72,3-99.23-21.24L199,417.51l-49.84-42.69"/><path class="cls-1" d="M1259.82,1309.82S736.28,864.14,671.76,808.89c-2.55-2.48-5.24-5-7.87-7.52C633,775,669,735,664,706c-7-44-71-23-106.81-29.43-4.09-.31-8.14-.66-12.15-1.11-20-2.29-38.88-7.11-54.73-22.76q-5.71-4.79-11.47-9.51t-11.57-9.43l-8.24-7-81.24-69.58c-2.88-2.52-5.75-5-8.55-7.57-17.65-16-19.19-37.59-19.82-59.86-.12-4.45-.21-8.93-.38-13.39,5-27.31-14-45.31-40.19-39.5-4.25,0-8.52,0-12.79.15-29.87.78-59.53,3.21-81.62-19.72L203.65,408l-49.79-42.63"/><path class="cls-1" d="M1223.57,1222.61S739.21,810.51,730.72,803.25c-2.84-2.41-6.09-5.2-9.69-8.33-21.77-15.69-20.47-39.86-15.92-63.62.76-4,1.6-7.91,2.45-11.81C718,696,707,668,679.11,667.32c-4.35-1-9-1.76-13.81-2.4-29-3.82-64.62-2.72-84.93-13.53-5-1.09-9.75-2.12-14.61-3S556,646.67,551,646c-3,0-6-4-9.55-4.66-3-2.18-5.74-4.53-8.52-6.91L404.82,525.09c-2.93-2.5-5.84-5-8.68-7.56-9.05-9.2-12.46-20-13.55-31.62a107.33,107.33,0,0,1-.33-12C382,451,397,425,384,407c-21-26-59,2-89-1.78a116.42,116.42,0,0,1-12.28-.45c-12.13-1.15-23.73-4.69-34-13-4.27-3.54-8.34-7-12.27-10.37l-64.08-54.69"/><path class="cls-1" d="M1269.08,1289.65S755.43,852.44,703.31,807.81c-2.86-2.49-5.75-5-8.56-7.68A45.15,45.15,0,0,1,677,751c5-19,20-38,12-55-22-44-89-23-131.57-31-3.77-.51-7.48-1.15-11.12-2-10.89-2.53-21.06-6.91-29.91-15.28q-4-3.44-8-6.84l-8.07-6.92-104.51-89.5-8.72-7.49c-15-12-19-28.21-19.67-45.7-.16-4.37-.1-8.83.07-13.33C368,459,377,439,367,423c-12-17-35-7-52.85-5.43-4.65.52-9.27,1-13.88,1.38-22.95,1.88-45.75,1.79-64.88-12-4.07-3.38-8-6.71-11.7-9.91l-60.58-51.88"/><path class="cls-1" d="M1273.89,1279.65s-510-434.06-557.25-474.54c-2.77-2.39-5.6-4.82-8.46-7.31-29.91-21.7-13-55-9.61-83.8a67.9,67.9,0,0,0,.44-12A33,33,0,0,0,678,671.42a71.24,71.24,0,0,0-13.53-4.27c-29.32-6.44-70.56-1.48-96.28-8-3.56-.49-7-1.08-10.45-1.82-10.2-2.24-19.88-5.85-28.4-12.75-2.71-2.26-5.39-4.55-8.07-6.85L400.58,534.44,391.86,527c-10.07-8.6-14.54-19.33-16.29-31a93.82,93.82,0,0,1-1-12C372,461,386,439,377,418c-10-25-46-7-68.9-7.81-4.1.37-8.17.7-12.21.94-20.1,1.13-39.32-.11-55.74-14.09l-11.65-10L167.92,335.2"/><path class="cls-1" d="M1281.42,1260.69S776.25,830.74,735.56,795.9c-2.54-2.18-5.14-4.41-7.66-6.74C708,773.44,711,752.3,714.67,731.1c.73-4.24,1.48-8.49,2.11-12.78C725,691,708,661,677.8,659.83a149.28,149.28,0,0,0-15.33-2.28c-26.53-2.7-57.1-.85-78.72-9.15-4.47-.92-8.69-2-12.8-3.18A119.09,119.09,0,0,1,559,641c-5-2-12-4-15.42-9.52l-8.36-7.15L417.6,523.6l-8.78-7.52C401,511,396,503,392,495a49.91,49.91,0,0,1-3.26-12.35C385,457,401,432,394,408c-11-37-63-6-92.51-9.41-3.75.11-7.49.09-11.24-.15A84.86,84.86,0,0,1,279,397c-6-2-12-3-17.45-7.85a162.17,162.17,0,0,1-12.88-10.22L176.58,317.2"/><path class="cls-1" d="M1286.79,1251.78S784.66,824.44,748.27,793.27l-7.46-6.39c-18-13-21.63-32-20.11-51.71.3-3.94.81-7.92,1.48-11.95C725,710,730,698,729,684c-4-25-33-21-51.69-25.67q-6.39-1.23-12.77-2.32c-29.75-5.14-59.18-8.69-88.67-17.29q-4.89-1.94-9.61-4.31a93,93,0,0,1-9.21-5.36c-3-2.14-5.79-4.49-8.57-6.88L422.27,514.09l-8.79-7.53a46.84,46.84,0,0,1-8.16-9.43,49.08,49.08,0,0,1-5.13-10.44c-8-25.1.91-50.44,2.6-75.82A106.58,106.58,0,0,0,403,400c-1-7-4-13-11.1-15.28a33.23,33.23,0,0,0-10.13-2.16A51.6,51.6,0,0,0,371,383c-27,4-52,12-79,8a64.69,64.69,0,0,1-13.79-4.41,97.22,97.22,0,0,1-12.57-6.91c-4.43-3.52-8.58-7.07-12.6-10.51l-72.22-61.85"/><path class="cls-1" d="M1218,1332.29,627.64,825.72c-3.51-3-7.5-6.46-11.66-10.5a33.84,33.84,0,0,1-8.48-9.57C589,778,619,748,612,719c-6-28-43-16-65.94-20.3q-6.7-.74-13.36-1.67c-31-4.45-61-12.89-87.21-31.24-3.27-2-6.52-4.12-9.72-6.23s-6.35-4.29-9.43-6.54c-2.79-2.29-5.52-4.61-8.24-6.95l-73.63-63.13c-2.9-2.68-5.83-5.28-8.68-8C312,555,310,522,288,499a49.23,49.23,0,0,0-15-10c-27-10-56-15-77.57-33.94q-6.18-5.18-11.78-10l-48.34-41.44"/><path class="cls-1" d="M1226.25,1325.84,641.34,824l-8.11-7C617,806,612,787,614,769c3-20,18-38,12-57-7-25-42-17-64.48-18.44-4.78-.17-9.25-.44-13.67-.74-30.53-2.32-60.58-6.29-85.62-26.05-3.44-2.33-6.84-4.68-10.22-7.08-6.74-4.79-13.4-9.74-19.87-15.09q-4-3.45-8-6.89l-64.61-55.4c-3-2.64-6-5.25-9-7.87A92.66,92.66,0,0,1,324,539c-10-22-10-54-37-63-30-9-63-9-86.73-30.3-4.15-3.47-8.1-6.84-11.86-10.07L139.7,393.87"/><path class="cls-1" d="M1433.65,1253.93S871.42,775.5,830.32,740.44c-2.29-2-4.6-4-6.9-6.08-16.21-14.18-22.06-32.77-25.74-52.31-.74-3.92-1.39-7.86-2-11.83C792,651,793,632,782,616c-15-21-39,3-60.41,1.1-3.48.27-7,.42-10.41.38-10.37-.12-20.6-2-30.46-7.71a90.19,90.19,0,0,1-9.65-6.2c-3.53-2.85-7-5.73-10.41-8.61q-10.33-8.62-20.9-17.07l-8.31-7.09L487.9,448.35c-2.95-2.52-5.89-5-8.69-7.72a42.41,42.41,0,0,1-5.93-6.3A31.76,31.76,0,0,1,469,427c-2-7-3-15-4-23,0-32,18-93-36-84-22,4-43,7-65.15,5.75a81.94,81.94,0,0,1-12.82-2,52.93,52.93,0,0,1-23.22-11.95l-6.69-5.71-98.7-84.19"/><path class="cls-1" d="M1412.12,1264.16S891.59,819.43,820.48,758.4l-8-6.86a67.92,67.92,0,0,1-9.78-9.14c-15.44-17.75-18.5-40.42-21.8-63.23-.66-4.56-1.33-9.13-2.11-13.69.2-28.48-21.8-51.48-49.88-39-3,.54-6.11,1-9.18,1.45-12.3,1.71-24.74,2.37-36.75-1a84.7,84.7,0,0,1-12-4c-5-3-11-5-16.19-9.2-3.67-2.75-7.17-5.55-10.64-8.37q-15.6-12.69-31.47-25.38l-8.44-7.24-125.83-108-8.73-7.51c-10.28-6.22-15.09-16.77-17.28-28A90.56,90.56,0,0,1,451,418c-2-25,11-50,3-72-12-33-58-5-85.63-7.05a136.6,136.6,0,0,1-14.62.54c-14.33-.36-27.8-3.8-39.23-15.39l-12.64-10.85-87.34-75"/><path class="cls-1" d="M1413.92,1252.19S897,810.63,830.47,753.59l-7.77-6.67c-2.68-2.23-5.43-4.59-8.13-7.08C808,734,802,727,799,719c-4.5-12-5.91-26.81-8-41.27-.71-4.83-1.49-9.62-2.5-14.32C787,627,751,614,720.37,619.87c-4.12.13-8.26.29-12.4.38A137.57,137.57,0,0,1,683,619c-4.51-.48-8.76-2.48-12.78-5.1a126.65,126.65,0,0,1-11.41-8.82q-5.75-4.77-11.53-9.53Q635.73,586,624,576.62l-8.39-7.19L481.83,454.73c-2.91-2.5-5.81-5-8.64-7.56-4.6-3.09-7.14-7.88-8.67-13.15s-2-11-2.51-16c-7-27,10-59-8-81-21-27-62-2-92.66-5.69a92.52,92.52,0,0,1-12.78-1.24,53.57,53.57,0,0,1-23.5-9.77c-2.24-1.87-4.42-3.74-6.57-5.59L218.85,229.3"/><path class="cls-1" d="M1478.57,1255.19S907.17,768.93,853.19,722.87c-3.86-3.29-7.81-6.67-11.78-10.3C837,706,830,702,827,694a105.4,105.4,0,0,1-4.17-11.62c-1.2-4-2.22-8.06-3.17-12.19C812,639,810,592,775,583c-22-6-41,16-65,13-4,0-7-4-10.77-4.7a100.47,100.47,0,0,1-9.66-8l-8.1-6.91L515.22,434.47l-8.32-7.1a36.9,36.9,0,0,1-11-10.33c-.86-2-2.86-4-3.86-6-5-18.75-2.19-38.28-3-56.88a103.15,103.15,0,0,0-1-11C485,329,480,313,464.84,306.58a46,46,0,0,0-10.3-3.49C437,301,419,302,400.76,304c-3.72.27-7.4.48-11,.56A89.24,89.24,0,0,1,369,303a29.92,29.92,0,0,1-8.46-2.78,88.78,88.78,0,0,1-8-4.61c-2.39-2-4.7-3.95-7-5.9L235.13,195.47"/><path class="cls-1" d="M1421.18,1282.79S854.64,800.68,807.55,760.49c-2.36-2-4.75-4.06-7.14-6.19A79.35,79.35,0,0,1,790.84,744c-14.27-17.48-15.72-38.88-17.49-60.53-.35-4.33-.71-8.67-1.2-13C772,649,761,625,735.66,632.21c-3.39.41-6.8.94-10.12,1.45s-6.54,1-9.54,1.34c-12,1-25,1-37-2a102.48,102.48,0,0,1-11.48-3.56,109.56,109.56,0,0,1-30.28-17.62q-5.79-4.57-11.64-9.08-11.72-9-23.74-17.77l-8.43-7.18L474.86,476.6,466,469.06c-13.13-8.27-18.95-19.63-21.35-32.39a90.9,90.9,0,0,1-1.42-13.16C437,396,466,351,433,340c-23-7-47,7-72.39,7.89a129.48,129.48,0,0,1-14,.32c-13.84-.53-27.05-4-38.73-14.12l-6.53-5.58L209,249.75"/><path class="cls-1" d="M1402.45,1295.77s-530.4-453-613.35-524c-2.77-2.37-5.56-4.76-8.26-7.24a51,51,0,0,1-8-8.3,55.51,55.51,0,0,1-5.81-9.35c-11.37-24.4-7.43-50.42-9.62-76.64-.31-3.75-.75-7.5-1.37-11.25-2-10-12-16-21-17-3.67,0-7.36.08-11.07.19-18.54.54-37.43,1.7-54.94-3.85-4.44-1-8.85-2-13.22-3.21-13.1-3.53-25.82-8.2-37.86-15.44-3.54-2-7-4-10.43-6.09-10.23-6.27-20.06-13.13-28.81-21.84l-8.2-7L457,487.69c-2.92-2.5-5.83-5-8.72-7.47a80.61,80.61,0,0,1-7.14-6.33C433,467,430,457,428,447a79.87,79.87,0,0,1-.69-13.85c.13-4.57.58-9.09,1.13-13.59C431,400,439,378,429,360c-10-19-37-4-55.5-2.09-4,.75-7.95,1.48-11.92,2.13-19.81,3.19-39.58,4.41-57.9-4.85a96.64,96.64,0,0,1-9.25-6.63q-3.19-2.7-6.29-5.36L200.24,268"/><path class="cls-1" d="M1406.27,1285.54S879.69,835.77,801.21,768.63l-8.21-7a55.24,55.24,0,0,1-17.21-20.78C773,737,773,732,771,728c-5-17.5-2.58-36.56-4.45-53.77a76.69,76.69,0,0,0-1.74-10.07C761,649,750,635,734.27,635.16a84.59,84.59,0,0,0-13.35.56c-13.83,1.47-28.74,4.66-41.56,0q-6.48-1.38-12.82-3.17c-12.71-3.57-25.11-8.36-36.85-16-3.42-2.14-6.76-4.3-10.08-6.49a253,253,0,0,1-28.72-21.37l-8.19-7-121.58-104q-4.38-3.74-8.71-7.49c-10.66-9.82-14.64-21.3-15.78-33.56a105.35,105.35,0,0,1-.33-12.48C435,399,454,365,430,349c-19-13-43,2-63.88,4.73a140.57,140.57,0,0,1-14.76,1.84A56.13,56.13,0,0,1,338,355c-11-2-23-2-32.43-10.67a50.61,50.61,0,0,1-7-5.69l-6.28-5.36-87.85-75.16"/><path class="cls-1" d="M1386.45,1294.52S824.22,816.08,783.29,781.15l-7.39-6.3A49.24,49.24,0,0,1,758,755.13a62.75,62.75,0,0,1-4.44-11.88C748,720,752,696,750,672c-4-39-51-19-77.3-27.37q-6.27-1.27-12.48-2.73A290.23,290.23,0,0,1,600,621c-4.5-3-9.25-5.75-13.78-8.71a68.09,68.09,0,0,1-12.47-9.94l-8.21-7L450.09,496.83l-8.87-7.57a50.23,50.23,0,0,1-8.87-8c-14.59-18.3-11.86-39.62-9.47-61.09.48-4.31.95-8.63,1.31-12.95C426,391,428,368,410,361c-9-3-18-1-27.22.73-5,.87-10,2-15.08,3.17-15.18,3.48-30.7,7.6-42.7,6.1-8-1-17-1-24.12-5a54.36,54.36,0,0,1-8.89-4.54,47.55,47.55,0,0,1-8.05-6.42c-2.17-1.83-4.29-3.64-6.39-5.43l-82.64-70.52"/><path class="cls-1" d="M1349,1290.63s-556.26-473.42-588.44-501l-7.08-6.08c-12.18-8.82-18-20.11-20.38-32.56a85.13,85.13,0,0,1-1.41-12.79C730,716,741,694,735,672c-5-22-38-8-56.39-15.89-4.48-.8-8.93-1.64-13.37-2.48-26.65-5-52.76-10.48-77.55-22.24-4.47-1.59-9-3.06-13.69-4.39a24.18,24.18,0,0,1-11.85-7.57c-2.81-2.33-5.59-4.71-8.37-7.09L427.64,504.19c-2.94-2.52-5.87-5-8.72-7.61a25.28,25.28,0,0,1-6.18-6.88A89.13,89.13,0,0,1,408,481c-7.51-21-2.07-42.55,1.54-63.83.6-3.55,1.15-7.09,1.59-10.63C412,399,414,390,409,383c-7-10-20-8-29.83-7-3.6.44-7.19,1-10.76,1.5-21.47,3.28-42.66,8-64.4,6.45-3-.49-6-1.11-9-1.89-8.86-2.35-17.31-6.14-24.09-12.28-4.3-3.63-8.45-7.19-12.46-10.63l-72.19-61.89"/><path class="cls-1" d="M1360.36,1286.86s-556.48-473.6-589-501.49l-7.16-6.15c-11.7-8-17.74-18.55-20.78-30.38a85.2,85.2,0,0,1-2.13-12.22C739,713,749,689,740,667c-9-23-39-6-59.2-14.56-4.1-.74-8.14-1.56-12.17-2.42-24.13-5.12-47.37-11.27-69.48-22.14-4.29-1.74-8.65-3.38-13.15-4.88-9-3-17-10-23.7-16.86l-8.45-7.25L434.78,496.8c-3-2.55-5.93-5.09-8.69-7.83a28.11,28.11,0,0,1-6.32-7.23C411,470,412,456,412,442a86.41,86.41,0,0,1,1.57-12.06c.8-4.16,1.78-8.44,2.69-12.72C420,402,424,382,408,372c-13-8-27-5-40.56-1.52-3.44.82-6.88,1.7-10.3,2.5s-6.81,1.52-10.14,2c-15,2-30,4-44.68-.1a68.8,68.8,0,0,1-9.4-3.28A57.5,57.5,0,0,1,276.35,361l-12.57-10.78-73-62.56"/><path class="cls-1" d="M1535.8,1262.07S949.57,763.22,876,700.53l-9.73-8.29a76.62,76.62,0,0,1-9.16-9.32,88.1,88.1,0,0,1-7.33-10.38C847,666,843,660,840,653c-9-18-13-45.5-20.87-68a121.9,121.9,0,0,0-5.22-12.84C806,547,774,538,754.45,554.61c-3.5,1.8-7,3.67-10.57,5.32-10.62,4.92-21.36,7.77-31.84.47-3.82-2.82-7.51-6-11.21-9.11L532.5,407.87q-4.14-3.53-8.25-7c-8.44-7.37-13.36-16.53-16.14-27A88,88,0,0,1,506,363c-3-25,14-51-1-74a22.63,22.63,0,0,0-14.32-9.38,41.09,41.09,0,0,0-8.9-.91C434,287,380,294,347.12,249.93l-6.78-5.77L249.1,166.42"/><path class="cls-1" d="M1472.25,1237.78S943,785.61,860.73,715.09L854,709.32c-9.37-8-15.51-17.77-20.11-28.4-1.53-3.55-2.89-7.19-4.15-10.89-13.27-30.63-11.35-82.29-41.46-97.42A39.29,39.29,0,0,0,777,569a27.46,27.46,0,0,0-9.67.34c-16.39,3.23-34.19,17.75-53.46,13.17a70.21,70.21,0,0,1-12.35-4c-2.76-2.29-5.51-4.64-8.26-7L518.39,421.58c-2.64-2.26-5.27-4.52-7.87-6.82-17.2-15.47-19-36.9-17.62-58.61.27-4.35.66-8.7,1.1-13,0-13.1,6-27.1,0-40.1-3.75-7.5-11.44-8.25-18.94-8.62-2.5-.12-5-.2-7.28-.48C461,294,455,293,448,294c-23,3-45,7-67.81,2.55A66.29,66.29,0,0,1,370,293c-4-2-7-5-10.62-7.74l-8.77-7.51L240.83,183.61"/><path class="cls-1" d="M1486.69,1236.65S953.55,781.16,866.55,706.57l-6.92-5.94c-8.49-8.48-14.78-18.29-19.9-28.76-1.72-3.49-3.3-7.08-4.8-10.78-11.85-24.56-13.45-59.86-27.74-82.6a53.14,53.14,0,0,0-7-9C790,558,772,553,758.66,561.66c-3.5,1.72-7,3.74-10.55,5.69-10.65,5.86-21.68,11.07-34.25,5.48A41.52,41.52,0,0,1,703.72,567l-11-9.43L526.59,415.1c-2.67-2.29-5.34-4.58-8-6.92C510,404,506,395,504,386a69.57,69.57,0,0,1-1.78-13c-.25-4.63-.22-9.51-.09-14.49,4.7-24.38,2.43-58.7-20.24-68.12a32.21,32.21,0,0,0-9.49-2.29C432,286,383,302,354.11,267.22l-6.95-6L245.43,174.05"/><path class="cls-1" d="M1584.28,1261.41s-603-513.28-697.12-593.55c-3-2.59-6.1-5.2-9.17-7.88a31.26,31.26,0,0,1-7.24-6.73C866,648,863,641,859,635c-7.2-12.3-12.42-27.75-17.55-43.35-1.71-5.2-3.41-10.42-5.17-15.55C829,553,823,527,801,515c-21-11-41,9-63.12,8.15a65,65,0,0,1-11.09-.17c-10.8-1.23-20.86-5.72-29.3-17l-11-9.35L555.63,385l-8.89-7.6C518,357,537,317,534,288c-1.5-17-13.5-23.25-28.2-25.27a98.3,98.3,0,0,0-11.41-.83C439,277,386,263,354.33,213.23c-2.3-2-4.57-3.94-6.81-5.85l-83.75-71.47"/><path class="cls-1" d="M1520.2,1237.75S978.12,774.6,880.4,690.82l-9.54-8.19a67.73,67.73,0,0,1-8.7-8.74,83.23,83.23,0,0,1-7-9.84C850,657,848,649,844,641c-7.2-14.4-11.52-35.52-17.44-55.1-1.48-4.9-3-9.72-4.76-14.34C816,556,808,537,789,533c-14-2-24,7-36,11.47-3.66,1.82-7.34,3.59-11,5-11,4.24-21.9,5.47-31.77-4.57-3.82-3.25-7.66-6.55-11.51-9.84L537.71,397c-2.71-2.32-5.42-4.64-8.07-7a37.9,37.9,0,0,1-7.62-10.4,48,48,0,0,1-4-11.91C513,343,525,317,515,293c-3.5-10-11.25-14.75-20.38-16.74a56.47,56.47,0,0,0-9.49-1.17C433,286,378,275,344.38,231.25l-6.76-5.79-82.86-71"/><path class="cls-1" d="M1535.32,1236.11s-550.66-470.51-658-562.54c-2.44-2.1-4.89-4.22-7.3-6.46a102.56,102.56,0,0,1-6.91-9c-15.05-21.07-21.32-48.36-29.84-73.5-1.42-4.19-2.89-8.33-4.45-12.4C820,550,808,518,782,519c-15,0-26,17-42,21a23,23,0,0,1-11.89.4c-11.09-2.53-20.05-12.67-28.85-19.49l-11.7-10L548.19,391.4l-8-6.88a42.82,42.82,0,0,1-6.28-6.41,50.78,50.78,0,0,1-5-7.67A57.46,57.46,0,0,1,523,353c-3-27,13-53-1-77-5.5-9-14.5-11.25-24.37-11.17a96.92,96.92,0,0,0-10.08.71C436,282,383,269,352.12,223.34q-3.53-3.09-7-6l-85.6-73.39"/><path class="cls-1" d="M1563.83,1235.14S1006,758.46,890.45,659.41c-3-2.61-6.1-5.24-9.15-7.95C871,646,869,635,863,626c-6-10.71-11.49-23.63-17.18-36.93-1.9-4.44-3.82-8.92-5.78-13.37C828,550,820,518,793,503c-19-11-37,8-55,15a13.77,13.77,0,0,1-11.23-1.38,41.89,41.89,0,0,1-7.19-4.25c-7.17-5.13-14.26-12.39-20.93-17.41l-10.39-8.9-93-79.78L562.69,378.4C528,357,542,314,539,280c-1.5-17-13.25-22.75-27.78-24.49a106.25,106.25,0,0,0-11.31-.67C472,254,444,269,416,259c-28-9-37-39-59.49-57.35q-3.12-2.7-6.15-5.29l-81.89-70.21"/><path class="cls-1" d="M1578.27,1234s-563.8-481.78-685.74-586.32c-2.14-1.84-4.29-3.68-6.44-5.56-16-16.56-25.57-36.59-34.58-57.36-1.8-4.15-3.58-8.33-5.39-12.52C830,543,825,490,794,489c-23-1-53,23-78.86,6.07A70.75,70.75,0,0,1,704.92,488a82.14,82.14,0,0,1-9.59-9.4l-10.68-9.16L579,378.85l-8.15-7C563,365,554,359,551,348c-8-26,3-52-5-77-6-16-19.75-20.5-35.35-21.53-3.11-.21-6.31-.28-9.53-.27C474,250,447,263,420,254c-29-9-38-41-57.72-60.84-2.09-1.88-4.17-3.67-6.21-5.42l-83-71.16"/><path class="cls-1" d="M1425.28,1238.94S908.89,797.77,842.93,741.15l-8-6.88a97.94,97.94,0,0,1-11.34-10.18C821,722,819,718,817,715c-4.25-8.5-6.87-18.12-9-28-1.08-5-2-10-3-15,.07-51-42.93-79-89.52-64-3.78,0-7.56-.18-11.33-.51a79.79,79.79,0,0,1-22.33-4.89c-4-3-7.7-6.07-11.36-9.19-7.34-6.25-14.57-12.53-21.63-18.91l-8.27-7.1L499.34,446.23q-4.12-3.54-8.21-7.07a50.55,50.55,0,0,1-7.19-8.12,58.45,58.45,0,0,1-5.28-9.11C466,394,476,363,474,333c-2-16-19-21-33-20-26,2-53,9-78.56,3.52-3.73-.78-7.43-1.71-11.09-2.84a104.79,104.79,0,0,1-10.88-4c-2.37-1.88-4.64-3.79-6.85-5.69L227,212.44"/><path class="cls-1" d="M1434.13,1233.44s-518-442.4-586-500.58l-7.65-6.54C826,717,818,702,813,686c-1.17-4.17-2.11-8.42-3-12.71C802,645,805,584,763,592c-17,3-33,15-52,13a45.27,45.27,0,0,1-11.84-3.37A90.26,90.26,0,0,1,688.29,596c-2.85-2.23-5.59-4.54-8.32-6.86q-8.21-6.95-16.19-14l-8.31-7.1L505,439.29c-2.77-2.36-5.52-4.72-8.26-7.11A27,27,0,0,1,488,424c-13.12-24.5-9.41-51.3-8.27-77.71.16-3.77.27-7.54.27-11.29,1-7-4-12-6.25-17.51A23.87,23.87,0,0,0,457,309c-31-1-61,8-91.72,1.83A80.81,80.81,0,0,1,353,307a27.08,27.08,0,0,1-8.06-4.7c-2.33-1.93-4.59-3.86-6.82-5.77l-107.4-91.89"/><g class="cls-2"><path class="cls-1" d="M438.71,855.77a75,75,0,0,1,1.35-11.29A88.89,88.89,0,0,1,443,833.62C453,804,479,785,499,759c8-12,15-29,2-40-19-14-39-26-44.9-50.48a88.58,88.58,0,0,1-2-10.19,76.24,76.24,0,0,1,0-21.07q.36-5.06.72-10.14L466,468.39q.45-6,.89-12,1.73-7.32,3.31-14.62t3-14.55C477,412,479,397,483,381c1.1-4.2,2.44-8.37,3.94-12.52s3.18-8.26,4.94-12.37c19-37.81,45.91-82.88,20.48-120.18a68.74,68.74,0,0,0-7.49-9.14C493,219,478,212,479.34,195.23"/><path class="cls-1" d="M420.13,847.82c.94-2.91,1.9-6.11,2.89-9.34s2-6.48,3-9.48c11-22,28-39,45-58,11-12,25-29,12-45-13-15-29-25-39.62-41.14a81.65,81.65,0,0,1-5.16-9.53c-4.35-9.76-6.52-20.14-3.71-32q.39-5.2.76-10.45L446.47,479c.32-4,.63-7.94,1-11.93,1-13.54,3.82-26.5,7.32-39.32,1.18-4.28,2.42-8.55,3.75-12.87,7.19-20.57,15-40.4,23.2-60.19q2.48-5.94,5-11.88C496,319,517,292,503,268a49.25,49.25,0,0,0-4.72-7.14,81.47,81.47,0,0,0-5.78-6.6C479,241,459,233,455.11,213.89"/><path class="cls-1" d="M433.7,832.23C447,800,477,782,495,752c4-7,7-16,2-23-14-19-37-27-46.09-48a82.41,82.41,0,0,1-4-9.93c-3.21-10.1-4.66-20.56-2.71-31.67q.38-5.26.77-10.6l9.77-134.19.85-11.66c-.3-20,3.31-38.7,8-57.44.94-3.76,1.93-7.53,3-11.35,4.23-18.07,11.34-34.85,18.77-51.5q2.79-6.24,5.59-12.48C501,321,527,289,511,260a47,47,0,0,0-4.16-6.71c-1.58-2.16-3.32-4.25-5.13-6.33C490,233,470,225,467.41,204.81"/><path class="cls-1" d="M464.08,897.69l2.62-37.08c.25-3.35.51-6.91.8-10.67C468,821,481,794,493,767c14-30-3-57-10-86-3-10-2-20-1.53-29.53l.71-10.18,14.11-199.83c.27-3.82.54-7.63.83-11.47.78-4.35,1.5-8.72,2.17-13.08s1.32-8.79,2-13.29a238.56,238.56,0,0,1,7.88-34.48c1.12-3.75,2.3-7.47,3.53-11.22C521,318,559,281,547,241c-4.37-15-18.12-26.87-26.26-40.65a51.29,51.29,0,0,1-4.09-8.53C514,186,513,180,514.82,173.57"/><path class="cls-1" d="M411.46,841.55a98.74,98.74,0,0,1,4.62-11c1.75-3.56,3.69-7,5.76-10.38C437,796,457,780,474,756c15-21-5-39-22-50-9-5-17-12-20.8-22a67.47,67.47,0,0,1-5.36-11.39,51.75,51.75,0,0,1-2.52-25.75l.75-10.67,9.52-135.08.83-11.73c.29-22.68,5.18-44,11.26-65.31,1.22-4.28,2.5-8.56,3.87-12.92,4.22-23.56,19.34-45.84,30.39-68,2.22-4.44,4.27-8.87,6.07-13.34,9.6-17.28,8.39-35.35,1.74-52.1a88.59,88.59,0,0,0-3.78-8.24C475,253,457,248,445,234a19.64,19.64,0,0,1-4-12.66"/><path class="cls-1" d="M450.76,756.73C465,731,433,714,418.76,698.41a111.4,111.4,0,0,1-8.06-9.48c-7.3-9.82-11.9-20.71-9.1-33.49l.71-9.74L413.65,490c.31-3.87.62-7.73.94-11.61.57-17.36,4.58-33.53,9.78-49.38,1.3-4,2.67-7.9,4.09-11.85,7.38-30.91,35.07-62.73,40.39-93.44a56.11,56.11,0,0,0,.79-13.09c-.41-2.16-.84-4.4-1.36-6.66s-1.1-4.54-1.83-6.77C459,278,440,268,428,251c-6-9-5-18-6.31-27.77"/><path class="cls-1" d="M462.32,756C479,728,440,712,426.17,693.21c-2.5-2.73-4.92-5.46-7.17-8.21-6-9-8-19-7.13-29.29q.35-4.83.71-9.79L424,489.56q.46-5.81.93-11.63c.63-13.48,3.24-26.42,6.76-39.16,1.17-4.24,2.45-8.46,3.79-12.67,5.58-28.06,25.25-55.4,36.91-82.65,1.67-3.89,3.17-7.78,4.44-11.67a62,62,0,0,0,3.25-35,73.38,73.38,0,0,0-2.16-8.65C472,265,449,256,434,238c-3-4-1-10-2.95-14.17"/><path class="cls-1" d="M388.05,825.15c5.09-9.64,13.42-19.1,21.8-28.71q4.32-4.83,8.61-9.76C449,764,445,723,412.48,703.54c-2.93-2.95-5.82-5.9-8.49-9-8-9.17-14-19.25-13.1-32.93.22-3.35.46-6.73.7-10.14L400,531.64q.42-5.94.85-11.92c.72-4.48,1.52-9,2.36-13.41s1.74-8.93,2.66-13.38c3.55-23,11.32-44.2,19.7-65.31,1.68-4.24,3.39-8.46,5.09-12.71C441,378,482,340,464,308a64,64,0,0,0-4.55-7.37C438,276,407,257,412.42,220.15"/><path class="cls-1" d="M350.16,908.37l3-41.15c.27-3.71.56-7.64,1-11.76,3.65-27.35,20.31-48.81,35.58-70.91A265,265,0,0,0,404,762c4-8,5-18,1-26-1.75-3-3.71-5.94-5.78-8.84-14.49-20.33-34.7-39-31-66,.2-3.56.46-7.13.71-10.72l7.23-99.28c.3-4.06.59-8.12.94-12.23a179,179,0,0,1,6.66-36.26c1.09-3.9,2.28-7.77,3.52-11.64,4.9-20.73,17-42.86,27.75-65.25,2.16-4.49,4.26-9,6.25-13.49C433,382,462,336,430,315a89.58,89.58,0,0,1-9.62-7.49C392,283,393,244,396,210.36"/><path class="cls-1" d="M361.67,914.19l3.15-43.33c.29-3.91.59-8,.93-12.38,2-25.93,17.64-45,32.72-64.24,3-3.85,6-7.71,8.95-11.63C427,763,433,731,407.11,713.26c-3.17-3.19-6.44-6.33-9.55-9.52A99.32,99.32,0,0,1,389,694c-8-12-11-25-8.48-38.72q.41-5.55.81-11.15l7.49-102.91c.29-3.92.57-7.85.87-11.78.58-12.61,3.07-24.88,6.37-37,1.11-4.06,2.3-8.09,3.57-12.14,6.11-17.52,14.63-35.41,22.39-53.49,1.94-4.52,3.83-9.06,5.63-13.63,11.15-29,28-65,22.58-95.28a56,56,0,0,0-2.65-9.85C441,292,425,285,413,275c-15-14-6-39-8-58.86"/><path class="cls-1" d="M494.67,917.7l3.48-49.3c.28-3.87.57-7.94.91-12.2C501,821,523,793,542,763c1.5-2.67,3.11-5.36,4.71-8.08s3.19-5.48,4.64-8.26C557,736,561,723,554.1,712a51.14,51.14,0,0,0-7.51-9.62c-14.27-14.91-36-25.22-33.08-49.59.16-3.5.39-7,.61-10.58l16.81-238.11q.39-5.51.78-11c.23-4.71.68-9.38,1.31-14s1.45-9.26,2.44-13.94C545,318,582,277,574,227c-4-22-27-37-25.52-61.73"/><path class="cls-1" d="M468.16,993.72,477,871.45c.38-5.26.77-10.65,1.22-16.17C479,813,508,782,519,743a37.88,37.88,0,0,0,0-15c-8-26-31-47-26.14-75.51q.33-5.28.72-10.59l15.24-211c.27-3.72.54-7.41.81-11.09.62-4.74,1.19-9.47,1.74-14.23A218.55,218.55,0,0,1,517.86,370c1-3.89,2.09-7.77,3.28-11.72C531,315,571,273,555,230c-7-18.37-25.48-32.16-27.44-51.26a32.82,32.82,0,0,1,.25-8.53"/><path class="cls-1" d="M478.65,991l7.93-109.78,1.14-15.77C486,820,517,786,535,748c3-9,6-19,2-28-11-23-38-38-33.85-67.43.23-3.56.48-7.14.72-10.72l16.19-224.12c.27-3.66.53-7.31.8-11a165.48,165.48,0,0,1,2.59-24.47c.71-4,1.54-7.95,2.45-11.9C534,337,549,306,562,274c5-13,10-27,6-41-5-24-33-38-29.49-65"/><path class="cls-1" d="M527.27,910l3.5-49.6c.27-3.89.58-8,1.07-12.32,3.58-24,15.62-44.32,28.77-64.33q4-6,8-12C580,747,618,726,606,699c-7-18-30-20-46-30a22.65,22.65,0,0,1-7.67-6.61c-5.72-7.82-6.13-18.87-5.48-29.3.2-3.52.46-7.09.71-10.68l16.08-227.77q.71-10,1.4-19.79C569,329,589,289,599,242c6-30-16-52-19.91-80.17"/><path class="cls-1" d="M500.38,986.45,508,880.9l1.1-15.21C509,826.17,533.76,796,554.14,764q3.43-5.34,6.69-10.78C581,731,584,699,551.57,688.16c-3.55-2.45-7.07-4.92-10.33-7.54-9.77-7.89-17.3-17.16-16.35-31.7.12-3.44.37-6.94.63-10.45l18-249c.24-3.26.47-6.49.71-9.71C548,340,566,303,581,266c13-32-4-59-18-87-3-5-3-11-2.61-16"/><path class="cls-1" d="M511.27,984.38l8.52-117.86c.36-5.08.76-10.29,1.32-15.67,4.13-28.11,19.47-50.87,35-73.66,2.58-3.8,5.19-7.6,7.77-11.44C574,750,587,736,594,719c8-21-17-31-32-37.8a95.63,95.63,0,0,1-10.85-6.87C541.25,666.9,534,657.81,536,643.61c.14-3.37.38-6.83.63-10.29l17.06-236.09,1.41-19.48C555,369,557,361,559,353c15-61,54-121,12-182-1-3,0-6-.41-9.14"/><path class="cls-1" d="M531,979.18l7.63-105.62,1.1-15.22C539,846,542,835,546,824c4.8-13.5,13.56-26.64,22.85-39.66,3.16-4.36,6.37-8.71,9.84-13.16C593,751,617,734,619,709c2-27-34-31-49-48.5a59.31,59.31,0,0,1-7.24-8.09c-6.21-8.57-9.51-18.57-5.8-31.86.25-3.52.51-7,.76-10.57l16.45-227.65q.35-4.69.69-9.34C578,328,600,288,606,242c4-29-15-52-18.23-80.21"/><path class="cls-1" d="M541.36,978.2l8.73-120.88c.38-5.2.77-10.53,1.47-16.07C552,834,555,827,557,820a97.24,97.24,0,0,1,5.74-13.44c2.29-4.47,4.9-8.92,7.7-13.35C585,758,647,731,626,692c-10-19-36-22-48.64-40.73a59.58,59.58,0,0,1-5.81-9.29c-4.79-9.67-6.89-20.37-3.49-33.2.24-3.52.5-7,.75-10.59l15.7-217.33c.24-3.17.47-6.33.71-9.47C588,332,603,298,612,259c6-28,3-54-13-79-3-6-2-12-2.52-18"/><path class="cls-1" d="M447.92,844.62C449,839,449,833,452,827c19-32,56-53,59-90,2-27-32-39-45-62-1-3-3-6-3.54-10.1a53.83,53.83,0,0,1-.95-10.67c0-7.27,1-14.8,1.6-22.38l.78-10.8L475.4,463q.45-5.93.88-11.82c.34-4.27.83-8.52,1.42-12.75s1.29-8.47,2.06-12.69C481,417,483,409,485,400c3.3-13.8,8.4-27,13.76-39.91,1.79-4.33,3.61-8.64,5.47-13C516,315,540,280,527,245c-3-8-9.25-14.5-15.3-21.34-2-2.28-4-4.59-5.9-6.91C498,209,492,198,492.37,185.9"/><path class="cls-1" d="M457.69,847.51C458,814,475,785,481,751c1-7,2-13,1-20-4-23-12-45-10.75-68,.2-3.26.41-6.55.6-9.85L486.56,451l.87-11.84q1.67-7.08,3-14.2c.93-4.75,1.77-9.52,2.57-14.34a260.7,260.7,0,0,1,9.44-42.25q2.1-6.92,4.43-13.83C514,315,560,275,533,235c-3.67-5.67-8.11-11-12.3-16.39-2.1-2.7-4.13-5.41-6-8.18C507,201,507,189,505.13,177.86"/><path class="cls-1" d="M632,1022.89l14.28-203.11c.31-3,.58-6.11.89-9.2C649,802,650,793,653,784c9.1-27.3,32.41-48.72,43.86-73.52a78.73,78.73,0,0,0,4.15-11c9-22.5-3-43.5-22.15-54.57a78.37,78.37,0,0,1-7.71-7.31A42.2,42.2,0,0,1,665,629c-3-6-3-13-3.78-19.26.12-3.47.35-7,.6-10.5L683.28,294l.58-8.28C688,248,682,209,684,171c1-7,3-14,3.4-21.07"/><path class="cls-1" d="M606.42,1094.65l19.23-262.08.7-9.54C627,798,634,774,646,752s31-43,26-69c-6-27-34-45-29.81-74.25.18-3.47.43-7,.65-10.44L664.15,308c.22-2.79.44-5.55.67-8.32C671,263,667,226,663,188a74.71,74.71,0,0,1,2.87-29.34"/><path class="cls-1" d="M617.12,1089l20-275c.49-3.38.88-6.73,1.4-10.15C643,765,673,736,688,701a37.67,37.67,0,0,0,3.4-14.06C693,677,685,670,679.79,662c-2.93-3.52-5.95-7-8.89-10.41-11.74-13.77-22.09-27.51-18.48-47.41.22-3.58.47-7.17.74-10.75l20.33-279.62c.41-5.59.8-11.08,1.2-16.48C675,287,677,276,678,266c1-37-8-75-.52-111.84"/><path class="cls-1" d="M657.71,1059.77l16.63-236,.67-9.49C675,801,679,788,684,776c4.8-12,13.74-24.72,22.8-37.73,3-4.33,6.05-8.7,8.94-13.09C729,703,750,673,731,649c-13-17-40-24-41-49.29a40.57,40.57,0,0,1,1-12.18l.75-10.66,4.48-63.6q.56-7.87,1.11-15.72C699,477,700,457,701.67,435.9q.54-7.56,1.06-15l11.32-160.59c.2-2.85.4-5.67.59-8.44,2.36-38.84.36-77.84,6.94-116"/><path class="cls-1" d="M601.42,1030l14-199,.63-9C616,784,633,751,649,718c14-30-8-56-17-84-1-3,0-7-1-10.11-.23-3.31-.2-6.72-.25-10.1l19-269.61.63-8.94C658,283,659,232,651,178c-1-5,1-10,1-15.23"/><path class="cls-1" d="M575.24,1105.65l19.24-268.17c.23-3.3.49-6.62.85-10a143.2,143.2,0,0,1,2.84-14.14c1.19-4.64,2.58-9.19,4.14-13.7C616,762,648,740,671,706c5-9,11-21,2-29-21-17-51-27-58.89-53.69a76.75,76.75,0,0,1-2.68-13,79,79,0,0,1,1.33-27.5c.25-3.61.51-7.22.76-10.83l15.36-214c.22-3,.44-6.05.66-9.06C630,322,638,297,642,270c2-13,1-25,1-38,0-23-14-44-10.23-66.83"/><path class="cls-1" d="M585.75,1102.64l18.87-263.07.68-9.57a125.42,125.42,0,0,1,1.47-12.68c.71-4.16,1.61-8.26,2.67-12.31A184.85,184.85,0,0,1,620,780c15-37,90-71,56-109-14-17-43-22-50.5-46.49a68.38,68.38,0,0,1-2.74-12.6,124.93,124.93,0,0,1,1-39.07l.75-10.47L640,346.81c.22-3,.43-5.9.65-8.82C646,288,658,238,643,187c-2-7-2-15-.44-23"/><path class="cls-1" d="M571.35,1009l11.41-161.92.62-8.78C584,830,585,821,588,813c1.64-4,3.39-8,5.21-12s3.83-8.13,6.12-12.31C604,779,610,771,616,762c17-25,54-49,41-79-8-21-32-29-49-44-4-5-7-10-8.1-16.7a61.59,61.59,0,0,1-.74-9.28c-.09-9.49,1.49-19.46,2.13-28.9.26-3.61.51-7.22.77-10.84L616.7,365.42c.23-3.16.46-6.29.7-9.42,10.6-64,26.6-127,4.83-191.06"/><path class="cls-1" d="M552.23,976.59l8.52-117c.37-5,.74-10.22,1.14-15.51C562,837,564,830,566,823a122.52,122.52,0,0,1,10.14-23.7c2.12-3.9,4.41-7.8,6.82-11.68C597,753,660,728,638,689c-12-19-39-24-51.49-46.4A66.23,66.23,0,0,1,581.66,632a59.29,59.29,0,0,1-1.75-35.45l.75-10.43,14.11-193.74.7-9.67C596,339,611,300,620,256c5-26,0-51-12-74-3-6-2-12-2.13-18.5"/><path class="cls-1" d="M562,983.5l10.08-138.38c.2-2.76.4-5.54.64-8.37C572,832,574,828,575,823c1.17-4,2.56-7.94,4.11-11.83s3.29-7.72,5.14-11.53C599,769,624,747,645,718c10-14,13-32-1-43-19-14-49-17-53-43.51-.54-2.83-.92-5.67-1.18-8.51-1.06-11.37-.22-22.81,1-34.47l.78-10.76L606,379.54l.67-9.29C606,361,608,351,609,342c6-43,28-83,17-128-3-17-12-32-11.56-49.71"/><path class="cls-1" d="M686.18,1109.9l20.93-300.29c.24-3.36.48-6.73.75-10.12,1.57-19.25,9.36-36.37,18.25-53.18,2.22-4.2,4.51-8.39,6.81-12.61,11.7-18.63,21-39,24.59-59.7A109.06,109.06,0,0,0,759,661.59C761,632,739,606,731,581c-7.86-21.43-9.46-43.88-8.26-66.83.24-4.6.6-9.22,1-13.85C733,437,737,374,741.87,310.73q.51-7.29,1-14.38l6.1-87.5c.32-4.63.64-9.09.93-13.38C752,172,753,150,754.67,127"/><path class="cls-1" d="M663.36,1127.35l22.86-314c.3-3.32.6-6.64.95-10C688,796,690,789,692,782c4.5-12.6,12.42-24.93,20.66-37.23,2.74-4.1,5.52-8.2,8.22-12.31,21.07-24.27,28.06-53.07,20.78-79.56a80.92,80.92,0,0,0-4.84-13C733,631,727,623,720,615.74A109,109,0,0,0,708,605c-13-10-3-27-3.64-40.69L705,556l.65-8.92c.22-3,.43-5.94.65-8.9,2.47-36.15,5.14-72.17,7.87-108.5q.45-6,.91-12.12c2-24.55,4-48.55,5.38-74q.51-6.91,1-13.69l6.28-86.23q.59-8,1.12-15.52C731,196,731,163,735.54,131.43"/><path class="cls-1" d="M672.85,1138.29,696.8,809.38c.3-3.45.6-6.91,1-10.42.19-10,4.19-18,7.19-27,4.8-11.1,11.76-22.2,18.69-33.38,2.31-3.73,4.62-7.47,6.89-11.32,16.21-22.15,22.06-46,19.37-69.39a102.87,102.87,0,0,0-2.64-14C743,618,716,602,715,579c-1.5-31,.25-62.25,3-93.52q.6-6.69,1.25-13.4C725,418,729,365,733.09,310.91l1.11-15.22,5-68.27q.55-7.62,1.06-14.74,2.65-41.52,6.07-83.93"/><path class="cls-1" d="M715.51,1148.5l24.52-348,.81-11.5c.81-14.26,4.69-27.68,9.49-40.88,1.6-4.4,3.3-8.79,5.09-13.32a257.73,257.73,0,0,0,21.11-63.66c.8-4.34,1.47-8.72,2-13.2,3.77-30.32-1.81-59.62-8.5-88.9-.94-4.2-1.91-8.4-2.87-12.61C751,498,756,439,767,378c6-33,8-65,9.64-97.07l.81-11.38,10.48-148.86"/><path class="cls-1" d="M691.87,1165.9l26.52-364.25c.28-3.9.59-7.82,1-11.8C721,784,721,778,723,773c3.5-8.17,7.47-16.42,11.48-24.75,2-4.17,4-8.36,6-12.62,6.47-17.76,16.15-38.89,22.13-60.38,1.19-4.3,2.24-8.62,3.08-12.92C775,629,752,601,742,572a150.5,150.5,0,0,1-7.83-39.44c-.31-4.48-.45-9-.46-13.51C737,444,753,370,755.31,294.59l.84-11.59,11.54-158.56"/><path class="cls-1" d="M702.16,1177.1l27.21-373.68.84-11.56c1.42-13.82,5.4-26.82,10.3-39.62,1.63-4.27,3.37-8.51,5.14-12.76,8.17-21.74,20.26-44.61,27.06-67.42a133,133,0,0,0,3.34-13.79C780,640,779,621,770,606a165.27,165.27,0,0,1-16.77-42.19q-1.76-7.12-2.91-14.29C743,463,762,377,766.72,290.43q.42-5.81.84-11.48L779,122.06"/><path class="cls-1" d="M719.89,1199.45,749.77,789c.28-3.87.58-7.75,1-11.71A166.64,166.64,0,0,1,756.57,753c1.23-4,2.56-8,4-12,6.19-18.38,13.74-36.93,19.68-55.64,1.48-4.68,2.87-9.37,4.1-14.07C790,651,791,631,789,610c-2.1-12.9-5.1-25.53-8.24-38-1-4.2-2.08-8.38-3.1-12.58C767,519,763,478,768,436c6-53,17-105,19-158.43l.83-11.33,10.74-147.57"/><path class="cls-1" d="M729.38,1210.39l30.24-415.32.86-11.77a175.93,175.93,0,0,1,4.37-26.75c1-4.4,2.18-8.77,3.41-13.17,5.72-20.16,13.4-40.42,19.55-60.83,1.22-4.08,2.39-8.16,3.46-12.26C798,649,798,626,796,604c-.4-4.4-1-8.78-1.64-13.14s-1.48-8.72-2.36-13.06C781,529,771,480,776,429c6-49,19-95,20.74-143.81q.42-5.82.84-11.51l11.43-157"/><path class="cls-1" d="M634.52,1090.26l20-272c.39-3.32.72-6.63,1.13-10,3-31.77,22.48-56.41,40-82.18,2.51-3.68,5-7.38,7.35-11.13,32-35,0-66-28.17-89.49a33.07,33.07,0,0,1-4.27-26.41l.79-10.72,22.22-302.82.65-8.84c.48-4.37.83-8.76,1.09-13.16C698,233,695,202,696.42,170.72c.33-4.4.78-8.79,1.38-13.18s1.32-8.75,2.22-13.11"/><path class="cls-1" d="M644.2,1094.1l18.71-260.74.68-9.5c-1.11-34.2,17.17-61.61,35.45-89.39,2.61-4,5.22-7.94,7.77-11.94C720,702,740,672,718,650c-12-12-30-14-36.16-31.2a44.88,44.88,0,0,1-1.91-9.33,63.25,63.25,0,0,1-.22-10c.23-3.49.48-7,.72-10.47L702.9,275.91c.21-2.93.41-5.83.62-8.69.35-4.22.61-8.45.81-12.68s.34-8.48.43-12.73c.24-20.81-.76-42.81,1-63.73q.33-6.35.88-12.69a248.13,248.13,0,0,1,3.49-25.22"/></g><path class="cls-1" d="M442.47,257.73C464,250,485,238,507.88,231.44q5.24-1.47,10.48-2.86C563.88,216.6,610.22,210.5,655,243c14,10,33,8,50.44,5.56q5.71-.59,11.43-1.29l9.6-.35,74.85-2.69-1.82,23.62c-.28,3.68-.59,7.73-.93,12.1C796,332,784,382,776,435c-2,16,2,31-1,47-1,12-10,21-22,24-14,3-27-3-37.83-10.62a99.42,99.42,0,0,1-9.14-6.9,101.22,101.22,0,0,1-8.14-7.69q-4.89-4.17-9.95-8.52L577.77,377.81q-4-3.46-8-6.91C564,367,558,361,555,355c-12-31,6-71-21-94-8.5-7.5-19-11-30.07-12.56-2.76-.39-5.57-.66-8.4-.81-14.53.37-29.53,4.37-44,9.2C445.58,257.51,442.47,257.73,442.47,257.73Z"/><path class="cls-3" d="M-265.25,1040.62,48.66,673.84q3.36-3.93,6.67-7.78C72,647,93,634,114,618c22-19,30-47,44.95-69.72"/><path class="cls-3" d="M-277.11,1022.75,46,647l6.71-7.79C86,607,119,573,143.71,534.39"/><path class="cls-3" d="M-259.93,1016.46l308.71-359c2.26-2.59,4.49-5.17,6.72-7.7C92,618,127,584,150.86,540.57"/><path class="cls-3" d="M-269.82,1089.41l335.5-391.9q3.39-4,6.74-7.85a81.3,81.3,0,0,1,13.13-12.33,45.24,45.24,0,0,1,7.84-4.61C137,671,165,637,173.67,596.43c1.48-4.33,2.87-8.69,4.22-13s2.63-8.65,3.91-12.9"/><path class="cls-3" d="M-280.41,1012.14,39.2,638.68l6.63-7.75C77,597,109,563,135.77,526.2"/><path class="cls-3" d="M-250.5,944.39,44.25,601.6l6.3-7.32C73,568,95,543,117.23,516.75l3.3-3.86"/><path class="cls-3" d="M-242.72,951.08,45.57,615.81l6.48-7.48C78,579,104,550,128.34,519.62"/><path class="cls-3" d="M-295.19,981.23,59.38,566.94,69.6,555c5.4-8,13.4-13,17.61-20.58L94.45,526l17.49-20.44"/><line class="cls-3" x1="-367.72" y1="1030.18" x2="95.52" y2="491.45"/><line class="cls-3" x1="-361.94" y1="1041.71" x2="104.56" y2="499.2"/><path class="cls-3" d="M-256.63,1124.24l337-393.65,7-8.18c2.82-2.71,5.49-6,8.52-8.91C99,711,103,708,106,708c26-5,53-1,74-17,30-23,18-65,27.13-97.46"/><path class="cls-3" d="M-323.69,1169,71.93,708.39c2.19-2.55,4.37-5.08,6.58-7.55a49.51,49.51,0,0,1,7.9-7.77,53.56,53.56,0,0,1,9.1-5.69C114,678,135,681,154,675c28-10,22-45,29.57-67.77q1.71-7.29,3.67-14.27c1.3-4.61,2.68-9.12,4.24-13.42"/><path class="cls-3" d="M-313.64,1173.05,73.62,722.17l6.61-7.7a55.3,55.3,0,0,1,9.27-9.7C113,684,148,698,173,682c27-16,12-55,22.29-82.29,1.26-4.53,2.63-8.91,4.19-13.09"/><path class="cls-3" d="M-226.38,1136.92,99,756.88c2.36-2.76,4.7-5.49,7.06-8.17,3-5.71,8-8.71,13-11.71,34-16,100,4,106-43,4-28-2-57,4.9-84.06"/><path class="cls-3" d="M-293.48,1182.34l375.35-437,7-8.13a61.84,61.84,0,0,1,8.34-9.91C124,701,163,716,196,707c10-3,14-13,14-22,0-29-4-58,5.45-85.51"/><path class="cls-3" d="M-283.5,1187.16l374-435.41,7-8.1C123,709,169,725,207,716c7-2,14-7,14-15,1-32-10-65,2.18-95.83"/><path class="cls-3" d="M-264.54,1194.72,99.25,771.17l7-8.16C129,729,174,736,210,731c17-2,37-10,31-30-9-28-17-58-4.1-86.12"/><path class="cls-3" d="M-255.64,1200.1l363-422.61,7-8.14C142,733,191,747,230,735c9-3,22-7,21-18-3-32-25-65-6.73-96.78"/><path class="cls-3" d="M-251.53,1037,55.28,680.24c2.34-2.71,4.65-5.39,7-8,8.37-11.11,19.56-18.17,31.16-24.82,3.86-2.21,7.77-4.38,11.64-6.65a106.34,106.34,0,0,0,38.53-37c2.18-3.84,4.14-7.79,6-11.8,5.58-12,10.24-24.57,17-36.17"/><path class="cls-3" d="M-245.09,1045.29,55.63,695.57l7.08-8.24c7.65-10.66,17.72-18,28.75-24,3.68-2,7.47-3.85,11.34-5.61C127,650,149,636,156.54,610.86c1.58-3.88,3.07-7.83,4.52-11.84,4.35-11.91,8.27-24.21,13.87-35.13"/><path class="cls-3" d="M-209.37,1290,185.86,828c2-2.32,4-4.62,6-6.88C198,814,206,808,214,803c10.8-6.3,23.4-10.53,36.07-14.61,4.23-1.36,8.46-2.7,12.67-4.1C290,775,332,763,328,728c-2-17-13-32-8.93-49"/><path class="cls-3" d="M-272.67,1332.4,168.19,820.29c2-2.31,4-4.61,5.95-6.87A95.2,95.2,0,0,1,201,793c12.38-5.25,25.73-8.53,39-12.06,4.41-1.17,8.81-2.38,13.16-3.69C276,768,312,761,314,733c1-19-15-34-14-54,1-4,0-8,2.49-11.69"/><path class="cls-3" d="M-260.7,1334.22,178.84,823c1.93-2.24,3.85-4.46,5.82-6.63,15.21-17.08,35.76-24.65,56.85-30.86,4.21-1.24,8.45-2.43,12.67-3.63C307,779,336,732,310,684c-1-3,2-6,1.37-10.32"/><path class="cls-3" d="M-209.8,1335.63,212.9,841.74q3.34-3.93,6.66-7.77c9.17-10.12,19.82-17.56,31.18-24,3.79-2.15,7.66-4.2,11.58-6.19C307,785,380,761,350.29,698.14"/><path class="cls-3" d="M-237.2,1277.71,159.11,814.65l6-7c19.15-23.33,49.88-27.77,78.69-35.22,4.12-1.07,8.2-2.19,12.2-3.44,52-5,56-51,33.26-88.4a39.36,39.36,0,0,1,.17-10.45,35.32,35.32,0,0,1,3.45-10.62"/><path class="cls-3" d="M-304.27,1322.68,142,802.62l5.87-6.83c22.91-26.07,58.69-27.79,91.4-35.19,4.67-1.05,9.28-2.23,13.78-3.6,34-4,42-38,24.63-62.52-1.53-4-3-8-4.14-12-3.52-12-4.55-24,2.39-35.61"/><path class="cls-3" d="M-294,1326.52,151.21,807.59q3-3.47,5.93-6.88c21.6-23.6,52.58-26.27,82.6-33.29,4.29-1,8.56-2.1,12.78-3.35C294,760,306,720,283.47,688.61a112.44,112.44,0,0,1-3.33-12A50,50,0,0,1,279,665c0-5,5-7,5.18-11.9"/><path class="cls-3" d="M-249.91,1243.7,135.37,793.52q3.42-4,6.83-7.94C147,781,151,775,158,772c26.6-13.3,70.35-9,95.92-22a42.62,42.62,0,0,0,9.81-6.73C273,734,275,721,273.51,707.85a118.76,118.76,0,0,0-3.31-13.42c-5.39-18-13.11-36.52-2.93-54.7"/><path class="cls-3" d="M-245.94,1205.28l362.09-421.1,7-8.1C135,760,153,754,173,750c30-7,83,3,86-31,2-30-25-61-6.51-92.42"/><path class="cls-3" d="M-242.2,1216.65,123.41,791.47l6.24-7.26C137,774,147,766,158,762c29.75-9.62,61-7.77,90.49-17.2A116.65,116.65,0,0,0,261,740c12-6,13-22,7-32-1.83-3.83-3.72-7.81-5.52-11.87-9-20.35-15.82-43.11-2.55-63"/><path class="cls-3" d="M-216.73,1393.24l462.31-541,6.25-7.31c6.81-8.21,14.73-14.89,23.12-21,2.8-2,5.65-4,8.59-5.93C321,789,403,774,393.39,715"/><path class="cls-3" d="M-246.38,1392.57,221,849l6.53-7.59C232,838,234,833,238,830c4.25-2.75,8.56-5.44,12.9-8.11s8.7-5.31,13-7.95C300,785,397,766,364.37,705"/><path class="cls-3" d="M-245.26,1407,234.92,848.58c2.1-2.44,4.18-4.86,6.29-7.24A57.81,57.81,0,0,1,259,826q5.75-3.5,11.44-7.07c3.79-2.4,7.56-4.82,11.39-7.27C316,783,398,767,378.53,710.39"/><path class="cls-3" d="M-217.06,1440.61,278,862.19l6-7q4.5-4.77,9.11-9.42c3.08-3.11,6.18-6.19,9.36-9.24,22.48-24.79,57.37-38.18,86.4-56.3,4.16-2.59,8.2-5.27,12.07-8.11C417,761,430,746,437.64,727.64"/><path class="cls-3" d="M-246.42,1440.52,253.9,858.68l6.29-7.32a88.84,88.84,0,0,1,9.58-11.56A98.05,98.05,0,0,1,281,830c29.25-28.5,86.06-41.25,113.44-72.28a66.53,66.53,0,0,0,8-11.07C408,739,410,729,409.91,719.33"/><path class="cls-3" d="M-244.8,1455.64,267.82,859.48l6-7q4.77-4.68,9.69-9.27t9.91-9.13C320,811,350,796,381,776c3.17-2,6.56-4,10-6.14s6.95-4.33,10.34-6.68C415,755,427,741,425.55,723.87"/><path class="cls-3" d="M-243.87,1484.16,292.24,860.69l5.89-6.85q4.78-5.39,9.79-10.6c23.86-24,53.06-38.51,81.47-56,4.07-2.51,8.13-5.08,12.16-7.75C420,766,444,755,450.57,732"/><path class="cls-3" d="M-242.75,1498.59l547.5-636.72,5.63-6.55c21.36-24.1,48-40.27,74.55-57.1q5.7-3.62,11.38-7.28C419,775,445,761,461.79,736.77"/><path class="cls-3" d="M-247.47,1345.6,194.4,832.32c2.23-2.6,4.45-5.17,6.7-7.7,13-13.81,29.18-22,46.29-29,4.28-1.77,8.61-3.47,13-5.19C284,781,312,776,330,756c18-21-2-46-1.13-70.44"/><path class="cls-3" d="M-241.84,1355.19,200.78,839.33l6.66-7.76c12.22-14.11,28.14-23.69,45.19-31.58,3.41-1.58,6.86-3.09,10.35-4.56C311,785,366,747,338.36,691.86"/><path class="cls-1" d="M743.21,506.89C762,481,773,444,807,436c15.11-3.11,26.47,3.65,37,13.1,1.31,1.18,2.61,2.4,3.89,3.69C858,465,861,481,868,495c4,5,7,14,13,13,13-2,14-24,29.57-24,1.42-.27,2.83-.57,4.23-.89s2.78-.67,4.15-1c4.71-1,8.86-1.95,12.29-2.74,6.87-1.57,234-68,234-68"/><path class="cls-1" d="M748.85,507.47C772,485,783,425,818,440c7.73,3.18,14.83,8.27,21.74,14.05q2.07,1.74,4.12,3.54C849,461,851,466,854,470c9,14,14,48,32,40,8-3,13-16,24.46-19,1-.17,1.94-.38,2.92-.62a58.32,58.32,0,0,0,6.06-1.84c4.54-1,8.55-1.95,11.87-2.72,6.63-1.54,248.23-69.58,248.23-69.58"/><path class="cls-1" d="M746.13,507.25C768,484,774,443,807,435c14.29-3.43,24.65,5.55,34.46,16.68,1.23,1.39,2.44,2.81,3.66,4.25C861,472,861,513,885,509c9-2,12-20,24.58-21.28,1.61-.28,3.22-.62,4.83-1s3.22-.91,4.82-1.47c4.63-1,8.71-2,12.08-2.74,6.75-1.57,233.83-68,233.83-68"/><path class="cls-1" d="M734.86,505C757,485,769,459,787,435c10-13,25-19,39-9,7.25,5.5,14.13,12.06,21,18.58,1.38,1.31,2.74,2.64,4.06,4.09C865,463,862,498,882,496c10-1,16-19,30.13-21.94,1-.25,1.94-.53,2.92-.83s2-.64,3-1c4.94-1,9.29-2,12.89-2.81,7.19-1.66,234.53-68.13,234.53-68.13"/><path class="cls-1" d="M752,507.61C768,484,780,448,811,444c13-1.5,22.5,5.25,31.13,14.38,1.23,1.3,2.44,2.66,3.63,4.15C860,481,862,518,885,518c9,0,11-22,26.12-23.35,1.47-.29,2.92-.6,4.36-.94s2.85-.68,4.24-1L931.37,490c6.51-1.5,248-69.51,248-69.51"/><path class="cls-1" d="M758.09,507.72C772,485,791,438,823,456a102.09,102.09,0,0,1,16.73,11.58c1.35,1.11,2.69,2.25,4,3.49C861,487,862,523,887,524c9,0,11-18,22.32-20.54,1.77-.45,3.58-.95,5.43-1.57a55.89,55.89,0,0,0,5.67-2.24l15.41-3.57c3.66-.85,243.45-68.47,243.45-68.47"/><path class="cls-1" d="M755.12,507.69C774,487,786,432,819,449c7.5,3.64,14.54,9,21.45,15,1.38,1.19,2.76,2.4,4.13,3.69C861,484,861,515,884,520c11,2,12-19,24.52-20.29,1.83-.41,3.72-.87,5.64-1.45A55.62,55.62,0,0,0,920,496.1l15.7-3.64c3.74-.87,243.56-68.5,243.56-68.5"/><path class="cls-1" d="M760.88,508C774,486,792,445,823,460a78.82,78.82,0,0,1,13,8.47q2.12,1.65,4.2,3.41C855,485,860,505,873,520c5,4,10,14,16,9,9-6,11-20,22-22.86,1-.33,1.91-.67,2.88-1l11.24-2.56c10-2.3,253.94-70.86,253.94-70.86"/><path class="cls-1" d="M770.85,493.16C780,476,795,448,818,461c7.5,4.25,14.25,10.31,20.79,16.87,1.31,1.31,2.61,2.64,3.9,4.08C861,499,864,538,894,535c7,0,7-20,19.9-22.15l3.4-.79,3.23-.75c12.55-2.9,258.31-71.91,258.31-71.91"/><path class="cls-1" d="M764.19,507.86C776,488,789,455,816,463c8,2.27,15.19,6.66,22.11,11.91,1.38,1,2.76,2.13,4.12,3.29C847,482,851,488,855,494c9,15,16,34,32,38,11,3,10-15,19-20,2-1,4-1,5.51-2.49.93-.32,1.88-.64,2.85-1l11-2.54c9.82-2.28,253.59-70.83,253.59-70.83"/><path class="cls-1" d="M725.18,500.85C750,479,767,452,790,427c17-18,42-12,58,4l3.6,3.58C857,439,859,446,863,452c6,11,2,34,20,31,12-3,20-19,34.77-22l3.71-.79c3.57-.75,6.76-1.48,9.52-2.12,7.36-1.68,234.78-68.18,234.78-68.18"/><path class="cls-1" d="M731.53,503.8C758,482,768,449,794,427c19.8-16.8,36-4.08,51.84,11.59,1.32,1.31,2.64,2.63,3.95,4C866,456,862,498,882,491c12-3,20-22,35.63-23,1.26-.25,2.48-.51,3.66-.76,3.54-.75,6.72-1.48,9.46-2.12,7.33-1.69,234.74-68.19,234.74-68.19"/><path class="cls-1" d="M728.45,502.44C736,498,742,491,749,484c22-23,31-68,65-66,13.5.5,23.5,9,33.38,18.75q1.85,1.83,3.7,3.71C866,454,862,488,880,488c13,0,21-23,38.6-23.64,1.41-.32,2.8-.66,4.18-1l10.48-2.42c5.82-1.34,232.28-67.62,232.28-67.62"/><path class="cls-1" d="M715.43,494.61C750,477,765,441,794,415c21.67-18.06,40.73-3.25,58.68,12.4,1.38,1.2,2.76,2.41,4.11,3.65C870,441,866,471,883,468c14-3,25-18,41.27-19.74l3.35-.76,3-.7C938.39,445,1166,378.49,1166,378.49"/><path class="cls-1" d="M722,498.89C733,489,744,480,754,469c20-21,33-59,66-56,13.14,1.14,22.37,8.82,31.22,17.8,1.11,1.12,2.21,2.26,3.3,3.44C859,437,859,442,862,446c6,12,5,36,18,33,16-3,26-23,44.76-23.71l3.23-.72,3-.68c7.48-1.73,235-68.25,235-68.25"/><path class="cls-1" d="M718.68,496.8C750,480,764,445,790,421c22.28-22.95,42.73-6.26,63.2,10.7.76.63,1.52,1.27,2.26,1.93C868,444,866,463,876,475c2,1,5,2,7,1,14-10,25-24,41.56-24.46,1.15-.25,2.25-.51,3.3-.75l3-.69c7.6-1.76,235.17-68.29,235.17-68.29"/><path class="cls-1" d="M712.67,492.63C744,478,762,450,782,422c20.83-28.33,47.92-15.69,70.25.88,1.49,1.1,3,2.23,4.41,3.36A60.27,60.27,0,0,1,863,432c8,10,6,31,19,31,14,0,26-16,42.22-18.21l3.41-.79,3.09-.71c7.82-1.81,235.51-68.38,235.51-68.38"/><path class="cls-1" d="M709.42,490.21C741,475,762,447,785,420c22.55-27.64,47.74-15.07,71.34,1.14,1.47,1,2.94,2,4.36,3.13C873,432,871,452,883,455c15,4,26-13,41.19-13.84l3.46-.81,3.14-.72c7.94-1.84,235.71-68.42,235.71-68.42"/><path class="cls-1" d="M740.78,506.49C759,482,771,455,797,437c18.33-13.33,33-4.75,46.63,8.42q2.05,2,4.08,4.08C863,466,860,504,883,504c9,0,13-21,27.25-23.65,1.41-.28,2.8-.55,4.18-.8s2.75-.51,4.11-.72c4.77-1,9-2,12.45-2.79,7-1.61,234.16-68.06,234.16-68.06"/><path class="cls-1" d="M737.76,505.83C768,483,777,415,819,429c9.27,3,17.65,9,25.82,15.76,1.36,1.13,2.71,2.28,4,3.51C865,462,862,503,883,498c11-3,16-20,29.54-21,.94-.23,1.89-.49,2.86-.78s1.93-.61,2.92-1c4.86-1,9.14-2,12.68-2.82,7.08-1.64,234.35-68.11,234.35-68.11"/><path class="cls-1" d="M679.08,464.68l19.64-4.5L712.54,457C723,455,734,453,740,445c39.38-48.23,89.41-71.27,147.24-36.69.91.56,1.83,1.12,2.75,1.7,4,2,9,2,13.47,2,1.26-.06,2.51-.15,3.73-.24l3.52-.27c5.11-1.09,9.75-2.15,13.84-3.09,12.27-2.81,242.78-70,242.78-70"/><path class="cls-1" d="M685.61,470.27l19.14-4.45,13.5-3.18C725,461,732,459,739,455c32-20,49-67,91-60,16.31,2.25,30.41,10.2,45,16.13,1.61.67,3.23,1.32,4.83,2C890,417,900,419,911.34,417.72l3.68-.83c3.56-.79,6.85-1.55,9.84-2.25,12-2.78,242.28-70,242.28-70"/><path class="cls-1" d="M682.65,467.36,702,462.87l13.63-3.16C728,458,739,453,746,444c34-40,78-72,130-36,1.25.75,2.55,1.47,3.88,2.14s2.69,1.34,4.07,1.95c8,4.91,18,4.91,27.11,2.14,1.27-.25,2.5-.5,3.71-.76,3.61-.76,6.94-1.53,10-2.23,12.1-2.81,242.5-70,242.5-70"/><path class="cls-1" d="M669.87,456.78l42.91-9.84c2.87-.67,5.85-1.37,8.92-2.19C751,434,766,407,793,390c34-22,65,6,99,12,6,1,12,0,17.82-.41,5.29-1.06,10.09-2.17,14.33-3.14,12.71-2.91,243.48-70.17,243.48-70.17"/><path class="cls-1" d="M688.88,473.08l8.74-2q6.15-2.69,12.34-5.22c4.14-1.7,8.29-3.35,12.46-5C729,459,735,455,741,450c30-29,61-80,108-51,6,3.71,12,7.59,18.1,11.09q2.29,1.32,4.59,2.56C885,421,901,426,916.42,420.87l3.1-.71,8.31-1.9C937.92,416,1167,349.07,1167,349.07"/><path class="cls-1" d="M695.57,478.82c4.62-1.81,9.22-3.65,13.81-5.48s9.21-3.7,13.82-5.62C730,464,738,461,743,454c31.23-42.59,75.9-78.91,122.14-41.14.86.72,1.73,1.46,2.6,2.23C880,437,904,434,923.82,426.15l3.56-.82,3.25-.75c8.24-1.9,236.17-68.51,236.17-68.51"/><path class="cls-1" d="M692.23,476s3.11-.71,8.62-2.07c4.51-1.23,8.94-2.67,13.29-4.26A105.55,105.55,0,0,0,727.08,464c2.92-2,6.92-4,9.92-6,30-22,43-72,86-64,14.85,2.7,28.08,10.87,41.41,18.22q2.22,1.23,4.44,2.42C883,425,900,430,916.8,424.14l3.09-.73,8.21-1.88c9.95-2.3,239-69.16,239-69.16"/><path class="cls-1" d="M699.14,481.86a95.34,95.34,0,0,0,10.24-2.77c3.36-1.1,6.66-2.37,9.93-3.76C728,473,735,467,742,461c21-20,31-49,58-61,22.39-9.39,40.6,4.17,59.17,16.58,1.43.95,2.86,1.9,4.29,2.83C879,440,902,440,924,430.3l3.51-.8,3.2-.74c8.12-1.86,236-68.45,236-68.45"/><path class="cls-1" d="M706,487.5q6.25-3.56,12.58-7C727,475,736,471,744,464c21-20,33-48,60-60,21.31-9.62,37.43,3.44,53.54,16.12,1.46,1.15,2.92,2.31,4.34,3.5C871,431,873,445,883,449c15,4,26-11,40.83-11.72l3.51-.82,3.18-.73c8.06-1.87,235.89-68.47,235.89-68.47"/><path class="cls-1" d="M702.38,484.89c2.81-.94,5.71-1.67,8.67-2.53a52.1,52.1,0,0,0,9-3.37c32-15,43-50,71-72,9-7,19-10,30-8,13.6,3.2,25.6,11.2,37.46,19l4.42,2.94c15.12,24,38.12,24,60.8,12.7l3.56-.82,3.23-.75c8.2-1.9,236.1-68.51,236.1-68.51"/><path class="cls-1" d="M659.49,447.88l44.58-10.19,8.29-1.9C721,435,728,431,736,427c29-18,49-51,85-52,32,0,62,24,94.15,14.44l12.34-2.82C938.4,384.13,1168,317.15,1168,317.15"/><path class="cls-1" d="M666.37,453.77l43.47-10.08,8.1-1.91C724,441,729,438,735,435c24-15,39-39,64-51,32-14,62,9,94,14,8,1,15,0,22.69-2l12-2.79c10.65-2.47,240-69.43,240-69.43"/><path class="cls-1" d="M663,450.91l44-10.21,8.18-1.89C722,437,729,435,736,431c29-20,49-53,86-54,32,0,61,26,93.44,15.37l12.18-2.82c10.78-2.5,240.26-69.48,240.26-69.48"/><path class="cls-1" d="M649,438.91l54.88-12.59,9.09-2.09A53.59,53.59,0,0,0,736,415c30-18,54-49,92-46,29,3,57,18,86.38,9l12.8-2.94c11.33-2.6,241.14-69.64,241.14-69.64"/><path class="cls-1" d="M656.23,445l53.5-12.4c2.88-.67,5.84-1.36,8.87-2.1C746,421,763,399,787,383c31-19,64-5,95,3,11,3,22,3,33-1l12.49-2.89c11-2.57,240.69-69.58,240.69-69.58"/><path class="cls-1" d="M652.27,442l54.27-12.59c2.92-.67,5.93-1.37,9-2.11A113.93,113.93,0,0,0,731,422c33-19,57-55,98-51,29,3,57,20,85.73,10.16l12.67-2.93c11.2-2.6,240.93-69.64,240.93-69.64"/><path class="cls-1" d="M646.29,436.57l64.59-15c3.14-.73,6.35-1.5,9.61-2.52C744,411,760,393,782,379c37-24,75-3,112-1a53.13,53.13,0,0,0,20.19-3.56l12.93-3c11.44-2.65,241.31-69.72,241.31-69.72"/><path class="cls-1" d="M643,433.7l65.33-15.15c3.18-.74,6.43-1.49,9.74-2.32C758,404,784,360,829,365c29,3,57,14,84.94,5.86l13.08-3c11.57-2.68,241.52-69.77,241.52-69.77"/><path class="cls-1" d="M676.59,462.54l19.83-4.61,14-3.25C720,453,730,450,739,444c27-19,42-51,76-56,26.25-4.37,47.91,12.69,72.34,19A70.5,70.5,0,0,0,898,409c2,0,4,.25,6.06.26a15.68,15.68,0,0,0,6.44-1.18c5.15-1.13,9.83-2.22,14-3.18,12.39-2.88,243-70.12,243-70.12"/><path class="cls-1" d="M673.42,459.83l34.2-7.89,8.15-1.9C753,443,768,402,802,388c33-13,63,14,95,18,4,0,9,1,13.18-.87,5.21-1.14,10-2.23,14.13-3.2,12.55-2.89,243.22-70.14,243.22-70.14"/><path class="cls-1" d="M1234.76,460.28S997.92,525.51,932.5,542c-1.21.31-2.36.59-3.45.89-5.27,1.17-8.42,4.86-10.67,9.11a43.71,43.71,0,0,0-2,4.44C916,569,903,575,892,567.78a44.3,44.3,0,0,1-4.25-2.49c-15.31-10-30-32.54-43.67-44.1l-3.66-4c-7.32-7.91-14.76-15.91-23.43-22.24-4-3-9-4-13-5.66"/><path class="cls-1" d="M1231.13,454.16s-237.21,65.39-303.07,82.06c-1.22.31-2.38.61-3.47.92-9.12,1.79-11,11.44-13.28,18.68a39,39,0,0,1-1.42,4.1C908,566,901,564,895.63,563.16a33,33,0,0,1-4.47-1.59c-18.93-8.13-33.66-34.11-48.82-49.44q-1.79-2-3.55-4c-5.88-6.63-11.68-13.32-17.79-19.15-7-7-16-6-23.85-4.57"/><path class="cls-1" d="M1226.73,458.5S999.37,521.23,930,539c-1.31.33-2.56.66-3.74,1-5.74,1.5-8.9,6-11.14,10.88-.73,1.66-1.37,3.36-2,5C914,567,903,572,894.7,565.48q-2.28-1-4.45-2.14c-18.7-9.89-32.84-32.07-48.42-48.23-1.16-1.32-2.33-2.63-3.49-3.93-10.48-11.74-21.18-22.74-37.68-24.74"/><path class="cls-1" d="M1250.15,466.79s-244.54,67-314.59,84.53c-1.25.32-2.45.62-3.54,1a14.38,14.38,0,0,0-4,2.37,17.79,17.79,0,0,0-3,3.43c-6,7.9-2,20.9-10,25.9-8,4-18-4-26.06-10.42-1.36-1-2.7-2.12-4-3.26-11.87-10-23.72-24.7-36.35-31.63q-1.77-1.59-3.48-3.23c-10.26-9.8-19.35-21-30-30.72"/><path class="cls-1" d="M1228.58,451s-228.71,63-299.69,81l-3.84,1c-7.53,1-11.29,7.48-13.92,13.85-1.31,3.18-2.35,6.34-3.43,8.76s-2.16,4.17-3.67,4.41a29.44,29.44,0,0,1-9.71-1c-21.59-5.83-36.57-35.66-52.34-53.75-1.17-1.32-2.33-2.62-3.5-3.91A186.71,186.71,0,0,0,820,483c-8-6-19-8-27.18.3"/><path class="cls-1" d="M1203.51,449.2S948.35,520.37,924.4,525.9l-3.64.84C910,528,907,540,904,549c-2,6-8,7-13,4-22-16-33-37-49.11-56.06-1.22-1.4-2.44-2.74-3.67-4.06A165.11,165.11,0,0,0,823,478c-12-10-29-7-37.35,6.33"/><path class="cls-1" d="M1204.3,452.66s-254.91,71.11-278.52,76.56l-3.59.83C907,532,910,557,900,556c-28-3-42-36-60.51-57.1-1.19-1.4-2.4-2.81-3.62-4.2-13.46-15.31-28.91-28.76-46.59-11.3"/><path class="cls-1" d="M1221.61,441.53S981,508,923.41,522.37l-3.06.76C908,524,905,537,901,547c-4,8-11,1-16-2-19-15-29-35-44.48-53.45q-1.83-1.95-3.69-3.86c-7.42-7.64-15.1-14.78-23.83-19.69-13-7-25,7-31.28,18.08"/><path class="cls-1" d="M1210.38,435.15s-236.45,67.15-293,80.66l-3,.71A12.26,12.26,0,0,0,905,522c-6,7-5,22-13,20-27-6-34-39-50.72-57.89-1.26-1.38-2.52-2.73-3.79-4.07-6.36-6.66-13-12.79-20.49-17-20-12-35,13-42.7,27.73"/><path class="cls-1" d="M1223.57,435.15s-246.78,70.69-303.19,84.2l-2.88.68C903,522,904,543,897,544c-28,3-38-38-57.39-57.33-1.19-1.29-2.39-2.58-3.59-3.84-6-6.34-12.2-12.28-19-16.83-18-13-31,9-38.65,22"/><path class="cls-1" d="M1258.47,476.2s-234.19,64-315.87,84.66L938.37,562C921,571,935,594,926,602c-13,11-28-16-42-24L881.79,576c-8-7-16.28-14.28-25-17.68-1.41-.94-2.77-1.93-4.1-3-9.34-7.21-17.17-16.37-25.33-25.68"/><path class="cls-1" d="M1282.55,463.23s-258,70-344.73,91.57c-1.42.35-2.8.7-4.09,1.09a14,14,0,0,0-5,2.43,15.31,15.31,0,0,0-3.4,4.16C921,573,926,588,920,593c-11,8-22-11-34.1-18.2-1.44-1.17-2.86-2.37-4.29-3.61-9.89-8.56-19.66-18.94-30.72-25.69-1.29-1.09-2.56-2.19-3.81-3.32-10-9-18.62-19.25-27.34-28.69"/><path class="cls-1" d="M1282.18,467S1033.42,534.48,943.61,557l-4.35,1.09a19.82,19.82,0,0,0-4.41,1.3,15.58,15.58,0,0,0-3.53,2.16C919,574,930,592,922,606c-13-8-22-20-33.85-29-1.4-1.11-2.76-2.17-4.12-3.23-9.33-7.11-18.39-14-28.7-20-1.25-.85-2.45-1.73-3.64-2.63-10.65-8.14-19.52-18.7-28-29.46"/><path class="cls-1" d="M1257.61,487.73s-212.78,58-305.55,81.91L946.94,571C938,573,931,580,923,583c-11,5-23,2-35.07-.28-1.65-.26-3.24-.53-4.84-.89a65,65,0,0,1-13.58-3.93,83.11,83.11,0,0,1-11.35-5.71C851,567,844,562,838.39,556.05"/><path class="cls-1" d="M1281.81,474.61s-236.59,64-334.69,88.95l-5,1.26C922,572,940,601,927,610c-13,8-25-18-38.09-26.32-.83-.75-1.66-1.47-2.58-2.37-8.59-7.19-17.45-14.55-25.94-16q-1.93-1-3.79-2.21a90.45,90.45,0,0,1-25-23.62"/><path class="cls-1" d="M1281.69,478.43S1046.05,542.27,948.9,567L944,568.2c-18,7.8-2,39.8-11,45.8-18,11-34-24-52.65-33.88-1.46-1.06-2.93-2.09-4.4-3.07a45.14,45.14,0,0,0-13.59-6.44c-1-.54-2-1.1-3-1.68s-2-1.18-2.94-1.8C848,562,842,556,835.55,548.65"/><path class="cls-1" d="M1281,485.44s-227.64,61.67-327,87.06l-5.11,1.3C938,575,932,586,923,589c-12,5-24-2-35.6-3.4-1.72-.32-3.39-.62-5.07-1-11.34-2.06-22.13-7.14-31.66-13.77a96.85,96.85,0,0,1-9.27-7.42"/><path class="cls-1" d="M1281.21,489S1054.42,550.5,955.94,575.7L950.88,577c-2.88,0-6.88,1-8.88,3-15,24-39,14-59.94,9.35-1.54-.23-3.07-.5-4.58-.83a65.26,65.26,0,0,1-13.18-4.21,64,64,0,0,1-19.25-13.13"/><path class="cls-1" d="M1231.53,463.89s-227.19,62.68-296.31,80.4l-3.74,1c-5.81,1.78-9.29,6.27-11.81,11.18a55.27,55.27,0,0,0-2,5.31C915,566,917,573,913,575c-8,5-15-3-22-5-1.48-.81-2.93-1.68-4.37-2.63-15.6-10.13-29.6-29.5-42.65-43.08l-3.34-3.66A184.65,184.65,0,0,0,823,503c-5-4-9-8-15.33-9.53"/><path class="cls-1" d="M1233,467.19s-226.9,62.62-295.67,80.26l-3.72.95a15.34,15.34,0,0,0-5.42,2.3,17.83,17.83,0,0,0-4,3.84C920,561,918,567,918,574c-1,17-18,3-25.57-.08-1.48-.86-2.91-1.74-4.34-2.72C873,561.52,859.56,543.69,845.4,532q-1.87-1.83-3.71-3.71c-9.84-10-19.21-20.77-30-29.16"/><path class="cls-1" d="M1301,517.71s-218.08,58.12-332.25,87.43l-2.93.75C961,607,957,610,956,614c-3,10-4,23-18,20s-26-12-41.11-11.15c-1.26.23-2.46.49-3.62.74C886,624,879,626,871.61,625.46"/><path class="cls-1" d="M1323.66,505.25s-238.14,63.31-358.53,94.09l-2.86.73C949,603,950,617,947,627c-1,1-4,3-6,3-18,0-32-16-50.21-13.3-1.37.17-2.75.34-4.12.48-6.86.73-13.62,1-20.21-.4"/><path class="cls-1" d="M1322.33,509.2s-236.54,62.89-355.63,93.31l-2.83.73C948,605,957,627,946,631c-18,5-33-13-52.41-11.16l-4.05.68c-6.76,1.1-13.59,1.94-20.34,1"/><path class="cls-1" d="M1314.68,524.57s-209.55,55.35-331.88,86.82l-3.23.83C967,613,962,623,958,634c-2,4-7,5-11,6-16,1-31-10-47.4-7.79l-3.22.73-5.69,1.3c-6.91,1.57-10.94,2.46-10.94,2.46"/><path class="cls-1" d="M1301.73,506.88S1075.47,567.32,963,596.06l-2.82.72C944,599,951,620,941,624c-16,8-31-12-49.21-10.51-1.66.11-3.28.27-4.9.37a58.42,58.42,0,0,1-23.58-3.08"/><path class="cls-1" d="M1325.7,494s-253.2,67.54-366.46,96.08a50,50,0,0,0-5.11,1.5C942,596,945,611,937,619c-5,3-10-1-15-2-11-5-22-10-34.09-10.48-1.8-.07-3.55-.15-5.31-.31a67.26,67.26,0,0,1-25-7"/><path class="cls-1" d="M1325.25,497.78S1079.6,563.09,961.46,593c-1.84.47-3.66.93-5.37,1.52C945,597,945,608,943,617c-2,8-10,7-15,5-14-5-27-15-42.78-13.11-1.38.1-2.77.18-4.15.23-6.9.23-13.74-.42-20.41-3.72"/><path class="cls-1" d="M1293.12,497.69s-228.56,61.54-332.7,88.07c-1.8.46-3.56.9-5.27,1.35C943,590,940,602,936,612c-1,2-4,3-6,3-17-2-31-15-48.66-13.23-1.62-.08-3.22-.22-4.82-.42a42.56,42.56,0,0,1-22-9.14"/><path class="cls-1" d="M1281.24,492.83s-226.83,61.51-324.9,86.64l-5,1.29C939,583,938,598,928,601c-15,5-29-7-44.21-7.1-1.62-.21-3.23-.45-4.83-.75a63,63,0,0,1-30.41-14.21"/><path class="cls-1" d="M1284.07,495.81S1057.74,557,955.4,583.23a43.39,43.39,0,0,0-5.06,1.53C938,589,939,607,927,608c-14,1-26-9-40.18-10-1.64-.16-3.23-.29-4.81-.47a55.7,55.7,0,0,1-30.33-11.59"/><path class="cls-1" d="M1333,531.71,992.77,619.14l-3.55.91C976,622,969,632,960,640c-14,14-36-3-54.4,1.55-1.12.27-2.17.54-3.17.8L890,645.54"/><path class="cls-1" d="M1337.63,523s-219.36,57.3-351.12,91.22l-3.33.86C966,615,965,633,954,640c-3,2-6,3-10,2-14-2-28-10-42.22-6.19L896.72,637c-1.48.36-2.74.65-3.78.89l-9.29,2.15"/><path class="cls-1" d="M1341.79,525.69,988,616.89l-3.5.91C971,618,967,633,957,640c-12,9-28,0-42-2-4,0-9-1-12.77,1l-3.09.8L887,642.94"/><path class="cls-1" d="M1347.47,539.74l-350.79,90.2c-1.15.29-2.28.58-3.4.88C981,634,972,643,961,648c-15,8-32,0-48.14,3.52-2,.47-3.66.91-5.13,1.29l-6.83,1.75"/><path class="cls-1" d="M1352.05,530.77l-357.17,92-3.44.89C978,626,971,636,960,643c-16,12-36-2-54.49,2.79l-5,1.29-6.68,1.72"/><path class="cls-1" d="M1356.35,533.71l-361.15,93c-1.15.29-2.28.59-3.4.89C978,629,970,643,958,647c-16,6-33-2-48.85,1.89l-5,1.28-6.69,1.73"/><path class="cls-1" d="M1364.77,538.61,998.52,632.89l-3.38.88C981,636,971,648,957,651c-14,4-27,1-41.45,3.31-1.95.44-3.63.88-5.09,1.25l-6.72,1.73"/><path class="cls-1" d="M1368.94,541.29l-370.29,95.3-3.34.87C971,649,947,659,918.92,657.17c-2,.45-3.64.88-5.1,1.25l-6.74,1.74"/><path class="cls-1" d="M1323.67,515.08s-230.12,61.07-351.86,92.32l-3,.76C957,609,956,622,954,631c-1,3-5,5-8,5-18,1-32-13-49.75-9.88l-3.13.72a142.64,142.64,0,0,1-18.89,2.42"/><path class="cls-1" d="M1325.47,518.19s-226,59.85-348.13,91.14l-3,.77C959,611,962,629,952,635c-17,10-34-10-53-6.32-1.07.23-2.11.47-3.12.7C890,630,883,632,876.84,632.65"/><line class="cls-1" x1="559.33" y1="830.69" x2="1089.24" y2="1281.71"/><line class="cls-1" x1="551.75" y1="838.78" x2="1094.57" y2="1301.11"/></svg>