<svg id="Layer_1" data-name="Layer 1" xmlns="http://www.w3.org/2000/svg" viewBox="0 0 233.99 284.38"><title>logo</title><path d="M77.73,234.63l3.15,1.63-5.53,20.06,13-16.22,3.07,1.58-18,21.8L70.43,262Z"/><path d="M98.66,243.61l3.56.82-.53,28.22-3.49-.8.34-7.06-5.38-1.23-2.83,6.49-3.46-.79Zm0,18.38.57-12.65-5,11.64Z"/><path d="M112,245.74l3.79-.1.67,24.85,6.93-.18.08,2.76-10.72.29Z"/><path d="M134.55,269.33a9.83,9.83,0,0,1-3.51-5.14l3-1.79a10.74,10.74,0,0,0,2.14,3.86,2.94,2.94,0,0,0,3.17.81,2.86,2.86,0,0,0,1.92-1.4,3.46,3.46,0,0,0,.07-2.52,5.21,5.21,0,0,0-1.44-2.54,12.3,12.3,0,0,0-2.83-1.79l-5.49-2.71a7.69,7.69,0,0,1-2.63-2,8.32,8.32,0,0,1-1.53-3.16,6.27,6.27,0,0,1,.37-5,7.5,7.5,0,0,1,9.18-2.5,8.86,8.86,0,0,1,3.35,4.66l-2.85,1.72a8.92,8.92,0,0,0-1.9-3.35,2.83,2.83,0,0,0-3-.54,2.7,2.7,0,0,0-2,3.73,4.68,4.68,0,0,0,.95,1.88,5.47,5.47,0,0,0,1.77,1.25l5.53,2.71a14,14,0,0,1,3.66,2.58,8.62,8.62,0,0,1,2.17,3.83,6.76,6.76,0,0,1-10.08,7.42Z"/><path d="M142.63,239.63l5.08-3q3.78-2.22,6.39-1.38t4.81,4.57l5.15,8.77q2.31,3.93,1.9,6.77t-4,4.94l-5.35,3.14Zm17.71,18.44a4.28,4.28,0,0,0,2.07-2.12,3.52,3.52,0,0,0-.13-2.4,28.13,28.13,0,0,0-1.88-3.63l-4.54-7.73a17.47,17.47,0,0,0-2.07-3,2.89,2.89,0,0,0-2-1,5.24,5.24,0,0,0-2.73.91l-1.76,1,11.15,19Z"/><path d="M158.59,217.81l2.58-2.49,2,7.46-1.3,1.26ZM177.36,247q-2.84-.47-5.87-3.6l-7.27-7.54q-3-3.09-3.27-5.9c-.2-1.87.66-3.71,2.55-5.54s3.78-2.61,5.64-2.34,3.78,1.44,5.75,3.48l7.3,7.56a10.88,10.88,0,0,1,3.34,6q.36,2.88-2.46,5.6T177.36,247Zm4.77-7.38a7.85,7.85,0,0,0-2.12-3.26l-8.41-8.71a7.43,7.43,0,0,0-3.12-2.18,3.05,3.05,0,0,0-2.89,1.11,3.09,3.09,0,0,0-1.23,2.87,7.29,7.29,0,0,0,2.06,3.2l8.41,8.71a7.67,7.67,0,0,0,3.18,2.24,3.06,3.06,0,0,0,3-1.09A3,3,0,0,0,182.13,239.6Z"/><path d="M176.55,214.15l-2.65,3.74-2.34-1.65L179,205.77l2.34,1.65-2.57,3.64L199,225.37l-2.19,3.09Z"/><path d="M185.33,200l-2.06,4.1-2.57-1.28,5.76-11.46,2.56,1.28-2,4,22.13,11.12-1.7,3.38Z"/><path d="M188.4,186.17l1.27-3.5,26,9.41-1.26,3.49Z"/><path d="M191.92,176l1.2-5.33q.91-4,3-5.52c1.41-1,3.37-1.21,5.9-.64q5.19,1.17,5.55,4.68l14.36-.71-.8,3.56-13.43.61-.64,2.88,12.64,2.85-.83,3.69Zm12.77-2.48a5.07,5.07,0,0,0-.2-3.63c-.49-.84-1.58-1.44-3.26-1.82a7.76,7.76,0,0,0-2.7-.23,2.58,2.58,0,0,0-1.68,1,6.08,6.08,0,0,0-1,2.48l-.37,1.63,8.92,2Z"/><polygon points="34.96 91.7 84.77 209.74 129.16 96.12 153.53 173.16 176.23 173.09 130.7 36.45 85.22 151.98 61.49 90.61 34.96 91.7"/><circle cx="126.37" cy="175.57" r="11.13"/></svg>