<svg xmlns="http://www.w3.org/2000/svg" xmlns:xlink="http://www.w3.org/1999/xlink" viewBox="0 0 351.07 342.69"><defs><style>.cls-1{fill:none;stroke:#707070;stroke-miterlimit:10;}.cls-2{clip-path:url(#clip-path);}.cls-3{fill:#271033;opacity:0.5;}</style><clipPath id="clip-path"><rect class="cls-1" y="-0.39" width="354.07" height="343.47"/></clipPath></defs><title>prufa4</title><g id="artboard1"><g class="cls-2"><path class="cls-1" d="M243.09,635.53l-.36-10.9c0-.64-9.13-166.65-20.68-377.22q-.47-8.31-.92-16.71C223,195.56,206,164.56,175,146.56c-10-6-10-18-7-29,17-88,42-169,32.78-257-.33-5.89-.65-11.74-1-17.66-13.68-249.19-25.34-461.77-25.37-462.64"/><path class="cls-1" d="M235.06,636.11s-9.6-175-21.61-394.36c-.31-5.63-.66-11.25-1.19-16.72C212,195.56,195,172.56,169,159.56c-10-6-13-18-11-29,20-89,47-172,35-261.2q-.48-8.84-1-17.61c-13.73-251.07-25.48-466.35-25.6-470.62"/><path class="cls-1" d="M238.66,628.14l-.26-8.76c0-.69-9.13-166.76-20.68-377.4q-.45-8.31-.94-16.69C218,190.56,197,167.56,168,148.56c-9-6-6-17-4-27,19-92,45-176,32.46-266.77q-.48-8.74-.95-17.45c-13.65-249.28-25.28-462-25.25-462.95"/><path class="cls-1" d="M254.58,594.53s-9.29-163.56-21-370.4q-.48-8.38-1-16.86C236,169.56,207,149.56,183,124.56c-5-5-5-14-4-22,20-98,45-188,31.46-285.44q-.5-8.69-1-17.3c-12.66-223.87-23.1-409.14-23.29-415"/><path class="cls-1" d="M230.75,635.64s-9.11-166.13-20.69-377.47q-.45-8.34-.92-16.78c3.9-38.83-22.1-63.83-53.1-86.83-2-1-3-5-2-8,16-95,49-182,34.71-277.45q-.48-8.81-1-17.56c-13.73-250.95-25.48-466.08-25.61-470.16"/><path class="cls-1" d="M216.65,555.33s-7.3-126.77-17.09-297c-.29-5.16-.62-10.35-1-15.51C198,214.56,182,190.56,157,178.56c-12-6-18-18-15-32,20-76,46-149,38.05-227q-.51-8.75-1-17.45c-15.36-267.26-29.61-515.84-29.75-520"/><path class="cls-1" d="M208.35,594.12s-7.81-136.88-18.17-319c-.31-5.36-.61-10.75-.93-16.18C192,221.56,162,199.56,135,177.56c-6-4-6-12-4-18,20-72,46-141,40.28-216q-.47-9.08-1-18-1.52-26.94-3-53.62-.51-8.88-1-17.72c-1.26-28.67-2.26-57.67-4.9-86.79q-.48-8.48-1-16.88c-11.37-201.7-20.38-363.39-20.77-376.27"/><path class="cls-1" d="M213.24,594.21S205.43,457.6,195.08,276q-.45-8-.91-16.14C195,227.56,180,196.56,149,181.56c-7-3-15-11-13-20,14-74,44-141,40.06-216-.18-6.26-.49-12.28-.83-18.25-1.35-23.87-2.7-47.62-4-71.1q-.5-8.81-1-17.56c-1.21-23.1-2.21-46.1-3.9-68.92q-.48-8.46-.95-16.84c-11.35-201-20.34-361.77-20.7-373.75"/><path class="cls-1" d="M267.75,596.6S258,424.34,245.8,210.07q-.48-8.46-1-17C248,156.56,221,134.56,197,110.56c-11-12-6-30-2-46,19-82,37-161,28.72-243.12-.34-5.9-.67-11.74-1-17.74-12.64-223.14-23.05-407.5-23.2-412.28"/><path class="cls-1" d="M260.25,632.28s-10.61-187.69-23.52-417.09c-.32-5.59-.63-11.21-1-16.74C238,162.56,210,144.56,188,121.56c-7-7-7-19-4-30,20-94,43-182,30.25-276-.32-5.61-.63-11.21-.94-16.77-12.15-217.08-22-394.57-22.36-406.85-.09-3-.18-6-.26-9.18"/><path class="cls-1" d="M264.36,629.14s-10.61-188-23.54-417.93c-.32-5.6-.64-11.24-1-16.81C243,157.56,212,139.56,191,114.56c-6-6-5-17-3-26,20-95,43-184,30.3-278.09q-.47-8.44-.94-16.82c-12.16-217.79-22-396.14-22.43-409.34"/><path class="cls-1" d="M280.57,587.17s-10.29-180.74-22.85-401.51c-.32-5.66-.65-11.34-1-17C257,133.56,229,114.56,208,90.56c-7-8-5-19-3-30,17-84,40-161,31.71-243.52-.34-5.94-.67-11.79-1-17.95-12.58-221.16-22.91-403-23-404.8"/><path class="cls-1" d="M272.93,623.08s-10.59-187.16-23.47-415.65q-.48-8.37-1-16.79C253,153.56,226,128.56,201,105.56c-8-7-8-19-5-29,19-91,41-176,31-266.95q-.47-8.37-.93-16.68C214-422.92,204.24-598.92,203.92-609.59"/><path class="cls-1" d="M277.24,620.13s-10.58-186.85-23.45-414.8q-.47-8.34-.95-16.76c2.2-34-14.8-64-43.8-84-15-10-11-28-7-44,19-86,39-166,29.4-251.94q-.47-8.35-.93-16.63c-12.09-215.11-21.85-390.21-22.15-399.88"/><path class="cls-1" d="M285,614.19S274.1,422.26,261,190.51q-.5-8.69-1-17.45c3-38.5-25-61.5-49-86.5-8-9-4-23-2-36,15-74,36-142,31.61-216.13-.24-6.56-.54-12.85-.87-19.82C227.07-411.22,216.56-599,216.29-607.61"/><path class="cls-1" d="M289.11,611.78s-11.42-201.37-24.94-440.36c-.33-5.83-.69-11.65-1.34-17.12C261,127.56,244,105.56,221,88.56c-14-9-10-26-7-41,13-73,35-141,30.76-213.62-.23-6.65-.51-13-.83-20.11C231.27-411.35,220.79-598.28,220.55-606"/><path class="cls-1" d="M246.21,629.36s-9.59-174.63-21.58-393.22q-.45-8.4-.93-16.89C225,187.56,208,161.56,180,144.56c-13-7-11-23-9-36,17-83,42-160,33.23-242.88-.3-6-.62-11.92-.94-18-13.69-249.85-25.39-463.52-25.46-465.9"/><path class="cls-1" d="M250.39,628.51S240.81,454,228.83,235.75q-.47-8.4-.93-16.88C227,199.56,227,178.56,213,164.56c-18-19-47-31-39-63,20-79,42-155,34.4-235.32-.28-6.1-.58-12.09-.89-18.3-13.68-249.35-25.36-462.38-25.4-464"/><path class="cls-1" d="M328.6,643.05S315.08,402.3,300,131.84c-.33-5.88-.66-11.77-1.11-17.52C299,83.56,285,56.56,264,32.56c-5-7-6-17-5-26,8-65,29-126,23.22-191.13-.34-6.21-.68-12.26-1.06-19.06C269-423.23,259.07-601.52,258.79-609.91"/><path class="cls-1" d="M319.65,642.63S307,416.35,292.47,156.46q-.48-8.67-1-17.38C293,103.56,279,70.56,253,44.56c-8-8-7-21-6-32,10-63,30-122,26.75-185.1-.18-6.74-.44-13.08-.75-20.53C261-411.21,251.16-590.28,250.73-604.85"/><path class="cls-1" d="M323.73,638.28S310.48,402.21,295.6,135.77c-.32-5.79-.66-11.58-1.16-17.18.6-31-15.4-56-35.4-80-10-10-7-25-5-38,10-60,27-116,23.92-175.82-.21-6.62-.48-12.89-.8-20.18-12.07-217.42-21.85-395.62-22.26-409.24"/><path class="cls-1" d="M340.49,652.85S326.35,400.5,310.77,121.18c-.34-6-.67-11.9-1-17.82C309,71.56,299,42.56,281,13.56c-6-10-5-22-4-34,8-53,19-105,16.78-158.42-.25-6.59-.54-12.89-.89-20.1-12.31-221.5-22.27-402.14-22.63-413.16"/><path class="cls-1" d="M316.55,651.87S303.6,421,288.85,157.05q-.5-8.79-1-17.64C289,103.56,271,74.56,247,48.56c-9-9-6-24-4-37,13-65,31-125,26.93-188.9-.26-6.52-.55-12.76-.89-19.88C256.8-417.7,246.88-597.09,246.57-606.7"/><path class="cls-1" d="M307.54,653.12S294.81,425.84,280.26,164.3c-.33-5.81-.65-11.64-1-17.43C281,110.56,259,84.56,235,59.56c-5-5-6-14-5-22,10-69,35-134,31.29-204.27-.1-6.95-.32-13.43-.61-21.06-12.15-220-22.05-401.33-22.57-418.29"/><path class="cls-1" d="M311.65,649.87S298.93,423,284.4,162.08q-.48-8.7-1-17.44C286,106.56,264,79.56,240,52.56c-7-8-5-19-3-30,11-65,31-125,28.46-190.47-.1-7-.32-13.43-.6-21.1-12.14-219.29-22-399.74-22.5-415.78"/><path class="cls-1" d="M303.54,649.31S291.18,429,276.86,173.2q-.48-8.72-1-17.5C276,123.56,265,93.56,237,73.56c-13-8-13-23-10-37,13-74,35-142,30-214.68-.28-6.33-.58-12.43-.92-19.23C243.9-416.93,234-595.2,233.75-603.56"/><path class="cls-1" d="M294.47,640S282.13,420.33,267.86,165.5c-.33-5.79-.72-11.52-1.4-16.93-.42-31-24.42-49-44.42-70-11-11-6-27-3-42,16-76,36-147,29.19-221.8-.34-5.94-.66-11.79-1-18-12.2-218.33-22-395-22.22-401.63"/><path class="cls-1" d="M298.71,640.89s-12.34-219.72-26.62-474.58c-.33-5.79-.65-11.6-1.16-17.22C270,118.56,251,95.56,228,75.56c-11-9-8-26-6-40,16-75,37-145,30.43-219.85-.34-6-.67-11.88-1-18.27-12.2-218.37-22-395.14-22.22-401.8"/><path class="cls-1" d="M354.07,667.42s-15.5-277.32-32-574.27c-.33-5.82-.65-11.65-1-17.39,1-32.2-16-58.2-24-89.2-3-15-1-28,1-43,8-48,11-95,7.78-143.45-.32-5.74-.63-11.4-1-17.37-11.78-213.11-21.15-384.51-21.63-399"/><path class="cls-1" d="M344,644.66s-13.87-247.81-29.21-523.6q-.48-8.81-1-17.64C314,70.56,305,39.56,288,10.56c-6-11-6-24-5-36,8-51,17-99,15-149.92-.21-6.7-.47-13-.8-20.4-12.14-219.87-22-401-22.52-417.87"/><path class="cls-1" d="M348.27,647.2S333.78,388.28,318,104.77c-.33-5.91-.65-11.82-1-17.72,1-33.49-19-60.49-25-92.49-8-35,4-67,8-101a554.24,554.24,0,0,0,2.19-68.44c-.2-6.71-.47-13.06-.8-20.42C289.27-415.92,279.37-598,278.84-615.79"/><path class="cls-1" d="M367.52,677.2S351.34,386.76,334.37,79.86q-.48-8.85-1-17.72C334,55.56,332,47.56,332,40.56c-3-28-16-54-16-82,0-53,7-105,2.94-158-.32-5.77-.63-11.48-1-17.41-11.87-216.3-21.36-391.48-22-410"/><path class="cls-1" d="M357.09,654.58s-15.19-272.14-31.4-565q-.48-8.62-1-17.22C325,38.56,307,9.56,303-23.44c-3-24,2-48,5-72,4-35,3-70,1.67-104.66-.31-5.67-.62-11.26-.94-17.13-11.59-211.21-20.85-382.65-21.43-401.91"/><path class="cls-1" d="M361.71,657.06S345.88,373.06,329.27,72c-.32-5.79-.65-11.55-1.12-17.08C327,25.56,311-.44,310-28.44c-2-58,10-116,4.14-173.9-.31-5.66-.61-11.26-.93-17.07-11.64-212.76-20.95-386-21.59-407.19"/><path class="cls-1" d="M369.8,662.58S353.94,377.67,337.28,75.17l-1-17.47C336,47.56,335,38.56,334,28.56c-4-23-13-45-13-68-2-54,7-108,1.08-161.83-.3-5.54-.61-11.06-.9-16.55-11.68-214.07-21-388.88-21.73-411.66"/><path class="cls-1" d="M374.08,665.12s-16.5-296.75-33.54-606.87c-.32-5.85-.64-11.71-1.07-17.4C339,13.56,329-11.44,327-38.44c-4-54,4-109-.73-163.41q-.45-8.34-.91-16.62c-11.71-215.13-21.1-391.17-21.83-415.21"/><path class="cls-1" d="M330.8,635.39s-13.25-236-28.11-502.37c-.33-5.79-.65-11.59-1-17.37C303,80.56,287,52.56,267,24.56c-4-6-4-13-4-20,7-62,26-121,22.07-182.79-.24-6.51-.52-12.71-.86-19.84C272.2-415.41,262.43-593.5,262-607"/><path class="cls-1" d="M334.86,635.05s-13.25-236.17-28.14-502.8q-.5-8.69-1-17.43C305,82.56,297,52.56,277,26.56c-9-11-8-25-7-38,8-57,22-111,19.1-168.08-.26-6.46-.55-12.64-.89-19.7-12.08-217.64-21.88-396.08-22.31-410"/><path class="cls-1" d="M157.72-630.36,186.83-114.5q.51,9,1,18.06c8.2,81-18.8,155-36.8,236a24.31,24.31,0,0,0,13,28c29,14,43,43,42.84,73.37.32,5.51.63,11,.93,16.44L226.17,582.7"/><path class="cls-1" d="M153.23-628.73,182.4-109.84l1,18.16C191-15.44,169,57.56,148,131.56c-3,11-7,26,3,33,28,21,55,46,51.45,83.12q.47,8.34.93,16.55l18.4,327.25"/><path class="cls-1" d="M76,644.65l-.35-10.9c0-.55-6.74-122.95-16-290.78-.24-4.54-.53-9.09-1-13.6C54,293.56,15,287.56-11,268.56c-8-5-13-15-7-23,26-40,61-73,64-120,4-64,14-127,17-191,1-32,4-65-10-95-19-39-31-82-25-126q3-9.37,5.48-18.74C45-348.9,46.54-392.44,22-434.44c-6-10-5-21-6.72-32q-.66-12-1.28-23.14C10-564,7.44-610.19,7.42-610.6"/><path class="cls-1" d="M68,645.23S61.29,522.79,52.06,354.4q-.37-6.82-.76-13.75A53.47,53.47,0,0,0,39,307.56c-19-23-72-25-63-56,11-39,55-65,59-108,9-110,50-226-4-332-13-26-13-57-12.76-85.5A112.73,112.73,0,0,1,20.48-289C24.7-309,33.37-328.1,38-349.44c7-35-15-62-27-92A84.92,84.92,0,0,1,7.52-461q-.73-12.12-1.33-23.49C2.07-560.13-.5-607.76-.56-609.75"/><path class="cls-1" d="M71.61,637.26l-.27-8.76c0-.57-6.37-116.51-15.19-277.42-.25-4.47-.49-9-.8-13.48-.31-40-43.31-48-71.31-68-6-5-10-12-7-19,17-35,53-60,58-99,15-116,51-238-2-350-13-27-13-60-8.65-91.28,1.21-5.91,2.83-11.75,4.59-17.57C36-330.55,45.37-353.44,40-379.44c-7-33-30-59-29-92.74q-.64-12-1.26-23.16C5.74-569.78,3.23-616,3.25-616.49"/><path class="cls-1" d="M87.53,603.65s-6.4-112.56-15.28-269c-.26-4.61-.58-9.21-1.16-13.72C65,285.56,27,282.56,1,264.56c-10-7-10-18-4-28,26-38,57-71,61-116,4-59,8-116,11-175,3-38,9-78-6-113-17-40-28-81-24-124.11.7-5.46,1.66-10.87,2.73-16.25C46-329.32,52-350.44,50-372.44c-4-35-25-66-23.57-102q-.66-11.76-1.27-22.65c-3.67-65.29-5.94-106.21-6-108.9"/><path class="cls-1" d="M63.7,644.76S57,522.35,47.76,354c-.25-4.54-.5-9.13-.87-13.7C47,321.56,35,307.56,20,297.56c-20-13-58-22-49-46,14-39,58-67,61-111,9-110,50-224-7-331-13-25-11-55-10.65-84.48a112.17,112.17,0,0,1,3-15.88C22.7-311.66,32.7-331.44,36-353.44c2-13,0-26-4-38-9-24-27-44-28.84-69.55-.48-8.07-.91-15.91-1.32-23.47-4.12-75.58-6.7-123.13-6.76-125"/><path class="cls-1" d="M49.59,564.45s-4.83-84-11.92-207.12c-.24-4.25-.49-8.54-.78-12.86C36,330.56,29,317.56,18,307.56c-21-18-72-30-57-59,19-35,56-61,62-103,5-37,11-72,15-109,7-51,22-105-1-152-23-46-33-93-34.74-142.67a79,79,0,0,1-.35-17A33.59,33.59,0,0,1,7-290.44c32-54,25-105-12-154-3-3-4-9-4.27-15.31q-.73-12.13-1.37-23.5c-4.32-75.66-7-123.68-7.11-125.5"/><path class="cls-1" d="M41.29,603.24S35.48,501.36,27.23,356.46a121.56,121.56,0,0,0-1.31-13.1C21,311.56-13,300.56-36,281.56c-11-10-24-29-13-40,24-22,51-42,57-75,17-88,54-176,21-257A500.57,500.57,0,0,1-7.55-257c-.21-4.21-.31-8.56-.11-12.86A64.33,64.33,0,0,1-6-282.44c10-34,40-64,27-101-8-25-32-42-38.81-67.75-1.15-8.46-1.61-16.77-2.06-24.8-4.46-80.36-7.34-133.45-7.55-140.6"/><path class="cls-1" d="M46.18,603.33S40.54,504.7,32.5,363.63q-.37-6.61-.76-13.35C33,311.56-8,299.56-34,278.56c-10-8-20-22-12-32,28-32,61-60,65-104,9-80,43-161,16-238-18-52-38-103-37.64-159.23-.31-5.48-.53-11-.39-16.48,3-29.29,22-51.29,29-80.29,7-32-14-55-31-80-3-5-6-11-7.18-16.64a170.55,170.55,0,0,1-2.7-24.51c-4.45-79.89-7.31-132.49-7.51-139.14"/><path class="cls-1" d="M100.7,605.72S94.31,493.33,85.44,337.19q-.39-6.9-.79-13.89C86,283.56,42,275.56,14,258.56c-8-5-9-14-6-22,21-40,58-72,59-117,3-112,34-228-8-336-9-25-10-53-7.32-80.1Q52.26-303,53-309.48c1.51-13,3.51-26,5-39,1-8,0-16,0-24-3-33-19-64-18.3-97q-.66-11.68-1.27-22.51c-3.65-64.87-5.91-105.32-6-107.53"/><path class="cls-1" d="M93.19,641.4s-7.12-126-16.79-297.69q-.39-7-.79-14C75,314.56,70,300.56,58,290.56c-19-17-69-18-58-48,16-45,60-79,62-128,2-68,9-135,12-202,1-26,2-54-7-79-15-40-29-81-24.35-125.23.62-6,1.52-11.89,2.53-17.77,4-23.55,9.82-46.66,5.82-72-5-30-19-55-20-85.24q-.63-11.43-1.22-22.06C26.3-552.44,24.11-593.3,23.94-599c-.09-3-.18-6-.27-9.18"/><path class="cls-1" d="M97.31,638.26S90.18,512.06,80.49,340q-.39-7-.79-14.05C79,311.56,74,298.56,64,289.56c-20-18-80-21-56-59,24-39,57-74,57-120-1-98,32-197,0-292-12-37-21-75-18.15-113.11.55-5.2,1.3-10.37,2.14-15.54,3.34-20.68,8-41.35,6-63.35-4-34-21-65-20-99.48q-.63-11.5-1.21-22.2c-3.52-64.09-5.72-105.36-5.91-111.45"/><path class="cls-1" d="M113.52,596.29S107.14,484.34,98.3,329q-.39-6.86-.79-13.82C100,279.56,61,268.56,34,257.56c-13-6-17-19-10-32,23-39,55-74,57-119,4-80,7-159,8-239,0-37-15-69-22-106-3-20-4-39-2.33-57.74q.35-10.74.56-21.39c.83-42.68-.48-84.87-10.23-129.87-2-8-3-15-2.22-23.32q-.65-11.49-1.25-22.12c-3.62-63.7-5.83-102.88-5.86-103.71"/><path class="cls-1" d="M105.88,632.2S98.77,506.56,89.11,335.49q-.39-6.93-.79-14c3.72-45-50.28-45-75.28-69-3-3-3-9-2-13,18-43,58-76,61-123,6-80,9-160,11-240,1-41-19-77-25-118a243.3,243.3,0,0,1-2.77-55.07c.45-5.86,1.1-11.71,1.81-17.55,2.85-23.38,6.62-46.71,2-71.38-6-29-15-56-15.18-85.1q-.61-11.32-1.2-21.84c-3.48-63-5.65-103.16-5.8-108.09"/><path class="cls-1" d="M110.18,629.25s-7.1-125.43-16.74-296.13q-.39-6.92-.79-13.94C94,277.56,49,272.56,20,253.56c-7-5-7-15-3-22,24-44,62-83,62-134-1-75,7-149,7-223-1-14-1-27-5-41-10-45-28-86-19.87-132.41.55-6.44.91-12.86,1.13-19.26,1.75-51.2-6.22-101.1-14-152.18q-.63-11.26-1.2-21.7c-3.47-62.62-5.62-102.32-5.76-106.78"/><path class="cls-1" d="M117.92,623.31s-7-123.85-16.57-292.7q-.39-6.84-.78-13.79C103,275.56,60,267.56,31,251.56c-9-5-9-17-5-25,22-42,57-79,60-128,3-55-1-110,4-165,2-28,3-56-1-84-5-49-26-94-22.06-142.86.11-5.28.32-10.56.58-15.83,1-21.08,2.81-42,1.48-63.31-2-30-12-60-12.4-90.46q-.66-11.94-1.28-23c-3.7-66.42-6-108.57-6.12-112.56"/><path class="cls-1" d="M122.06,620.9s-7-123.68-16.56-292.22q-.39-6.82-.78-13.76C107,272.56,63,266.56,34,248.56c-7-5-8-15-4-23,21-41,56-77,58-123,4-78,5-156,6-234,0-10-1-19-2-29-8-46-25-90-20-135.81.19-6.14.29-12.3.31-18.44.15-49.19-5-98.18-11.54-147.94q-.66-11.88-1.28-22.9c-3.68-66.05-6-107.8-6.08-111.37"/><path class="cls-1" d="M79.15,638.48s-6.7-122.16-15.91-290q-.37-6.79-.76-13.71C64,294.56,19,287.56-8,267.56c-6-5-12-12-8-19,20-40,60-71,63-117,6-97,37-194,8-289-13-42-29-84-25-129,1-5.33,2.19-10.55,3.46-15.7,6.37-25.77,14.7-49.8,10.54-77.3-6-30-24-54-25.25-83.52q-.69-12-1.3-23.27c-4.09-74.91-6.64-121.72-6.67-122.83"/><path class="cls-1" d="M83.34,637.63s-6.71-122-15.91-289.7q-.37-6.8-.75-13.69C68,294.56,26,283.56-3,266.56c-7-4-12-12-8-20,21-42,61-75,64-123,3-67,12-132,15-199,2-43-3-86-23-126-13-28-14-62-8.93-93.71,1-5.82,2.2-11.58,3.48-17.32,5.11-23,11.11-45.63,6.45-71-6-28-21-51-23-78.48-.48-8-.91-15.71-1.32-23.17-4.08-74.6-6.62-121.09-6.64-121.83"/><path class="cls-1" d="M161.54,652.17s-8.45-150.64-19.48-347.48q-.41-7.2-.81-14.48C142,273.56,135,256.56,120,247.56c-22-13-62-20-45-53,28-52,56-107,51.35-166.75-.14-5.52-.43-10.82-.73-16.12s-.59-10.59-.89-15.89C121-62.44,125-120.44,119-178.44c-4-38-10-76-10.36-114q-.44-7.85-.86-15.56c-2.78-42.42-3.78-85.42-7.06-127q-.35-6.3-.69-12.43c-5-89.78-8.18-148.57-8.33-153.31"/><path class="cls-1" d="M152.59,651.75s-8.29-147.95-19.13-342q-.39-7.1-.8-14.28C135,255.56,92,249.56,65,228.56c-10-8-3-22,3-32,28-50,55-102,50.06-160.23-.19-5.4-.48-10.65-.77-15.9s-.58-10.48-.86-15.79C114-48.44,118-101.44,113-155.44c-3-47-12-94-13.3-141.47q-.51-8.71-.94-17.42c-2.06-40.62-3.26-81-6.71-122.25q-.7-12.29-1.32-23.87c-4.19-77.08-6.88-127.81-7.1-135.28"/><path class="cls-1" d="M156.67,647.4s-8.52-151.91-19.58-349.54c-.27-4.82-.55-9.66-1-14.41-1-13.89-9-24.89-21-32.89-18-12-57-17-46-38,85-158,42-333,35.59-497.58-.25-4.63-.51-9.26-.76-13.86q-.42-7.67-.83-15.22c-1-41.34-4-82.34-6.83-123.8q-.66-12.25-1.3-23.77c-4.18-76.64-6.86-126.9-7.07-133.89"/><path class="cls-1" d="M173.44,662S164.5,502.44,153,296.67q-.41-7.19-.81-14.43C154,249.56,124,232.56,97,221.56a21.28,21.28,0,0,1-10-28c26-60,55-120,49.77-187q-.44-7.84-.87-15.66l-.87-15.64-.87-15.62C133-120.44,127-199.44,120.92-279.07c-.25-4.6-.51-9.2-.76-13.77q-.76-13.71-1.5-27-.42-7.67-.84-15.2C116-363.44,115-392.44,113.13-420q-.36-6.57-.72-13C107-531,103.46-596.5,103.25-603"/><path class="cls-1" d="M149.49,661S141,510.06,130,312.71q-.41-7.21-.82-14.52C129,281.56,122,264.56,107,255.56c-18-11-56-14-48-39,16-54,58-98,55-156-3-76,2-151-5-227-3-40-13-80-12.5-120.08-.28-5.2-.57-10.41-.86-15.59C94-349.44,92-395.44,87.92-442.36q-.69-12.28-1.33-23.84c-4.23-76.87-6.92-126.45-7.08-131.38"/><path class="cls-1" d="M140.48,662.24s-8.32-148.61-19.2-343.77q-.39-7.14-.8-14.36C125,261.56,75,258.56,51,236.56c-10-9-2-23,4-34,22-39,48-76,50-121,3-59-3-117,1-176,3-51-8-99-16-150-2-16-1-32-2.66-48.22q.12-10.45,0-20.88c-.58-48.64-4.92-96.73-9-144.59q-.63-11.73-1.22-22.65c-3.54-65.49-5.78-108.33-6-116.16"/><path class="cls-1" d="M144.59,659s-8.31-148.35-19.18-343.08q-.39-7.12-.8-14.33c1.43-39-38.57-49-66.57-64-7-5-8-14-5-21,17-46,55-85,55-137,1-84,4-167-3-251-4-41-14-81-13.47-122q-.1-10.31-.4-20.61c-1.36-48.08-5.57-96.18-8.63-144.12-.42-7.77-.83-15.29-1.22-22.52-3.52-65.1-5.75-107.53-6-114.93"/><path class="cls-1" d="M136.49,658.43s-8.22-146.43-19-339.18q-.39-7-.79-14.19C119,265.56,76,259.56,48,241.56c-11-8-6-21-1-30,25-45,57-88,55-140-1-54-2-108,1-163,3-49-6-96-15-145-3-17-4-33-4.41-49.81.15-6,.2-12,.19-18-.16-54-6.22-107.16-10.1-160.65q-.63-11.44-1.22-22.06c-3.51-63.6-5.68-103.65-5.81-107.51"/><path class="cls-1" d="M127.42,649.14s-7.81-139-18.19-324.14q-.39-6.93-.78-14C112,266.56,60,265.56,35,242.56c-3-3-3-9-2-13,22-54,68-99,62-162-6-67,2-133,2-199,0-38-13-73-18-110-3-17-4-33-4.25-50.14-.12-4.79-.12-9.58,0-14.35.42-23.87,2.78-47.34.28-71.51-3-31-10-60-10.17-91.34q-.63-11.33-1.21-21.81C60.18-553.48,58-592.76,58-595.8"/><path class="cls-1" d="M131.65,650s-7.81-139-18.19-324.18q-.39-6.94-.78-14C117,267.56,70,262.56,42,241.56c-9-6-5-18,0-26,20-39,50-73,54-117,5-75,2-149,3-224a205,205,0,0,0-3-49c-8-40-17-77-17-116.41.4-5.94.67-11.9.81-17.84,1.29-53.54-7.17-106.61-10.72-159.43q-.63-11.33-1.2-21.82c-3.48-62.92-5.63-102.23-5.72-105.3"/><path class="cls-1" d="M187,676.54s-9.54-170.6-21.62-387.45c-.3-5.42-.6-10.87-1-16.33-.41-16.2-6.41-32.2-19.41-43.2-20-15-56-25-41-56,29-61,49-126,44.16-194q-.49-8.74-1-17.48t-1-17.43q-.48-8.7-1-17.4c-2.26-66.69-6.26-132.69-11-199.53q-.44-7.8-.86-15.52c-9.63-174.82-16.81-306.7-17.23-319.3"/><path class="cls-1" d="M176.93,653.78s-8.8-157-20.12-360.19q-.41-7.43-.83-14.94C157,242.56,122,230.56,97,212.56c-10-6-8-19-4-28,26-56,50-114,47.77-175.64-.15-5.61-.44-11-.74-16.47q-.9-16.24-1.8-32.45c-.3-5.4-.6-10.8-.88-16.26-1.35-73.18-6.35-145.18-12-217-.26-4.81-.53-9.62-.79-14.4Q123.8-302,123-316q-.42-7.63-.83-15.15C122-359.44,118-388.44,117.56-416q-.36-6.6-.71-13c-5.36-98.47-8.91-165.55-9.21-175.48"/><path class="cls-1" d="M181.21,656.32s-9-161.26-20.56-368.6c-.27-4.82-.54-9.67-.85-14.52C159,239.56,128,226.56,102,210.56c-11-8-7-22-3-33,27-58,49-118,45.36-181.68-.25-5.31-.54-10.55-.83-15.79l-.87-15.71-.87-15.67C138-126.44,136-201.44,129.41-276.5q-.39-7-.77-13.95-1.14-20.81-2.23-40.76-.42-7.55-.82-15C123-365.44,125-384.44,122.48-403q-.36-6.79-.73-13.43c-5.76-106.07-9.64-179.23-10-190.19"/><path class="cls-1" d="M200.46,686.32S190.4,505.76,177.83,278.94c-.31-5.53-.61-11.09-1-16.65.2-31.73-24.8-51.73-50.8-65.73-10-6-11-17-8-26,21-67,48-135,42.37-205.64-.27-6-.6-11.89-.92-17.76q-1-17.62-1.94-35.12l-1-17.46c-2.55-50-5.55-101-8.32-151.46q-.44-8-.88-16C137.24-458.31,129.54-601.1,129-617.7"/><path class="cls-1" d="M190,663.7s-9.35-167.41-21.2-380.92c-.3-5.34-.6-10.71-1.13-16C167,230.56,132,218.56,109,197.56c-5-3-4-11-2-16,23-66,50-133,44.87-203.94-.29-5.81-.61-11.57-.93-17.32s-.63-11.49-.95-17.22-.63-11.46-.94-17.17C147-140.44,142-205.44,138.23-271.72q-.43-7.77-.85-15.43c-9.49-173.63-16.59-306.08-17.1-322.87"/><path class="cls-1" d="M194.66,666.18s-9.37-168-21.25-382.64c-.3-5.36-.6-10.76-.92-16.17C175,229.56,138,215.56,115,193.56c-9-9-3-23,2-34,23-58,42-120,39.34-182.74-.26-5.94-.56-11.77-.88-17.55q-1-17.35-1.91-34.61-.47-8.62-.94-17.24c-2.61-54.86-6.61-110.86-9.1-166.08q-.44-7.89-.86-15.73c-9.95-182.6-17.51-324.1-18.08-343.09"/><path class="cls-1" d="M202.74,671.7s-9.38-168.59-21.29-384.08q-.45-8.08-.9-16.25C183,235.56,159,209.56,129,191.56c-17-10-7-32-2-47,22-59,40-120,36.37-182.57-.24-6-.56-11.79-.87-17.59q-1-17.4-1.91-34.68-.47-8.64-.94-17.23c-2.65-49.93-4.65-99.93-8.18-149.84q-.44-8-.86-15.85c-10-183.83-17.6-326.72-18.21-347.16"/><path class="cls-1" d="M207,674.24s-9.88-177.59-22.24-401.57c-.3-5.46-.61-10.95-1-16.42C184,220.56,153,203.56,128,182.56a9.59,9.59,0,0,1-2-9c16-79,49-150,40.71-229.11q-.48-8.75-1-17.45-.94-17.41-1.9-34.69-.46-8.64-.94-17.23c-1.91-38.52-4.91-78.52-6.39-117.22q-.44-8.09-.87-16.11c-10.45-192.41-18.5-344.12-19.17-366.31"/><path class="cls-1" d="M163.74,644.51s-8.52-151.87-19.57-349.44c-.27-4.82-.54-9.67-.94-14.47-1.19-19-14.19-33-30.19-41s-45-15-37-36c24-61,59-119,52.63-186.17q-.43-8-.88-15.89c-.3-5.3-.59-10.59-.89-15.9-.86-91-7.86-182-15.16-273.18q-.39-7-.77-13.88-.42-7.67-.84-15.2c-2.09-40.78-4.09-82.78-6.81-123.75q-.67-12.25-1.3-23.75c-4.18-76.59-6.85-126.8-7-133.73"/><path class="cls-1" d="M167.81,644.17s-8.53-152-19.59-349.73c-.27-4.82-.55-9.67-.88-14.51C146,243.56,108,236.56,84,218.56c-3-3-6-7-4-11,19-64,60-121,52.63-191-.27-5.33-.57-10.64-.86-15.94s-.59-10.6-.89-15.9C129-106.44,122-197.44,115.72-288.87q-.39-7-.77-13.91-.42-7.67-.84-15.22C112-355.44,110-392.44,108-429.52q-.34-6.32-.69-12.46c-4.93-90.06-8.16-150.27-8.4-158.11"/><path class="cls-1" d="M-9.33-621.24l7.11,126.16,1.37,24.14C-3-437.44,23-414.44,32-384.44c10,35-11,66-20,100-1,7-2,15-1.15,21.55C8-211.44,34-168.44,46-118.44c22,94-3,183-21,278-7,34-33,59-57,84-5,7-4,17,2,24,26,27,78,34,75.25,79.25l.73,13,13.1,232.05"/><path class="cls-1" d="M-13.83-619.61l7.13,126.9,1.37,24.29c-.63,12,1.37,23,7.37,34,16,27,37,52,29,85C25.7-328.77,15.48-309.88,10-290a105.16,105.16,0,0,0-3.1,15.15C1-216.44,27-164.44,42-109.44c24,86-6,171-18,259-5,37-33,62-56,92-25,33,32,48,54,65,11,9,16,21,17.88,34.4.48,4.37.74,8.79,1,13.18L54.76,600.6"/><path class="cls-1" d="M-4.63,646.76s-6.26-111.58-15-268.15c-.25-4.47-.5-9-.86-13.51C-21,357.56-22,349.56-27,342.56c-29-40-89-89-46-137,8-9,26-3,32-15,29-62,60-140,40-208-46-17-45-70-47.08-111q-.43-7.81-.87-15.57c-2-36.23-4-71.68-5.9-105.8-.3-5.45-.6-10.86-.75-16.24C-53-302.44-18-320.44-4-351.44c5-12,2-26-6-36-19-23-50-34-55.86-65.45C-66.55-461-67-469-67.41-476.59c-4.21-76.32-6.88-125.31-7-129.61"/><path class="cls-1" d="M-13.57,646.34S-19.9,533.51-28.72,375.69c-.25-4.51-.54-9.06-1-13.61C-31,357.56-31,352.56-34,348.56c-27-44-81-90-49-145,9-15,33-8,39-21,26-56,58-127,37-188-43-13-49-58-48.4-97-.3-5.25-.59-10.51-.88-15.75-2.62-47.15-5.17-93.18-7.58-136.93a149.3,149.3,0,0,1-.2-16C-58-303.44-27-319.44-11-347.44c8-15,5-31-7-42-24-21-59-39-57.44-76.42q-.63-11.56-1.21-22.31c-3.49-64.48-5.69-106.24-5.89-113"/><path class="cls-1" d="M-9.5,642s-6.14-109.41-14.75-263.32c-.25-4.4-.5-8.83-.88-13.28C-26,356.56-27,347.56-33,339.56c-31-38-88-97-39-138,12-10,35-9,40-29,13-61,61-127,24-176-23-31-45-62-43.29-102.14-.31-5.12-.6-10.28-.89-15.42-2.29-41.18-4.52-81.49-6.67-120.15q-.45-8.1-.89-16.11C-64-293.44-32-314.44-12-341.44c8-11,12-25,5-37-20-32-69-45-64.3-88.64q-.61-11.49-1.21-22.18c-3.48-64.08-5.67-105.42-5.86-111.71"/><path class="cls-1" d="M7.27,656.56S.63,538-8.57,373.53c-.26-4.57-.52-9.17-.89-13.79C-13,329.56-41,313.56-59,291.56c-17-21-36-62-7-77,17-10,39-15,43-37,14-72,68-151,22-209-28-37-33-81-37.07-123q-.42-7.78-.86-15.5c-1.43-25.75-2.83-51-4.2-75.61-.3-5.5-.61-11-.9-16.4,0-32.46,26-52.46,42-78.46,7-12,10-26,5-38-13-29-50-41-56.65-72.51A237.09,237.09,0,0,1-55.77-475c-4.26-77.5-7-127.76-7.15-133.41"/><path class="cls-1" d="M-16.68,655.58s-6.27-111.79-15-268.75q-.38-6.72-.76-13.56C-32,363.56-34,354.56-39,346.56c-24-40-63-74-54-125,3-22,28-28,39-39,41-43,76-134,37-179-23-26-43-57-41.42-93.81-.31-5.26-.6-10.52-.9-15.77-2.63-47.28-5.21-93.52-7.66-137.58q-.45-8.21-.91-16.31C-71-300.44-27-319.44-11-352.44c6-13,1-26-9-36-21-19-48-31-56.8-59.28-1.88-8.24-2.39-16.2-2.82-23.89C-83.81-548.48-86.5-598.06-86.66-603"/><path class="cls-1" d="M20.85,671.13S13.73,543.74,4,369.19c-.26-4.72-.54-9.47-1-14.22-2-11.41-6-21.41-13-29.41-26-27-81-57-54-94,16-23,49-30,55-63,11-73,58-150,21-215-28-48-36-101-39.68-153.9q-.42-7.71-.85-15.36Q-29.33-231-30.16-246q-.45-8-.87-15.94C-32-295.44-3-317.44,9-347.44c15-35-21-59-41-83-6-8-9-18-9.9-28.47q-.66-11.91-1.26-23.08C-47.17-556.41-49.75-605.1-50-612.51"/><path class="cls-1" d="M10.76,648.37S4.24,532-4.8,370c-.25-4.5-.54-9-1-13.55C-7,346.56-10,337.56-16,330.56c-28-30-85-66-53-111,9-12,29-7,36-20,34-70,56-153,47-232-44-32-47-85-48.67-134.53q-.42-7.67-.84-15.27-1.68-30.42-3.3-59.81-.45-8.19-.9-16.3A56.67,56.67,0,0,1-34-290.44c14-26,41-46,41-76-1-31-34-43-50-68a84.5,84.5,0,0,1-5.47-12.67,139.74,139.74,0,0,1-2.89-24.2c-4.23-78.12-7-130-7.21-138.61"/><path class="cls-1" d="M15,650.91s-6.52-116.6-15.57-279c-.25-4.52-.5-9.06-.83-13.63C-2,349.56-4,340.56-10,332.56c-27-31-93-73-52-110,14-14,39-19,44-42,17-77,68-157,24-224-29-43-33-91-37.28-138.31q-.44-7.62-.85-15.19-1.24-22.71-2.46-44.82-.47-8.24-.9-16.36C-37-266.44-35-274.44-33-282.44c11-32,50-55,41-93-6-24-29-34-43-54-4-6-8-11-9.38-18.28-1.85-8.35-2.37-16.47-2.79-24.33-4.25-78.57-7-130.9-7.26-140"/><path class="cls-1" d="M34.29,680.9S26.75,545.54,16.57,362c-.26-4.59-.56-9.2-1.11-13.76C14,337.56,9,328.56,2,320.56c-24-23-89-56-53-87,25-21,49-44,54-75,11-80,57-163,17-235-30-52-33-113-37-169.64q-.45-8.14-.88-16.19C-18-297.44,12-321.44,19-356.44c1-8,1-15-2-23-11-31-46-49-45.87-83.54q-.66-12.19-1.28-23.65c-4.1-76.3-6.75-127-7.06-136.48"/><path class="cls-1" d="M23.87,658.29S17.26,539.94,8.11,375.35q-.39-6.86-.77-13.82c-.3-13-3.3-26-12.3-36-25-26-91-65-52-97,21-17,45-33,50-61,14-75,57-152,23-218-27-52-37-108-40.61-165.22q-.42-7.58-.83-15.08t-.82-14.94q-.44-8-.86-15.82c-.88-4.94.12-10.94,2.12-15.94,27-49,66-105,2-149-10-7-13-19-14.78-31.3q-.67-11.94-1.26-23.16c-4-74.76-6.59-124.66-6.89-134.54"/><path class="cls-1" d="M28.49,660.77S21.87,542,12.69,376.6q-.37-6.89-.77-13.89C15,320.56-29,306.56-52,279.56c-12-14-23-41-3-51,24-12,45-30,49-56,15-87,69-184,10-268-29-40-21-91-25-137.61q-.42-7.56-.83-15c-.29-5.35-.58-10.66-.81-16,.6-8.39,1.6-16.39,4.6-24.39,15-32,52-66,27-104-16-24-43-40-42.38-69.65q-.64-12.07-1.26-23.43c-4-75.67-6.64-126.52-7-137.37"/><path class="cls-1" d="M36.57,666.29S29.56,540.4,20,367.13q-.39-7-.8-14.14C18,313.56-24,302.56-47,277.56c-10-12-20-31-7-40,26-20,51-39,57-71,15-83,55-168,21-243-25-54-34-112-37.83-170.28q-.44-8.06-.85-16C-15-294.44,9-318.44,19-348.44c13-41-29-64-42-98-2-5-2-11-2.47-15.89q-.66-12.18-1.26-23.66c-4.06-76.43-6.69-128.1-7-139.78"/><path class="cls-1" d="M40.86,668.83s-7-126.22-16.63-300.06c-.26-4.69-.52-9.43-.78-14.19.59-42-45.41-53-69.41-80-8-10-15-25-6-34,25-22,52-42,58-76,16-85,55-173,20-251-22-51-33-106-35.65-161.11-.29-5.39-.58-10.77-.84-16.11C-10-270.44-11-278.44-7-284.44c26-47,46-101-1-144-7-6-11-14-12.15-23.63a122.13,122.13,0,0,1-1.18-12.38c-4.79-90-7.95-152-8.36-165.52"/><path class="cls-1" d="M-2.43,639.1S-8.57,529.72-17.18,375.85c-.24-4.4-.49-8.83-.82-13.29-2-10-4-21-11-29-31-33-86-89-40-127,10-8,29-5,34-18,24-64,52-131,40-201-3-16-24-17-34-31-16-25-14-53-16.07-80.25q-.45-7.68-.87-15.37c-2-35.82-3.94-70.89-5.81-104.71q-.45-8.08-.89-16.09C-54-273.44-49-286.44-41-298.44c18-27,59-55,33-89-17-21-44-32-53-58.37-2.15-8.18-2.77-16.1-3.19-23.76-4.18-76.59-6.84-126.8-7-133.73"/><path class="cls-1" d="M1.64,638.76S-4.51,529.3-13.13,375.3c-.24-4.4-.49-8.84-.81-13.3-2-11.44-5-22.44-13-31.44-26-28-58-57-56-98,1-18,17-27,34-30,14-2,21-16,24-29,15-67,67-145,21-199-29-33-35-75-37.93-114.7q-.44-7.68-.86-15.32c-1.69-30.55-3.36-60.5-5-89.52q-.45-8.11-.89-16.13A60.64,60.64,0,0,1-45-285.44c16-33,71-68,36-107-17-18-41-31-48.82-54.95a194.25,194.25,0,0,1-2.41-23.81c-4.19-76.77-6.88-127.17-7.1-134.3"/></g><rect class="cls-1" y="-0.39" width="354.07" height="343.47"/></g><g id="Layer_2" data-name="Layer 2"><rect class="cls-3" x="-1.5" y="-0.39" width="354.07" height="343.47"/></g></svg>