<svg id="artboard1" xmlns="http://www.w3.org/2000/svg" xmlns:xlink="http://www.w3.org/1999/xlink" viewBox="0 0 309 222.17"><defs><style>.cls-1,.cls-3{fill:none;}.cls-2{clip-path:url(#clip-path);}.cls-3{stroke:#939393;stroke-miterlimit:10;}</style><clipPath id="clip-path"><rect class="cls-1" width="309" height="222.17"/></clipPath></defs><title>prufa3</title><g class="cls-2"><path class="cls-3" d="M-338.71,455.51c2.39-.55,148-46.4,337.12-106,7.57-2.39,15.2-4.8,22.85-7.34,57.49-23.23,70.49-89.23,96.49-139.23,12-26,40-32,61-11,37,35,82,78,135.92,57.81l24.83-7.84C612.11,155.86,863.14,76.6,863.14,76.6"/><path class="cls-3" d="M-338.64,461.92c2.3-.53,149.62-46.57,341-106.44,7.65-2.4,15.38-4.82,23.09-7.42,23.33-8.14,38.33-25.14,51.33-45.14,23-37,28-80,58-112,12-12,29-5,40,5,42,35,90,83,147.6,59.38l25.14-7.87c275.87-86.39,529.94-166,529.94-166"/><path class="cls-3" d="M-338.64,458.59c2.35-.54,147.94-46.39,337-106,7.56-2.39,15.19-4.79,22.86-7.29,65.51-22.37,68.51-101.37,107.51-153.37,12-17,32-12,45-1,41,34,84,82,140.84,61.9L339.43,245C612,159,863,79.7,863,79.7"/><path class="cls-3" d="M-339,445.54c2.5-.58,148.22-46.45,337.41-106.1,7.57-2.38,15.2-4.81,22.79-7.54,51.59-23,66.59-82,89.59-129,10-19,28-47,53-30,41,29,72,77,125.1,73.18,9.21-1.27,17.58-3.82,25.88-6.44,282.08-89,548.6-173.16,548.6-173.16"/><path class="cls-3" d="M-338.58,466.14c2.26-.52,149.54-46.55,340.86-106.41,7.65-2.39,15.37-4.81,23.12-7.34,64.35-23.47,67.35-97.47,103.35-150.47,13-19,34-14,49-1,40,36,88,79,144.51,58.64l25.13-7.86c275.85-86.38,529.9-166,529.9-166"/><path class="cls-3" d="M-334.12,472.21c1.27-.3,147.7-46.13,338.32-105.83q11.45-3.58,23.06-7.28c64.49-23.18,67.49-98.18,103.49-150.18,10-14,27-16,41-6,46,34,91,84,151.19,63.31,8.67-2.43,17-5.05,25.36-7.66C623.48,172.35,877.17,92.83,877.17,92.83"/><path class="cls-3" d="M-334.21,468.59c1.3-.3,147.74-46.14,338.39-105.85,7.62-2.39,15.32-4.8,23-7.33,25.54-6.49,40.54-29.49,55.54-51.49,26-37,32-132,86-102,49,26,93,82,154.46,60.85q12.59-3.91,25.09-7.84C623.5,168.7,877.19,89.18,877.19,89.18"/><path class="cls-3" d="M-344.8,478.67c3.48-.8,151.85-47.07,344.06-107.14l23.27-7.27c69.22-19.34,71.22-101.34,111.22-151.34,30-37,66,20,96,38,28,18,59,27,90,19.63,9.11-2.14,17.58-4.73,26-7.36C622.42,176.61,877,96.9,877,96.9"/><path class="cls-3" d="M-349.42,487.44c4.36-1,153.52-47.47,346.4-107.7l23.34-7.29c59.43-14.53,79.43-75.53,98.43-126.53,8-23,30-52,56-31,49,39,106,83,169.64,56.25l25.15-7.87C637,179.66,876.72,104.62,876.72,104.62"/><path class="cls-3" d="M-344.61,482.1C-341.2,481.31-192.9,435.05-.74,375l23.27-7.28c66.22-18.79,76.22-92.79,106.22-146.79,11-20,34-22,50-8,46,42,105,82,166.87,53.74l25.08-7.85c266.78-83.48,506.11-158.44,506.11-158.44"/><path class="cls-3" d="M-338.95,434.19c2.56-.58,148.33-46.47,337.55-106.12,7.57-2.39,15.17-4.92,22.7-7.93,53.45-27.22,64.45-88.22,92.45-136.22,9-17,28-36,47-23,42,30,74,81,129,74.6,8.65-2,17-4.63,25.26-7.25C597.13,139.26,863.67,55.1,863.67,55.1"/><path class="cls-3" d="M-339.2,441.27c2.55-.59,148.31-46.47,337.53-106.13,7.57-2.38,15.19-4.84,22.76-7.66,58.66-26.56,66.66-94.56,99.66-146.56,8-13,22-24,37-15,45,27,75,82,131.71,76.81,8.66-2.16,17-4.77,25.27-7.39,282.11-89,548.65-173.17,548.65-173.17"/><path class="cls-3" d="M-336.69,437.05c2-.47,147.33-46.25,336.17-105.82,7.56-2.38,15.15-4.9,22.65-7.88,56.62-26.43,63.62-94.43,97.62-145.43,10-15,28-25,44-12,40,30,73,80,126.58,73.27,8.46-2.4,16.76-5,25.05-7.64,281.73-88.92,548.05-173,548.05-173"/><path class="cls-3" d="M-339.28,422.93c2.57-.59,137.12-42.92,315.37-99.1l22.5-7.1c36.16-8.81,60.16-37.81,77.16-69.81,18-34,26-75,60-98,10-7,22-2,30,5,36,31,71,81,124.43,70.86l24.94-7.87c282.2-89,548.78-173.2,548.78-173.2"/><path class="cls-3" d="M-339,430c2.49-.57,137-42.89,315.16-99.06l22.5-7.1c36.1-7.93,61.1-34.93,77.1-66.93,18-35,26-76,59-101,11-7,23-2,32,5,37,31,70,79,123.39,70.94,8.35-2.57,16.66-5.2,25-7.82C597.25,135,863.8,50.86,863.8,50.86"/><path class="cls-3" d="M-339.09,426.23c2.53-.59,137-42.91,315.27-99.09l22.49-7.09c48.08-9.13,71.08-55.13,90.08-95.13,14-30,34-97,75-67,40,28,73,80,126.48,70.16l24.94-7.85C597.34,131.2,863.91,47,863.91,47"/><path class="cls-3" d="M-339.24,419.41c2.61-.6,137.19-42.94,315.46-99.13l22.51-7.1c65-15.26,81-85.26,108-137.26,13-24,41-47,64-21,31,33,69,79,119.61,66.3l24.93-7.87c282.23-89,548.83-173.22,548.83-173.22"/><path class="cls-3" d="M-339.16,415.76c2.65-.62,137.26-43,315.56-99.16l22.51-7.1c63.84-17.58,79.84-87.58,109.84-139.58,10-17,28-41,50-26,42,29,75,88,131.82,73.6l24.94-7.86c282.26-89,548.87-173.23,548.87-173.23"/><path class="cls-3" d="M-339,452.17c2.42-.56,148.07-46.42,337.2-106.06,7.57-2.38,15.2-4.79,22.84-7.39,60.67-24.8,68.67-95.8,101.67-147.8,8-12,22-23,37-14,49,31,92,95,154.78,69.42l24.83-7.84C612,152.47,863,73.2,863,73.2"/><path class="cls-3" d="M-338.95,448.53c2.46-.57,148.15-46.44,337.31-106.08,7.56-2.39,15.2-4.8,22.81-7.48,56.58-23.05,67.58-90.05,95.58-139.05,9-15,24-33,42-22,44,25,75,77,129.78,74.87,9.4-1,17.86-3.51,26.15-6.13,282.06-89,548.56-173.15,548.56-173.15"/><path class="cls-3" d="M-345.4,384.54c4.09-.94,140-43.58,319.32-100l22.64-7.13c24.19-6.48,42.19-24.48,57.19-44.48,33-41,45-133,100-117,46,14,76,91,135.84,69.2l25-7.89C598,87.94,865.21,3.62,865.21,3.62"/><path class="cls-3" d="M-345.09,390.77c4-.93,139.77-43.56,319-100l22.63-7.12c64.16-20.75,76.16-92.75,114.16-143.75,11-14,27-34,45-22,44,30,75,95,133.78,73.47l25-7.89C597.84,94.21,865,9.9,865,9.9"/><path class="cls-3" d="M-345.22,387.37c4-.94,139.87-43.57,319.18-100l22.63-7.13c65.16-21.32,76.16-95.32,115.16-145.32,9-11,19-25,35-23,28,3,39,34,60,52,23,21,53,36,82.83,24l25-7.89C597.93,90.78,865.13,6.46,865.13,6.46"/><path class="cls-3" d="M-345.8,374.58c4.24-1,140.24-43.64,319.69-100.1q11.22-3.53,22.65-7.14c25.21-6.42,42.21-25.42,57.21-46.42,29-43,40-94,86-120,12-7,23,2,30,10,30,37,69,85,120,64.12l25-7.89C598.24,77.83,865.52-6.5,865.52-6.5"/><path class="cls-3" d="M-342.12,394.39c3.36-.77,138.59-43.26,317.41-99.57l22.57-7.11c60.89-19.79,75.89-85.79,107.89-136.79,12-18,30-43,52-28,42,30,74,92,132.45,72.66l25-7.88C598,98.54,864.89,14.29,864.89,14.29"/><path class="cls-3" d="M-339.32,400.71c2.75-.63,137.44-43,315.81-99.21L-1,294.4c58.74-17.48,74.74-82.48,104.74-131.48,11-19,29-50,53-34,43,29,76,94,134,73.48l24.95-7.86c282.33-89.07,549-173.25,549-173.25"/><path class="cls-3" d="M-341.85,397.66c3.32-.77,138.51-43.26,317.3-99.56L-2,291c66.73-19.07,76.73-94.07,114.73-146.07,12-17,34-33,52-16,34,34,72,88,125.56,70l25-7.88C598.06,101.83,865,17.59,865,17.59"/><path class="cls-3" d="M-339.25,404.89c2.7-.62,137.36-43,315.7-99.18L-1,298.62c63.78-18.7,76.78-88.7,109.78-140.7,12-18,33-40,54-22,37,32,72,88,127.93,70.71l24.94-7.87c282.3-89,548.94-173.23,548.94-173.23"/><path class="cls-3" d="M-339.43,411.86c2.68-.63,137.33-43,315.66-99.19l22.51-7.1c68-18.65,79-93.65,115-147.65,12-19,35-31,53-13,34,34,71,83,123.69,68.67l24.94-7.87C597.67,116.66,864.3,32.48,864.3,32.48"/><path class="cls-3" d="M-339.48,408.23c2.73-.64,137.41-43,315.77-99.22l22.52-7.09c60.94-16,76.94-82,104.94-132,12-21,35-52,61-30,36,33,72,86,125.8,70l24.94-7.87c282.32-89.06,549-173.24,549-173.24"/><path class="cls-3" d="M-342.46,362.75c3.64-.83,139.11-43.37,318.12-99.73,7.46-2.34,15-4.72,22.58-7.2,19.51-5.9,33.51-20.9,46.51-35.9,38-42,55-142,113-122,43,15,73,91,133.09,65.81l25-7.88c283-89.21,550-173.48,550-173.48"/><path class="cls-3" d="M-342.23,369.29c3.55-.82,138.94-43.35,317.89-99.7,7.45-2.35,15-4.72,22.58-7.18,19.51-5.49,33.51-18.49,46.51-34.49,30-40,44-87,80-122,13-13,33-15,45,0,29,38,69,88,121,64.38l25-7.88C598.68,73.22,865.65-11,865.65-11"/><path class="cls-3" d="M-342.33,365.68c3.59-.84,139-43.38,318-99.73,7.46-2.35,15-4.72,22.58-7.2,23.5-7.83,39.5-25.83,54.5-45.83,32-42,46-121,103-117,23,2,34,33,52,51,22,23,54,32,83.06,19.73l25-7.88c283-89.21,550-173.48,550-173.48"/><path class="cls-3" d="M-342.77,351.23c3.78-.87,139.37-43.44,318.47-99.82,7.47-2.35,15-4.72,22.6-7.26,20.45-6.23,33.45-21.23,46.45-37.23,30-42,47-87,86-121,12-11,29-12,38,0,30,39,68,91,122.27,66.16l25-7.88C599.14,55,866.2-29.32,866.2-29.32"/><path class="cls-3" d="M-342.5,358.27c3.68-.85,139.19-43.41,318.23-99.78,7.46-2.35,15-4.72,22.59-7.23,19.43-6.34,33.43-20.34,46.43-36.34,34-44,47-103,98-129,10-5,21,1,28,9,29,38,68,89,120.21,64.25l25-7.88C599,62.06,866-22.21,866-22.21"/><path class="cls-3" d="M-342.55,354.35c3.73-.86,139.28-43.43,318.36-99.81,7.46-2.35,15-4.72,22.6-7.25,21.34-7.37,36.34-22.37,48.34-40.37,29-42,46-84,83-118,14-13,34-10,45,6,26,40,66,84,116.34,60.29l25-7.88C599.17,58.09,866.22-26.19,866.22-26.19"/><path class="cls-3" d="M-342.83,347.57c3.82-.88,139.44-43.47,318.57-99.86,7.46-2.35,15-4.72,22.6-7.28,19.41-7.51,33.41-20.51,46.41-37.51,30-41,47-86,85-120,12-10,30-14,41,0,29,40,67,91,120.34,65.44l25-7.89C599.23,51.23,866.31-33.06,866.31-33.06"/><path class="cls-3" d="M-342.93,344c3.86-.89,139.52-43.49,318.68-99.88,7.47-2.35,15-4.73,22.6-7.31,18.4-7.84,31.4-20.84,44.4-34.84,38-42,63-148,120-121,41,19,70,91,128.4,63.79l25-7.89C599.33,47.56,866.42-36.73,866.42-36.73"/><path class="cls-3" d="M-345.49,381c4.14-1,140.05-43.62,319.43-100.07l22.64-7.13c65.17-22.91,77.17-96.91,117.17-146.91,13-16,35-32,52-14,32,36,70,89,123.9,68.61l25-7.89C598.08,84.32,865.32,0,865.32,0"/><path class="cls-3" d="M-345.64,378.06c4.19-1,140.14-43.62,319.55-100.08q11.22-3.53,22.65-7.13c63.19-22.93,76.19-93.93,115.19-143.93,13-17,36-36,55-16,32,36,69,88,122.93,67.63l25.05-7.9C598.15,81.34,865.41-3,865.41-3"/><path class="cls-3" d="M929,119.38s-241.18,75.31-513.64,160l-24.12,7.5c-80.51,38-153.51-9-224.51-47-14-8-25,11-32,23-21,46-30,105-80.47,128.1-7.4,2.72-15,5.09-22.46,7.42-195.33,60.41-351.18,108.2-373.71,113.91"/><path class="cls-3" d="M926.46,116.26S672.69,195.55,392,282.87c-8,2.49-16.07,5-24.36,7.39-65.85,24.66-129.85-6.34-182.85-49.34-24-19-47,2-55,26-18,50-36,115-95.74,127l-22.3,6.9c-184.28,57-329.42,101.41-352.77,107.35"/><path class="cls-3" d="M901.39,114.42s-241.58,75.47-512.1,159.82q-12.68,3.94-25.45,7.92c-71.09,31.76-134.09-13.24-192.09-55.24-13-9-27,0-34,11-33,52-37,128-102.34,146.53l-23.72,7.38c-196,61-348.92,108.28-357.24,110.2"/><path class="cls-3" d="M902.18,117.88S675.51,188.7,415.48,269.79l-25.27,7.87c-72.46,34.26-149.46,9.26-207.46-41.74-13-10-33-11-43,4-33,53-37,129-103.28,147.93l-23.72,7.37C-183.2,456.16-336,503.45-344.17,505.35"/><path class="cls-3" d="M919.49,106.75S663.2,186.78,381,274.54c-8.06,2.51-16.14,5-24.36,7.47-62.93,23.91-122.93-8.09-171.93-50.09-14-11-33-16-46,1-23,32-27,67-46,100-12,20-27,37-48.11,45.73-7.44,2.62-15,5-22.47,7.28-194.62,60.25-349,107.65-368.71,112.57"/><path class="cls-3" d="M908.27,100.37s-255.41,80.18-536.51,168l-24.15,7.55c-67.86,27-121.86-21-176.86-58-24-16-41,11-49,31-19,46-34,105-85,123.79-7.52,2.45-15,4.79-22.49,7.1C-179.54,440-333.21,487.32-352.55,491.94"/><path class="cls-3" d="M921.45,100.37S663.85,181.3,380.4,269.94l-24.35,7.62c-66.3,27.36-127.3-10.64-178.3-53.64-18-14-39-3-48,16-24,48-34,111-87.22,135.12-7.47,2.65-15,5-22.56,7.35-195.39,60.76-350.24,108.46-369.54,113.08"/><path class="cls-3" d="M-510.18,211.77c3-.69,225.73-72.39,478.48-153.83,8.16-2.63,16.35-5.33,24.65-8.43,67.8-26.59,103.8-90.59,155.8-139.59,19-17,45-17,65-2,35,28,77,53,121,31.91l22.77-7.34c188-60.61,331.8-107,331.8-107"/><path class="cls-3" d="M-510.08,218.19c2.77-.66,213.94-68.12,459.37-146.6l24.65-7.88C49.75,41.92,91.75-26.08,144.75-81.08c43-44,83,16,123,33,17,7,36,6,53.62.62q11.79-3.72,23.42-7.46c201.45-64.45,358.85-114.83,358.85-114.83"/><path class="cls-3" d="M-510.09,214.86c2.9-.69,225.63-72.39,478.36-153.83,8.15-2.62,16.34-5.33,24.64-8.46C53.75,25.92,92.75-26.08,135.75-76.08c17-18,42-33,66-20,35,20,66,56,109.9,45.72,7.68-1.89,15.38-4.24,23-6.71,199-64.17,354.55-114.33,354.55-114.33"/><path class="cls-3" d="M-510.58,201.8c3.1-.73,226-72.46,478.83-153.92,8.15-2.62,16.35-5.29,24.64-8.27C54.75,15.92,92.75-39.08,137.75-87.08c18-19,43-30,67-17,40,22,83,56,130.06,33.83l22.77-7.34c188.06-60.62,331.87-107,331.87-107"/><path class="cls-3" d="M-510,222.4c2.71-.64,213.84-68.08,459.24-146.55L-26.1,68c75.85-21,117.85-91,170.85-146,18-18,46-23,66-5,31,28,68,56,110.53,39.91q11.81-3.73,23.43-7.47L703.53-165.46"/><path class="cls-3" d="M-505.49,228.44c1.52-.36,211.66-67.57,456.31-145.86l24.57-7.87C43.75,51.92,87.75-4.08,131.75-60.08c17-22,47-41,73-20,33,29,71,63,117.15,43.88l23.38-7.48L703.45-158.35"/><path class="cls-3" d="M-505.6,224.82c1.55-.37,211.72-67.58,456.38-145.88l24.57-7.86C41.75,49.92,86.75-2.08,127.75-60.08c39-55,88-20,126,13,18,16,45,15,68.13,7.23q11.79-3.75,23.38-7.47L703.45-162"/><path class="cls-3" d="M-516.13,235c4.17-1,216.57-68.73,463-147.42l24.75-7.91C48.75,55.92,92.75-14.08,145.75-71.08c13-13,33-22,49-11,40,26,75,73,125.35,50.33l23.49-7.5c202-64.58,359.69-115,359.69-115"/><path class="cls-3" d="M-520.69,243.77c5.22-1.24,218.55-69.21,465.66-148.09l24.81-7.93c82-22.83,123-101.83,182-157.83,13-11,33-15,47-4,34,30,71,72,120.42,50.23l23.55-7.52C545.13-96,703.08-146.56,703.08-146.56"/><path class="cls-3" d="M-515.91,238.4c4.08-1,216.4-68.7,462.72-147.39l24.74-7.91C52.75,59.92,93.75-18.08,152.75-74.08c14-13,35-14,50-1,32,30,70,66,117.26,46.8l23.49-7.5,359.64-115"/><path class="cls-3" d="M-510.55,190.46c3.16-.75,226.11-72.49,479-154,8.16-2.63,16.35-5.27,24.68-8.34C55.75,7.92,91.75-48.08,136.75-94.08c17-16,40-29,63-20,43,16,86,56,135.3,32.44L357.82-89c188.08-60.63,331.9-107,331.9-107"/><path class="cls-3" d="M-510.76,197.54c3.15-.75,226.09-72.5,479-154,8.16-2.63,16.35-5.29,24.64-8.22C28.75,22.92,56.75-2.08,83.75-29.08c32-32,57-88,108-82,29,4,49,27,76,38,22,9,45,6,67.05-1.49l22.78-7.34c188.07-60.63,331.89-107,331.89-107"/><path class="cls-3" d="M-508.27,193.3c2.5-.59,224.89-72.21,477.35-153.58,8.15-2.62,16.32-5.28,24.6-8.2,32.07-12.6,60.07-32.6,85.07-57.6,35-35,67-105,124-84,43,17,85,54,132.43,31.77l22.75-7.33L689.5-192.58"/><path class="cls-3" d="M-510.95,179.2c3.32-.78,226.39-72.56,479.36-154,8.16-2.62,16.35-5.26,24.6-8C52.75-1.08,89.75-53.08,131.75-97.08c21-22,51-34,79-22,39,18,81,46,124.38,26.06l22.78-7.34c188.13-60.64,332-107,332-107"/><path class="cls-3" d="M-510.64,186.28c3.22-.76,226.2-72.52,479.12-154C-23.37,29.65-15.18,27-6.91,24.2,53.75,4.92,89.75-48.08,132.75-93.08c17-18,41-32,66-24,45,14,87,54,136.37,31.2l22.78-7.34c188.09-60.63,331.92-107,331.92-107"/><path class="cls-3" d="M-510.74,182.5c3.26-.78,226.29-72.55,479.24-154,8.16-2.63,16.35-5.27,24.61-8C44.75.92,83.75-38.08,119.75-82.08c21-25,52-51,87-36,40,18,83,49,128.44,28.38L358-97c188.11-60.64,332-107,332-107"/><path class="cls-3" d="M-510.93,175.68c3.37-.8,226.47-72.58,479.48-154.08C-23.29,19-15.1,16.33-6.81,13.48,57.75-5.08,92.75-64.08,141.75-108.08c16-13,35-22,56-17,46,13,89,51,137.55,28.49l22.79-7.34c188.13-60.64,332-107,332-107"/><path class="cls-3" d="M-510.88,172c3.42-.82,226.57-72.61,479.61-154.12Q-19,14-6.68,10c57.43-18,94.43-65,134.43-108,21-22,52-38,82-26,40,16,82,44,125.77,23.8l22.78-7.35c188.16-60.65,332-107,332-107"/><path class="cls-3" d="M-510.45,208.44c3-.72,225.8-72.43,478.57-153.88,8.16-2.63,16.35-5.31,24.7-8.61,39.93-16,71.93-45,100.93-77,28-31,56-87,102-70,45,18,87,62,138.86,37.52l22.77-7.34,331.82-107"/><path class="cls-3" d="M-510.47,204.8c3.05-.73,225.9-72.46,478.71-153.91,8.15-2.63,16.35-5.3,24.7-8.56C50.75,20.92,88.75-25.08,125.75-75.08c43-58,96-18,143,9,20,12,44,7,66-1.16l22.77-7.34c188-60.62,331.85-107,331.85-107"/><path class="cls-3" d="M-517.31,140.85c5.45-1.29,244.72-78.14,508.9-163.13,8.26-2.66,16.57-5.38,25.13-8.63,18-6.17,33-16.17,48-28.17,43-36,77-97,140-86,44,7,87,31,130.38,12.22L358-140.23C546.76-201,691-247.49,691-247.49"/><path class="cls-3" d="M-517,147.07c5.14-1.22,229.75-73.37,483.88-155.14L-8.4-16c52.15-13.06,89.15-51.06,126.15-89.06,22-23,49-43,83-37,46,8,89,36,134.3,15.49l22.86-7.36C546.63-194.74,690.8-241.2,690.8-241.2"/><path class="cls-3" d="M-517.1,143.67c5.2-1.24,229.86-73.39,484-155.17l24.68-7.94c23.14-7.64,46.14-15.64,66.14-31.64,47-36,80-103,147-92,44,7,86,32,130.35,13.06L358-137.39C546.7-198.18,690.88-244.64,690.88-244.64"/><path class="cls-3" d="M-517.77,130.89c5.64-1.33,245.08-78.22,509.37-163.24,8.26-2.66,16.55-5.33,25-8.31,19.15-6.42,35.15-16.42,51.15-29.42,40-34,75-86,131-81,46,3,91,28,136.52,8.11l22.87-7.36C547-211.13,691.19-257.61,691.19-257.61"/><path class="cls-3" d="M-514,150.68c4.34-1,228.26-73,481.87-154.64Q-19.81-7.9-7.47-11.89C58.75-27.08,92.75-86.08,145.75-126.08c47-36,95,4,143,11,16,2,32-3,46.65-7.23l22.82-7.35C546.67-190.38,690.7-236.81,690.7-236.81"/><path class="cls-3" d="M-511.13,157c3.55-.84,226.8-72.66,479.91-154.18L-6.64-5.12c49.39-13,85.39-47,116.39-87,42-55,104-49,158-22,22,11,46,6,67.91-1.33l22.79-7.35c188.19-60.66,332.08-107.06,332.08-107.06"/><path class="cls-3" d="M-513.68,153.94c4.28-1,228.16-73,481.74-154.62L-7.32-8.6c26.07-6.48,49.07-20.48,71.07-37.48,43-36,75-102,139-91,45,9,88,38,132.76,18.06l22.82-7.36c188.43-60.71,332.45-107.14,332.45-107.14"/><path class="cls-3" d="M-511,161.16c3.49-.82,226.7-72.63,479.77-154.14L-6.68-.9C53.75-17.08,89.75-68.08,132.75-110.08c17-16,39-28,63-23,48,8,92,44,139.84,21.9l22.79-7.34,332-107"/><path class="cls-3" d="M-511.17,168.13C-507.7,167.3-284.51,95.49-31.45,14Q-19.19,10-6.86,6C53.75-11.08,90.75-62.08,133.75-106.08c40-42,91-18,134,3,22,10,46,6,67.63-1.15q11.5-3.69,22.79-7.34c188.17-60.65,332-107,332-107"/><path class="cls-3" d="M-511.24,164.5c3.52-.84,226.76-72.66,479.86-154.18L-6.79,2.39A208.73,208.73,0,0,0,63.75-37.08c44-37,75-108,141-92,44,10,86,41,130.74,21.18l22.79-7.34C546.47-175.9,690.35-222.3,690.35-222.3"/><path class="cls-3" d="M-514.5,119c4.84-1.14,243.6-77.86,507.38-162.76C1.12-46.38,9.39-49,17.75-51.85c49-15.23,76-58.23,119-87.23,21-13,42-21,66-19,45,5,89,23,133.23,3.88l22.84-7.36C547.38-222.3,691.46-268.74,691.46-268.74"/><path class="cls-3" d="M-514.23,125.58c4.73-1.12,243.38-77.84,507.09-162.73C1.1-39.8,9.37-42.46,17.71-45.23c16-5.85,30-13.85,44-23.85,39-30,64-73,115-83,36-8,68,10,103,13,19,1,38-1,56.13-8.54L358.71-155C547.24-215.71,691.3-262.15,691.3-262.15"/><path class="cls-3" d="M-514.35,122C-509.57,120.83-270.87,44.1-7.12-40.8,1.12-43.45,9.39-46.11,17.77-49c50-16.11,78-62.11,123-91.11,21-13,43-19,67-15,43,6,86,21,128.19,3.8l22.84-7.35c188.54-60.75,332.61-107.19,332.61-107.19"/><path class="cls-3" d="M-514.88,107.52c5-1.19,243.93-77.95,507.83-162.88l24.8-8c14-4.74,28-10.74,41-19.74,47-36,88-89,152-81,42,6,85,15,125.42-1.79L359-173.22C547.63-234,691.74-280.43,691.74-280.43"/><path class="cls-3" d="M-514.56,114.56C-509.66,113.4-270.86,36.65-7-48.27l24.8-8c11-3.82,22-7.82,33-14.82,53-37,91-99,161-88,42,6,84,17,124.35.31l22.83-7.35c188.58-60.75,332.67-107.2,332.67-107.2"/><path class="cls-3" d="M-514.64,110.64c5-1.18,243.83-77.94,507.69-162.87l24.8-8c49.9-15.87,79.9-61.87,124.9-86.87,17-10,35-17,55-16,46,3,93,20,138.48.34l22.84-7.36c188.6-60.75,332.7-107.2,332.7-107.2"/><path class="cls-3" d="M-515,103.86c5.08-1.21,244-78,507.94-162.93l24.81-8c17-4,32-11,44-23,56-54,123-92,204-71,23,6,48,0,70.48-8.52L359.08-177c188.63-60.76,332.75-107.21,332.75-107.21"/><path class="cls-3" d="M-515.08,100.25C-509.95,99-271,22.23-7-62.72l24.81-8c12.94-3.37,24.94-9.37,36.94-16.37,33-22,56-49,90-68,45-25,93-6,140-7,18-1,35-6,51.54-11.18l22.85-7.36c188.65-60.76,332.77-107.22,332.77-107.22"/><path class="cls-3" d="M-517.41,137.34c5.5-1.32,244.82-78.19,509-163.21,8.25-2.65,16.55-5.35,25-8.29A189.69,189.69,0,0,0,64.75-62.08c34-29,59-66,101-82,40-15,78,11,118,15,17,1,34-2,51.44-7.39l22.86-7.36c188.78-60.8,333-107.28,333-107.28"/><path class="cls-3" d="M-517.58,134.37C-512,133.05-272.64,56.17-8.39-28.85c8.26-2.65,16.54-5.33,25-8.41a187,187,0,0,0,48.1-27.82c36-29,61-70,108-83,38-9,71,12,107,16,19,2,37-1,55.48-7.37l22.86-7.37c188.8-60.8,333-107.27,333-107.27"/><path class="cls-3" d="M759.13-126S571.78-66.26,341,7.11l-23.22,7.38c-57,30.43-94-19.57-130-57.57-12-13-32-4-43,8-53,56-93,127-164.59,156.7l-23.73,7.52c-236.23,74.78-439.19,138.57-465,145.23"/><path class="cls-3" d="M755.46-132.12S568.06-72.34,337.15,1.08L313.92,8.47c-27.17,8.45-60.17,14.45-79.17-11.55-25-34-64-77-101-29-45,59-88,122-157.59,147.75l-23.74,7.52C-283.95,198-487.06,261.89-513,268.63"/><path class="cls-3" d="M751.09-127.75S565.22-68.39,336,4.58l-23.07,7.34c-24.14,8-53.14,13-73.14-5-26-25-57-86-96-44-52,57-94,126-166.42,155.62L-46.27,126C-281.29,200.51-483.7,264.21-511,271.4"/><path class="cls-3" d="M774.56-119.61S573.23-55.49,330.08,21.65l-23.66,7.51c-48.67,24.76-84.67-15.24-111.67-54.24-9-13-26-19-39-9-40,33-64,75-100,111-21,20-39,41-66,52.13-8,2.9-16,5.44-23.91,7.95-238.36,75.28-443.61,139.61-471.22,146.69"/><path class="cls-3" d="M752.89-135.22S566.81-75.83,337.19-2.79l-23.1,7.35c-28.34,9.36-62.34,12.36-81.34-14.64-23-31-59-70-94-30-48,57-89,125-160.81,151.36l-23.66,7.5c-235.5,74.57-438.51,138.39-466.49,145.68"/><path class="cls-3" d="M727.81-136.91S556.16-82.12,340.33-13.35l-24.15,7.7c-24.43,8.57-53.43,11.57-72.43-7.43-28-28-66-80-105-34-46,56-87,116-152,146-8.42,3-16.81,5.63-25.17,8.29C-289,187-506.77,256-516.74,258.33"/><path class="cls-3" d="M728.62-133.46S557-78.68,341.24-9.92l-24.15,7.7c-28.34,11.14-63.34,13.14-82.34-13.86-27-40-70-68-105-19-40,56-81,108-142,137.37-8.42,3-16.8,5.7-25.15,8.35-250.53,79.69-468.13,148.67-478,151"/><path class="cls-3" d="M745.86-144.69s-187.94,60-419,133.43c-7.7,2.45-15.43,4.83-23,6.56-44.11,15.62-75.11-23.38-102.11-52.38-14-14-35-16-50-2-54,53-92,122-161.74,154.26-8,3-16,5.62-23.89,8.13C-279.74,181.23-494.3,248.8-517.75,254.81"/><path class="cls-3" d="M734.6-151S559.59-94.88,340-24.7l-22.87,7.3C262.75,6.92,230.75-45.08,189.75-72.08c-14-10-31-2-42,9-54,54-93,125-166.23,152.7q-11.94,3.87-23.79,7.62c-244.89,77.92-458.5,145.4-481.52,151.05"/><path class="cls-3" d="M747.78-151.08s-188.89,60.62-421,134.85C319-13.76,311.28-11.4,303.59-9.5,252.75,5.92,228.75-45.08,190.75-68.08c-19-12-37,2-50,15-47,53-87,114-152.35,144.18-8.06,3.24-16.06,5.82-24,8.35-246.9,78.63-462.2,146.7-485.17,152.36"/><path class="cls-3" d="M782.93-110.24s-212.69,67.76-465,147.81c-7.88,2.5-15.81,5-23.74,7.46-19.39,4.89-41.39,8.89-57.39-5.11-28-26-53-95-96-52-54,54-90,128-162.38,157.12l-23.7,7.48c-227.95,71.92-421.87,132.58-453,140.66"/><path class="cls-3" d="M806.93-123.37S590-54.51,332.4,26.88l-24.26,7.66c-51.39,28.38-87.39-14.62-115.39-55.62-17-25-45-6-60,12-47,52-83,115-147.1,145.14-8.11,2.65-16.18,5.19-24.21,7.71-233,73.18-431.55,135-464.58,143.38"/><path class="cls-3" d="M806.59-119.64s-228.93,72.75-495.33,157c-8.08,2.55-16.15,5-24.13,7.18C232.75,61.92,217.75-.08,179.75-26.08c-12-9-26,0-36,9-53,51-88,120-153.09,155.13-8,2.92-16.07,5.46-24.06,8-231.76,72.87-429.72,134.5-463.93,143.31"/><path class="cls-3" d="M782.15-98.71S573.25-32,324.45,47L301,54.46c-21.26,6.46-45.26,15.46-65.26-.54-26-20-32-57-62-68-18-6-32,11-44,23-48,48-79,114-140.63,144.2-7.83,2.66-15.66,5.13-23.44,7.59C-260,232-453.46,292.56-488.81,301.9"/><path class="cls-3" d="M806.26-112S579.62-39.9,315.14,43.76c-8,2.53-16.07,5.08-24.11,7.55-23.28,11.61-50.28,3.61-67.28-17.39-18-21-31-62-58-52-63,23-89,97-142,143a124.37,124.37,0,0,1-51.24,26.94l-23.75,7.47c-220.5,69.3-406.46,127.13-442.54,136.53"/><path class="cls-3" d="M806.17-108.16S579.7-36.11,315.5,47.48q-12,3.8-24.11,7.6c-40.64,19.84-73.64-16.16-91.64-50.16-17-34-52-22-73,3-47,55-83,124-153.47,147.57L-50.44,163c-220.2,69.23-405.81,127-441.54,136.29"/><path class="cls-3" d="M805.51-101.14s-225,71.62-487.64,154.8l-24,7.59c-20.14,8.67-45.14,10.67-63.14-6.33-23-21-29-56-60-65-22-5-35,17-49,31-47,48-78,117-144.26,140.25l-23.61,7.43c-219.15,69-404.18,126.57-440.72,136.15"/><path class="cls-3" d="M805.75-97.55S581-26,318.52,57.15l-23.95,7.59C240.75,92.92,213.75,33.92,182.75.92c-19-21-42,3-57,19-48,50-81,119-147.25,144.66L-45.07,172c-218.88,68.89-403.6,126.43-439.82,135.94"/><path class="cls-3" d="M755.92-122.39S570.07-63,340.86,9.92L317.8,17.26c-27.05,10.66-61.05,17.66-84.05-6.34-17-18-27-41-49-53s-40,8-53,23c-46,53-85,113-149.43,142.9q-11.85,3.81-23.6,7.52C-276.23,205.81-478.56,269.5-505.8,276.66"/><path class="cls-3" d="M757.41-119.1S559-55.74,319.41,20.52c-7.73,2.46-15.49,4.9-23.2,7.09-22.46,7.31-48.46,5.31-64.46-13.69-21-25-47-80-84-46-56,53-92,127-163.69,159.1q-11.83,3.86-23.59,7.55c-234.84,74.45-437,138.1-464.15,145.23"/><path class="cls-3" d="M825.69-69s-251,79.8-533,168.84c-8.06,2.54-16.14,5.09-24.26,7.27-41.67,8.81-61.67-35.19-83.67-64.19-9-12-22-22-37-13-48,34-71,82-107,126-12,14-24,26-40.25,35-7.84,3.28-15.72,5.86-23.56,8.32-219.69,68.92-406.87,127-448.87,138"/><path class="cls-3" d="M848.31-81.6S593-.66,305.86,89.74l-24.69,7.77c-47.42,19.41-72.42-30.59-97.42-61.59-34-43-69,21-92,46-34,39-57,92-107.64,108.8l-23.87,7.47C-253.4,264.94-432.85,320.33-475.55,331.52"/><path class="cls-3" d="M847-77.64S592.06,3.2,305.38,93.47l-24.65,7.75c-47,19.7-74-29.3-97-63.3-16-22-39-11-55,4-52,49-76,127-144.51,152.37l-23.83,7.45c-213.19,66.63-392.14,121.88-434.38,133"/><path class="cls-3" d="M839.44-62.22S590.22,17,309.39,105.59l-24.15,7.62c-24.49,11.71-53.49,5.71-71.49-16.29-16-19-25-50-46-53-67-7-89,88-134,132-12,12-24,22-39.23,28.58-7.82,2.59-15.62,5-23.37,7.46C-238.13,277.5-414.42,332-457.82,343.47"/><path class="cls-3" d="M826.39-79.83S573.62.47,289.93,90c-8.1,2.56-16.23,5.08-24.3,6.85-41.88,4.07-58.88-39.93-81.88-67.93-14-19-37-12-51,3-42,43-70,93-113,135A105.65,105.65,0,0,1-3.89,182c-7.91,2.94-15.84,5.44-23.72,7.91-220.85,69.25-408.76,127.5-450.15,138.34"/><path class="cls-3" d="M850.28-92.83S589.59-10.28,298.16,81.36c-7.87,2.48-15.77,5-23.67,7.38-16.74,5.18-33.74,1.18-47.74-10.82-26-21-38-82-75-62-55,30-79,91-123,136-11,11-24,21-39.18,26.14-7.69,2.47-15.35,4.86-23,7.24-220.85,69-407.12,126.44-448.12,137"/><path class="cls-3" d="M849.85-89.08S590.77-7,300.6,84.24L277,91.65c-45.26,15.27-68.26-32.73-91.26-64.73-9-13-27-18-40-8-48,40-76,92-117,137-11,11-22,19-35.67,24.54-7.64,2.61-15.28,5-22.88,7.36-220.29,68.8-406.71,126.3-449.46,137.42"/><path class="cls-3" d="M817.71-89s-239,76-512.43,162.45l-24.21,7.64c-54.32,19.8-71.32-46.2-106.32-73.2-11-9-25,0-35,8-58,49-84,125-151.82,157.59Q-24,177.31-35.76,181c-220,69.1-406.28,127-444.59,137"/><path class="cls-3" d="M805.81-93.76S581-22.16,318.6,61l-24,7.58C241.75,95.92,211.75,40.92,182.75,4.92c-7-10-22-12-32-4-47,37-73,85-113,128-17,18-35,34-59.12,39.47l-23.57,7.42C-263.77,244.7-448.39,302.23-484.46,311.7"/><path class="cls-3" d="M808.66-90.79S570.12-14.86,297.32,71.47c-8,2.54-16.06,5.06-24,7.29a47.94,47.94,0,0,1-44.56-10.84c-21-20-28-48-53-65-9-5-18-4-26,2-49,39-76,91-119,135-14,14-30,26-49.95,31.47l-23.62,7.44c-219.37,69-404.92,126.74-442.57,136.64"/><path class="cls-3" d="M857.78-55.19s-263.62,83.45-555,175q-12.15,3.81-24.35,7.63c-51.67,19.53-77.67-37.47-105.67-70.47-6-6-15-10-23-6-53,27-74,85-111,132-14,17-31,28-51.41,35.56l-23.25,7.25C-236.19,288.1-403.11,339.37-447.8,351.15"/><path class="cls-3" d="M862.38-63.92S596.51,20.33,302.67,112.71l-24.55,7.71c-49.37,18.5-76.37-35.5-102.37-68.5-8-10-22-13-33-5-47,34-68,83-103,127-15,18-32,34-55.15,38.45l-23.44,7.32c-201.95,63-370.24,114.72-415.24,126.6"/><path class="cls-3" d="M866.56-61.26s-266,84.1-560.13,176.39l-24.58,7.71c-44.1,19.08-77.1-22.92-98.1-57.92-10-16-30-26-46-12-41,35-63,78-95,121-15,19-32,34-54.85,40.81l-23.49,7.32C-237.94,285-406.77,336.83-452.54,348.93"/><path class="cls-3" d="M872.32-47.25S606.4,36.81,312.56,129L288,136.66c-49.27,21.26-86.27-21.74-110.27-60.74-10-15-30-20-44-7-38,34-59,75-88,118-14,19-29,34-51.23,41.41q-11.77,3.75-23.44,7.35C-230.82,298.49-399,350.11-443.82,361.92"/><path class="cls-3" d="M876.85-56.25s-281.53,89-586,184.41A236.12,236.12,0,0,1,266,134.82c-19.21,3.1-36.21-4.9-50.21-17.9-20-19-27-54-53-57-60-8-82,77-118,120-14,17-28,33-48.59,40.17-7.89,2.6-15.74,5-23.54,7.47-202.86,63.09-372.2,115-418.29,127.21"/><path class="cls-3" d="M881.16-53.34S597.89,36.14,292,132c-7.85,2.46-15.72,4.83-23.69,6.57-48.51,7.37-68.51-44.63-99.51-73.63-22-21-44,9-59,25-42,46-60,117-121.65,136.94l-22.34,6.94c-199.82,62.09-365.68,112.93-411.08,124.92"/><path class="cls-3" d="M889.62-48.49S605.18,41.3,298,137.45c-7.88,2.46-15.77,4.93-23.71,7.14-53.56,12.33-72.56-55.67-110.56-69.67-62-22-85,85-127,128-13,14-27,24-43.77,29.69q-11.28,3.54-22.43,7C-230,301.88-396.49,352.87-442,364.87"/><path class="cls-3" d="M893.8-45.84S608.33,44.22,300.15,140.63c-7.9,2.47-15.82,5-23.77,7.26-47.63,13-76.63-32-102.63-67-5-7-14-14-23-11-57,20-73,87-110,132-13,15-28,28-46.62,34.12q-11.31,3.56-22.49,7c-201.2,62.45-368.08,113.54-413.45,125.52"/><path class="cls-3" d="M848.38-71.77S594.79,8.68,309.32,98.6l-24.54,7.73c-52,24.59-80-35.41-109-68.41-8-9-21-10-31-3-51,38-74,93-115,138-11,12-24,21-40.36,26.16l-23.75,7.43C-246.9,273-425.64,328.18-468.82,339.54"/><path class="cls-3" d="M850.19-68.67S582.84,16.16,288.46,108.86a228,228,0,0,1-24.68,6.63c-45,1.43-62-44.57-88-73.57-9-9-22-10-32-3-49,36-71,88-109,132-12,13-24,24-40.79,30.29-7.93,2.61-15.82,5.07-23.67,7.53C-241.64,275-420,330.06-463.29,341.44"/></g></svg>