<svg xmlns="http://www.w3.org/2000/svg" xmlns:xlink="http://www.w3.org/1999/xlink" viewBox="0 0 296.97 256.83"><defs><style>.cls-1,.cls-3{fill:none;}.cls-2{clip-path:url(#clip-path);}.cls-3{stroke:#939393;stroke-miterlimit:10;}.cls-4{fill:#271033;opacity:0.5;}</style><clipPath id="clip-path"><rect class="cls-1" x="1.57" width="296.68" height="256.83"/></clipPath></defs><title>prufa5</title><g id="artboard1"><g class="cls-2"><path class="cls-3" d="M353.35,765.14l-.36-10.9c0-.85-16.64-303.52-33.46-610.09-.3-5.47-.61-11-.9-16.43.6-63.89,29.6-119.89,42.6-183.89,2-9,3-20-5-27-20-16-50-25-49-53,2-35,41-48,64-71,1-2,2-4,2.67-5.64a19.73,19.73,0,0,0,.33-11.61c-2-7.75-8-15.25-15-20.75-27-21-60-40-65-76.06-.75-8.51-1.2-16.75-1.64-24.74-4.82-87.83-7.88-143.69-7.89-144.13"/><path class="cls-3" d="M345.32,765.72s-16.63-303.23-33.51-611.6l-.9-16.52c-2.68-65.77,32.32-122.77,44.32-188.77,1-9,1-19-7-24-25-16-58-31-50-65,7-31,39-43,59.06-65,5.12-5.68,7.58-11,8-15.94,2.22-24.91-46.25-42.41-62.08-64.08-10-13-17-27-17.77-42.94q-.34-6.27-.68-12.35c-4.85-89.19-8-146.61-8-148.79"/><path class="cls-3" d="M348.92,757.75l-.26-8.76c0-.92-16.64-303.67-33.45-610.35-.3-5.47-.57-11-.69-16.63,3.71-60.18,29.71-113.18,43.71-173.18,2-11,2-24-8-31-23-13-53-27-47-58,6-37,46-45,66-72.11,2.7-5.14,3.45-10.89,0-16.89-17-25-43-36-63-57-10-11-17-25-16.5-40.78q-.69-12.75-1.35-24.74c-4.8-87.88-7.83-143.8-7.81-144.31"/><path class="cls-3" d="M364.84,724.15S348,427,331,127.16c-.29-5.25-.59-10.52-.7-16,0-61.37,28-115.37,42-176.37,3-15-3-27-15-36-15-9-33-18-35-35-2-30,29-46,52-62,5-4,8-9,11.13-14.09,2.87-6.41,2.87-13.41-3.13-19.91-26-29-68-45-75.79-84.69a107.61,107.61,0,0,1-1.29-12.79c-5.19-92.21-8.55-152.59-8.66-155.88"/><path class="cls-3" d="M341,765.25s-16.63-303.16-33.51-611.4q-.47-8.26-.9-16.52c-.38-64.5,32.62-119.5,43.62-182.5,2-10,2-24-7-28-28-12-58-36-49.48-68.68a50.65,50.65,0,0,1,8.43-16.55,94,94,0,0,1,13.35-14c14.7-13.74,32.7-24.74,45.7-40.74,3-4.5,2.75-9,1-13.25s-5-8.25-8-11.75c-27-28-72-47-73.08-90q-.34-6.27-.68-12.35c-4.85-89.11-8-146.44-8-148.53"/><path class="cls-3" d="M326.91,684.94s-14.49-251.71-30-521.95q-.47-8-.92-15.92c-.74-46.24,20.26-88.24,31.26-133.24,6-24,27-53,7-70-22-20-55-30-53.53-65.23a49,49,0,0,1,.85-19.11c7.26-29.44,40.18-46.66,62.68-66.66,6-6,11-16,5-24-26-34-79-49-80.46-95.73q-.36-6.27-.71-12.34c-5.1-89.11-8.39-147-8.45-149"/><path class="cls-3" d="M318.61,723.74S303,450.93,286.72,163.25c-.3-5.33-.59-10.67-.75-16.14,3.26-60.28,35.26-112.28,46.26-173.28,5-26-23-29-40-39-19-11-20-35-21.53-54.66a93.68,93.68,0,0,1,.15-16.67c4.38-34.67,41.38-48.67,64.38-71.67,13-12,3-28-8-37-26-21-59-38-67-72.37a104,104,0,0,1-1.36-13c-5.25-94.19-8.71-157.64-8.95-165.51"/><path class="cls-3" d="M323.5,723.83s-15.56-272.29-31.86-559.15c-.3-5.31-.6-10.63-.83-16,.42-59.84,31.42-110.84,44.42-170.84,2-11,5-27-6-32-27-12-55-30-53.49-63.38a113.12,113.12,0,0,1-.27-16.56c4.76-40.06,47.76-50.06,68.76-81.06,5-7,2-14-3-20-27-30-75-47-77.37-92.16q-.72-12.76-1.38-24.77C258-432,255.16-484.58,255-491.23"/><path class="cls-3" d="M356.47,759S339.86,456.43,323,149.32l-.9-16.45c-4.89-67,28.11-126,43.11-193,1-7,1-14-3-21-16-22-50-26-51-55s28-43,51-59c7-5,13-11,14.32-20.22.59-4.42-.32-9.28-3.32-14.78-19-34-67-46-75.16-87.37-1.09-8.57-1.55-16.87-2-24.9-4.83-88.38-7.91-144.91-7.95-146.12"/><path class="cls-3" d="M360.65,758.13S343.46,445,326.33,132.82c-.3-5.48-.6-11-.85-16.5C327.23,53.83,354.23-.17,367.23-62.17c3-10,2-22-6-28-22-16-62-36-40-67,17-23,44-32,60.06-55,4.94-7,.94-15-4.06-21-25-29-66-44-74.81-83.4-1.21-8.54-1.66-16.81-2.1-24.82-4.82-88.05-7.89-144.22-7.91-145"/><path class="cls-3" d="M268-500.74l9.2,163q.36,6.45.75,13.09c.3,14.49,8.3,27.49,17.3,38.49,20,25,63,35,62,66-.34,8.67-4.53,15.23-10.6,20.94-10.4,10.06-23.4,15.06-33.57,24.15a61.82,61.82,0,0,0-9.83,9.91,78,78,0,0,0-10.76,18.84c-15.24,40.16,24.76,60.16,51.76,82.16,14,11,2,32-3,49-13,51-36,99-37.19,151.35.2,5.62.51,11.15.82,16.66l31.57,559.48"/><path class="cls-3" d="M263.49-499.12l9.21,164c.25,4.32.49,8.71.93,13.17,4.6,30.82,30.6,49.82,55.6,67.82,10.5,8.25,26.62,19.88,26.44,32.77-.07,4.29-1.94,8.73-6.44,13.23-10,9-20,16-29.72,24.32a190.23,190.23,0,0,0-14.35,12.75A89.77,89.77,0,0,0,293.44-157a55.91,55.91,0,0,0-7.38,16.26c-10.83,37.53,20.17,64.53,53.17,77.53,5,2,6,10,5,16-7,66-45,125-44.62,190.68l.89,15.73,31.58,561.85"/><path class="cls-3" d="M186.29,774.26l-.35-10.9c0-.76-13.28-242.22-28.1-512.2-.28-5.2-.57-10.4-.82-15.62-.79-14.71,3.21-27.71,7.21-41.71,11-43,74-93,37-126-18-16-58-19-56.24-52.4-.37-5.12-.65-10.27-.93-15.42-2.26-41.14-4.47-81.42-6.59-120.06-.3-5.48-.6-10.92-.83-16.32,2.59-36.8,40.59-51.8,67.59-71.8,9-7,18-17,10-28-19-26-50-35-71-59-10-12-17-26-17.66-41.68q-.64-12-1.26-23.14c-4.08-74.39-6.61-120.59-6.63-121"/><path class="cls-3" d="M178.26,774.84s-13.77-251.22-29-528.87c-.22-5.26-.45-10.53-.37-15.93-.68-14.21,6.32-27.21,10.32-40.21,13-38,61-76,40-112-12-23-61-17-62-53.32-.36-5.15-.65-10.35-.94-15.53-2.26-41.45-4.48-82-6.61-121q-.45-8.3-.9-16.48c-6.57-42.64,39.43-59.64,68.43-81.64,12-8,16-21,5-32-30-29-78-44-84.2-89.15-.74-8.13-1.17-16-1.58-23.54-4.12-75.65-6.69-123.29-6.75-125.27"/><path class="cls-3" d="M181.87,766.87l-.27-8.76c0-.82-13.27-242.35-28.07-512.43-.29-5.19-.56-10.4-.55-15.74,3.25-51.11,42.25-89.11,57.25-137.11,4-12-1-24-14-27-30-5-60-22-55.62-55.91q-.44-7.75-.85-15.47c-2.25-41.16-4.46-81.46-6.58-120.11-.3-5.48-.55-10.92-.38-16.28-.57-10.23,6.43-17.23,11.43-25.23,18-27,86-37,62-71-27-38-85-52-84.91-104.4q-.64-12-1.26-23.16c-4.06-74.43-6.57-120.69-6.55-121.15"/><path class="cls-3" d="M197.79,733.27s-12.88-226.65-27.45-483.75q-.45-7.87-.9-15.78c-1.21-15.91,1.79-30.91,6.79-45.91,13-42,55-77,46-122-4-16-27-13-41-20s-23-20-24.15-35.59c-.57-5-.88-10.26-1.18-15.49-2.07-36.58-4.1-72.47-6.05-107.11q-.48-8.34-.94-16.6c-4.68-42.21,41.32-59.21,70.32-81.21,10-8,14-21,4-30-27-28-70-42-83.27-80.17-2.17-8.55-2.79-16.69-3.23-24.53-4.41-78.37-7.2-128.55-7.3-131.54"/><path class="cls-3" d="M174,774.37s-13.66-249-28.79-525.19c-.29-5.31-.54-10.65-.5-16.11.56-11.24,3.56-21.24,6.56-32.24,10-42,83-101,33-129-20-11-53-18-51.34-47.26-.31-5.27-.59-10.54-.88-15.8-2.59-47.3-5.12-93.5-7.52-137.44a121.43,121.43,0,0,1-.06-16.18c8.8-33.32,42.8-46.32,68.8-65.32,19-13,11-30-5-41-31-22-68-41-74.51-80.16-.74-8.12-1.17-16-1.58-23.51-4.12-75.58-6.69-123.14-6.76-125"/><path class="cls-3" d="M159.85,694.06s-11.49-199.64-25-434.21q-.47-8-.93-16c-2.72-20,7.28-39,15.28-57,13-33,63-74,33-102-19-18-60-20-60.53-54.19q-.47-8.19-.94-16.35c-2.81-48.93-5.57-97-8.19-142.74-.31-5.4-.58-10.77-.36-16.07,2-10.65,8-18.65,15-27.65,19-23,83-35,57-69-25-33-75-44-83-89-.66-8.1-1.1-15.95-1.54-23.51-4.32-75.67-7-123.69-7.11-125.51"/><path class="cls-3" d="M151.56,732.86s-12.7-222.34-27.17-477.24c-.3-5.31-.6-10.64-.51-16.12,2.35-46.67,41.35-78.67,56.35-121.67,3-10,5-23-5-29-23-13-56-14-62-44.1A114.34,114.34,0,0,1,111.54,29c-3-53.69-6-106.4-8.83-156.4-.32-5.54-.6-11-.51-16.52,7-35.23,46-48.23,72-69.23,9-8,11-20,2-29-31-29-81-45-84.9-92-.41-4.15-.67-8.23-.9-12.25C86-426.74,83.09-479.82,82.88-487"/><path class="cls-3" d="M156.44,733S143.76,511,129.31,256.82c-.3-5.3-.61-10.61-.7-16,1.62-44,35.62-77,52.62-117,5-12,13-30-1-37-26-14-66-19-63.75-56q-.45-8-.91-16c-2.72-48-5.38-95-7.91-139.84-.31-5.51-.62-11-.76-16.44-.67-9.71,4.33-17.71,10.33-25.71,20-26,55-30,69-58,5-9-4-17-11-23-35-25-80-48-79.81-94.81q-.67-12-1.29-23.13c-3.71-66.82-6-110-6.22-116"/><path class="cls-3" d="M211,735.33s-13.4-235.64-28.31-498.53c-.3-5.26-.6-10.53-.74-15.88-.68-56.09,43.32-96.09,54.32-151.09,6-28-29-26-46-35-14-7-19-22-21-36.46-.4-5.13-.7-10.32-1-15.5-1.76-31.08-3.49-61.6-5.17-91.18q-.47-8.32-.93-16.54c-6.92-42.32,35.08-61.32,65.08-81.32,17-11,18-29,1-42-33-24-79-45-78.23-91.63q-.66-11.68-1.27-22.51c-3.65-64.87-5.91-105.33-6-107.53"/><path class="cls-3" d="M203.45,771s-14.19-251.08-29.72-527.37q-.43-7.81-.88-15.66c-1.62-56.15,43.38-96.15,56.38-151.15,1-7,0-14-5-17-24-17-62-16-63.52-51.88-.47-5-.78-10.1-1.06-15.21-2-35.78-4-70.82-5.85-104.58-.31-5.39-.6-10.75-.9-16.07-4.67-46.26,48.33-60.26,75.33-87.26,10-11,2-24-8-32-32-25-77-44-78.95-89.89q-.63-11.44-1.22-22.06c-3.5-63.71-5.69-104.57-5.86-110.23q-.13-4.47-.27-9.19"/><path class="cls-3" d="M207.57,767.87S193.36,516.38,177.81,239.4c-.28-5.23-.57-10.47-.83-15.73,1.25-48.84,33.25-88.84,51.25-133.84,5-13,10-33-7-38-24-9-58-17-56.42-48.8-.52-5-.82-10.1-1.11-15.23-2-35.89-4-71-5.86-104.92-.3-5.41-.6-10.79-.86-16.13.25-38.92,42.25-54.92,69.25-75.92,8-6,16-16,9-26-19-24-47-34-68-55-8-9-15-18-19.12-29.18a153.68,153.68,0,0,1-2.82-24C141.08-420,138.38-470.19,138.18-477"/><path class="cls-3" d="M223.78,725.9S210.41,491.18,195.55,230c-.3-5.22-.59-10.46-.73-15.77-.59-14.38,3.41-26.38,6.41-40.38,9-46,76-105,31-134-23-15-54-30-51-61.91q-.44-7.71-.87-15.36c-1.45-25.52-2.88-50.59-4.27-75-.31-5.49-.62-11-.93-16.38-1.91-41.34,41.09-58.34,69.09-80.34,9-7,14-20,5-29-27-29-69-41-82.8-79-2.28-8.38-2.91-16.35-3.35-24C158.73-417.78,156-466,156-467"/><path class="cls-3" d="M216.14,761.82S202,511.44,186.47,236.33q-.43-7.79-.88-15.6c.64-55.9,40.64-97.9,54.64-151.9,1-7,1-15-4-18-28-16-68-23-63.8-64.22Q172-21,171.57-28.6c-1.7-30.31-3.37-60-5-88.78-.3-5.36-.6-10.69-.84-16-.52-32.82,32.48-49.82,57.48-66.82,13-8,31-22,18-36-25-31-68-44-84-81.12a130.1,130.1,0,0,1-3.12-23.63c-4.18-75.51-6.83-124.46-7-129.93"/><path class="cls-3" d="M220.45,758.86s-14.16-249.95-29.64-524.37q-.44-7.76-.87-15.55c-.71-56.11,41.29-98.11,54.29-152.11,2-10,0-23-11-25-29-7-60-23-56.44-56.34q-.43-7.6-.85-15.16c-1.7-30.21-3.37-59.82-5-88.48-.3-5.33-.6-10.64-.8-15.91,3.06-43.11,52.06-54.11,77.06-83.11,6-8,2-17-4-23-27-27-66-41-81.69-77a134.39,134.39,0,0,1-3-23.49c-4.17-75.05-6.81-123.52-7-128.48"/><path class="cls-3" d="M228.18,752.93s-14.41-254.3-30-530.9c-.3-5.42-.53-10.89-.44-16.54,4.53-51.66,40.53-92.66,53.53-144.66,2-11-1-24-12-26-30-6-57-25-54.85-56.74q-.45-7.92-.89-15.8c-1.48-26.25-2.93-52-4.34-77.08-.31-5.55-.62-11.07-.76-16.54-.16-41.84,44.84-56.84,71.84-80.84,10-9,8-22-1-30-30-27-80-45-82.33-91.12q-.66-11.94-1.28-23c-3.69-66.43-6-108.57-6.12-112.57"/><path class="cls-3" d="M232.32,750.52s-14.41-253.95-30-529.94c-.31-5.41-.56-10.85-.37-16.56,3.29-48.19,33.29-88.19,49.29-132.19,5-14,9-35-7-40-29-7-57-23-55.66-54.59q-.45-7.9-.89-15.76c-1.48-26.17-2.93-51.86-4.34-76.84-.31-5.54-.62-11-.73-16.5,1.62-44.31,51.62-55.31,76.62-86.31,5-7,1-15-4-21-29-31-81-46-84.11-93.84q-.66-11.88-1.28-22.9c-3.68-66.06-6-107.8-6.08-111.37"/><path class="cls-3" d="M189.41,768.09s-13.75-250.64-28.92-527.24c-.29-5.22-.57-10.45-.68-15.76,5.42-48.26,39.42-86.26,55.42-131.26,14-38-35-33-55-50A33.61,33.61,0,0,1,148.86,20c-.69-4.86-1-10-1.31-15.14-2.26-41.25-4.48-81.64-6.6-120.41-.3-5.49-.6-11-.9-16.38-2.82-37.24,35.18-53.24,62.18-72.24,12-8,26-22,14-35-30-31-82-46-87.18-94.15q-.69-12.06-1.3-23.3c-4.09-74.9-6.64-121.72-6.67-122.82"/><path class="cls-3" d="M193.6,767.25s-13.75-250.42-28.91-526.61c-.29-5.21-.57-10.43-.75-15.7-.71-10.11,3.29-18.11,5.29-28.11,11-47,69-88,43-129-14-23-66-22-60.47-62.78-.28-5.14-.56-10.28-.84-15.39-2-35.83-3.89-70.92-5.75-104.76q-.45-8.24-.9-16.36c-2-43.71,50-54.71,72-83.71,27-35-41-50-62-75-10-12-19-26-20.93-42.09q-.7-12-1.3-23.21c-4.09-74.61-6.63-121.09-6.65-121.83"/><path class="cls-3" d="M271.8,781.78S256.34,506.26,240,213.58q-.44-8-.89-16c-5.84-51.77,22.16-96.77,42.16-141.77,17-39-1-64-39-75-13-4-17-22-17.25-35.95-.31-5-.59-10.08-.87-15.11q-1.26-22.59-2.49-44.55c-.3-5.45-.6-10.87-.87-16.24-.52-13.15,5.48-24.15,13.48-34.15,18-26,81-41,52-75-24-28-64-41-74.83-77.66A188.23,188.23,0,0,1,209-341.56c-4.21-76.33-6.88-125.31-7-129.61"/><path class="cls-3" d="M262.86,781.37s-15.63-278.63-32-572.63c-.3-5.34-.59-10.7-.81-16.12-.82-56.79,39.18-101.79,49.18-157.79,2-10,3-24-7-28-25-9-58-20-55.37-52.17-.39-5-.68-10.1-1-15.16q-1.68-30.37-3.29-59.59a122.92,122.92,0,0,1-.18-15.93c4.8-40.15,49.8-50.15,72.8-80.15,5-7,2-16-3-22-28-31-79-46-81.2-92.66q-.63-11.57-1.21-22.32c-3.49-64.47-5.69-106.24-5.89-113"/><path class="cls-3" d="M266.93,777s-15.61-278.17-32-571.4c-.29-5.34-.59-10.68-.8-16.09.07-43.69,24.07-81.69,38.07-122.69,7-19,22-45,6-59-19-19-60-20-57.19-55.65-.45-4.93-.74-10-1-15-1.12-20.17-2.22-40-3.29-59.37a89.4,89.4,0,0,1,.17-15.87c5.33-40.07,52.33-48.07,73.33-80.07,4-8,0-16-6-22-29-29-78-46-79.06-91.88q-.61-11.51-1.2-22.19c-3.49-64.07-5.68-105.42-5.87-111.7"/><path class="cls-3" d="M283.7,791.58s-16.07-286.79-32.83-587.32l-.9-16.11c-1.74-16.32.26-32.32,4.26-48.32,13-50,61-101,36-144-15-25-63-34-55.23-76.56q-.42-7.53-.83-15t-.83-14.84q-.45-8.25-.91-16.39c-2.2-45.22,46.8-57.22,70.8-88.22,5-7,3-14-1-20-25-30-68-42-78.85-80.7a152.45,152.45,0,0,1-2.72-24.1c-4.26-77.5-7-127.76-7.15-133.41"/><path class="cls-3" d="M259.75,790.6S244.27,514.55,227.87,221l-.9-16c-5.74-55.12,32.26-100.12,46.26-152.12,3-13,11-29-1-38-25-18-65-23-59.4-63.47q-.42-7.62-.85-15.19-1.26-22.69-2.49-44.74c-.3-5.48-.6-10.91-.9-16.32-4.36-45.28,45.64-60.28,71.64-89.28a18.07,18.07,0,0,0,1-21c-25-30-65-42-80.54-77.45-2.63-8.31-3.41-16.28-3.84-24C192.62-413.46,189.93-463,189.77-468"/><path class="cls-3" d="M250.74,791.86S235.07,512,218.62,216c-.3-5.38-.6-10.77-.82-16.22.43-56,39.43-99,50.43-154,2-10,3-22-6-26-28-11-61-24-57.8-59.72q-.42-7.71-.85-15.37-1.68-30.63-3.31-60.12c-.3-5.4-.6-10.77-.85-16.11-.19-13.68,6.81-25.68,15.81-36.68,18-24,71-34,56-65-18-37-76-48-82.64-95.34q-.63-11.73-1.22-22.66c-3.54-65.49-5.78-108.33-6-116.15"/><path class="cls-3" d="M254.85,788.6S239.2,509.23,222.77,214c-.3-5.37-.6-10.74-.73-16.25-.81-19.94,6.19-37.94,11.19-56.94,11-41,64-95,27-124-20-17-54-25-51.59-58-.32-5.1-.6-10.21-.88-15.3q-1.69-30.52-3.31-59.91c-.3-5.38-.6-10.73-.6-16,.38-43.74,51.38-52.74,74.38-84.74,7-10-1-19-8-26-28-27-73-42-77.43-85.43q-.63-11.67-1.22-22.53c-3.52-65.1-5.75-107.52-6-114.93"/><path class="cls-3" d="M246.75,788.05s-15.47-275.53-31.84-568.2c-.29-5.32-.59-10.64-.86-16,.18-50,32.18-92,47.18-139,4-15,12-38-6-44-27-8-57-22-54.47-54.39q-.44-7.65-.86-15.25-1.69-30.39-3.33-59.69-.45-8.16-.9-16.24c-3.44-39.43,34.56-59.43,63.56-80.43,11-8,19-22,8-33-30-31-83-48-83.25-97.09q-.63-11.44-1.22-22.05c-3.51-63.6-5.68-103.66-5.81-107.51"/><path class="cls-3" d="M237.68,778.75s-14.88-264.9-30.87-550.33q-.44-7.93-.89-15.88c-1.69-22.71,6.31-43.71,13.31-64.71,13-37,58-83,30-114-18-19-57-23-56.54-58.19-.31-5.11-.59-10.2-.88-15.28C190.4-65,189-89.92,187.65-114.15q-.45-8.11-.88-16.13c-2.54-21.89,14.46-38.89,30.46-51.89,15-11,31-19,44-33,9-11,0-24-10-32-27-21-58-37-72.65-68.37-2.4-8.23-3-16.07-3.45-23.62-4.19-75.53-6.82-123.65-6.92-127"/><path class="cls-3" d="M241.91,779.62S227,514.69,211,229.21c-.29-5.29-.59-10.58-.87-15.89-1.94-22.49,5.06-42.49,11.06-63.49,12-40,60-86,32-120-16-19-57-20-56.18-53.54-.42-5-.72-10.11-1-15.19-1.41-25.38-2.8-50.29-4.16-74.52q-.45-8.11-.89-16.14c-2.76-38.61,39.24-55.61,65.24-76.61,9-7,17-18,9-29-24-31-68-42-82.33-79.72-2.47-8.21-3.13-16.06-3.55-23.61-4.18-75.56-6.81-123.71-6.92-127.13"/><path class="cls-3" d="M297.28,806.15s-16.9-302.33-34.2-613.65q-.45-8.2-.91-16.4c-1.94-53.27,28.06-99.27,42.06-150.27,5-18,15-46-7-52-35-9-54-37-50.13-69.73q-.42-7.57-.83-15.06c-.3-5.35-.59-10.67-.8-16-1.24-42.26,43.76-58.26,68.76-85.26,7-8,4-19-3-26-27-28-70-44-76.61-85.71-.48-7.95-.9-15.65-1.31-23.09-4.05-74.42-6.63-123.11-6.88-130.51"/><path class="cls-3" d="M287.19,783.4S270.85,491.6,254,188.91c-.26-5.34-.51-10.7-.48-16.29.67-15.79,3.67-29.79,7.67-45.79,12-47,63-103,30-139-18-19-56-30-51.89-65.26-.32-4.94-.59-9.91-.87-14.85s-.54-9.85-.81-14.74q-.45-8.2-.9-16.3c-5.53-43.85,41.47-60.85,67.47-87.85,13-14-1-29-12-38-24-19-53-34-63.49-62.83-2.45-8.38-3.21-16.48-3.63-24.29-4.23-78.12-7-130-7.21-138.6"/><path class="cls-3" d="M291.47,785.94s-16.35-292.3-33.19-595.83c-.28-5.33-.56-10.67-.7-16.13-.35-19.15,4.65-36.15,9.65-55.15,11-46,61-100,27-136-17-18-54-26-50.61-59.93-.37-4.91-.66-9.88-.93-14.84s-.54-9.89-.81-14.8q-.47-8.22-.9-16.36c-1.75-16.07,4.25-31.07,15.25-44.07,18-22,61-32,54-60-11-38-65-45-77.49-85.44-2.34-8.42-3-16.55-3.44-24.41-4.24-78.57-7-130.9-7.26-140"/><path class="cls-3" d="M310.72,815.93s-17.54-314.8-35.24-635.25q-.44-7.87-.86-15.77c-1.39-59.08,32.61-108.08,44.61-167.08,2-12,6-27-4-33-26-15-57-26-54.89-61.45-.38-4.78-.66-9.61-.92-14.43-.3-5.43-.6-10.83-.81-16.2-1.38-40.92,42.62-57.92,67.62-83.92,9-10,4-22-5-30-29-25-71-45-73.63-86.79q-.66-12.18-1.28-23.64c-4.1-76.31-6.75-127-7-136.48"/><path class="cls-3" d="M300.3,793.31s-16.57-296.68-33.56-603.87q-.45-8.08-.89-16.18c-2.62-58.43,30.38-109.43,46.38-165.43,11-37-24-40-46-56-14-11-14-31-15.2-47.55-.28-5-.55-10-.82-14.94-.29-5.3-.58-10.58-.8-15.82-2.18-41.69,41.82-58.69,67.82-84.69,12-12,0-27-10-35-27-22-63-40-68.47-76.54-.52-8-.93-15.69-1.33-23.16-4-74.76-6.59-124.66-6.89-134.54"/><path class="cls-3" d="M304.92,795.8S288.32,498,271.27,189q-.43-8.13-.88-16.28c-2.16-63.89,35.84-117.89,46.84-180.89,1-9,1-20-6-23-31-13-60-30-55.72-66.86q-.42-7.56-.83-15c-.29-5.34-.58-10.66-.73-15.94-.72-36.15,34.28-54.15,59.28-74.15,10-8,18-21,9-32-27-31-76-47-79.14-91.89q-.65-12.07-1.25-23.43c-4-75.67-6.65-126.53-7-137.38"/><path class="cls-3" d="M313,801.31S295.78,492,278.39,175.71c-.3-5.45-.6-10.91-.87-16.39,1.71-59.49,33.71-109.49,45.71-169.49,2-11,3-26-7-29-33-13-57-36-53.59-72.52-.29-5.38-.58-10.73-.79-16-1.62-37.43,36.38-56.43,62.38-77.43,10-8,13-22,3-32-28-29-73-46-76.23-90.13q-.66-12.19-1.26-23.66c-4.06-76.44-6.69-128.1-7-139.78"/><path class="cls-3" d="M317.29,803.85S300,493.69,282.61,176.18c-.3-5.48-.6-11-.88-16.45-1.5-7.9.5-16.9.5-24.9,4-61,71-129,33-177-17-20-52-35-48.4-70.34-.3-5.4-.59-10.78-.72-16.12-.88-39.54,41.12-56.54,66.12-80.54,11-11,4-24-5-33-29-25-71-45-72.09-87.26q-.64-12.27-1.26-23.84c-4.08-77.05-6.73-129.35-7.1-141.68"/><path class="cls-3" d="M274,774.13s-15.71-280-32.12-574.27c-.29-5.25-.57-10.52-.65-16-1-21.08,5-41.08,12-60.08,14-36,32-69,38-108,3-19-16-26-31-28-25-5-34-30-33.06-52.44q-.42-7.45-.83-14.85-.81-14.79-1.62-29.28-.45-8.1-.89-16.1c-4.6-41.33,39.4-59.33,65.4-83.33,7-6,12-16,7-24-27-37-84-50-84-102.38q-.61-11.49-1.2-22.17c-3.48-64-5.66-105.32-5.85-111.56"/><path class="cls-3" d="M278.07,773.78S262.34,493.58,245.91,199c-.3-5.26-.59-10.52-.74-15.91-.94-14.28,2.06-27.28,5.06-41.28,10-51,68-108,32-146-17-19-55-28-51.05-61.62q-.44-7.44-.84-14.85-.83-14.81-1.63-29.32-.45-8.12-.89-16.12c-3.59-44.09,47.41-58.09,70.41-90.09,10-13-5-25-15-34-23-19-52-33-63.36-62.12a102.56,102.56,0,0,1-3.63-23.88c-4.19-76.77-6.88-127.17-7.1-134.3"/><path class="cls-3" d="M100.93-491.62l8.48,150.3c.23,4.16.52,8.4,1.19,12.71,9.63,41.44,52.63,58.44,82.63,84.44,7,6,12,15,6,24-25,32-81,40-78.08,87l1,16.87L129,6.26,129.91,22c-3.68,36.85,37.32,42.85,63.32,55.85,9,5,8,17,5,27-16,43-48,78-55.62,122.78a146.78,146.78,0,0,0-.19,16.07l27,477.76"/><path class="cls-3" d="M96.43-490l7.14,126.91,1.36,24.28c.3,49.64,55.3,66.64,86.3,97.64,10,10,5,22-5,30-26,20-59,33-69.54,65a116.22,116.22,0,0,0,0,16.69l7.88,140.26.91,16.06c-1.26,41,44.74,38,68.74,60,4,4,2,11,1,17-14,48-55,83-57.73,133.51.12,5.4.42,10.72.72,16L165,730.21"/><path class="cls-3" d="M20.12,768.85,19.77,758c0-.72-11.87-216.51-25.68-468.17-.29-5.24-.58-10.5-.65-15.8,2.79-41.15,39.79-65.15,61.79-99.15,7-10,8-22-1-30-27-20-67-27-71.6-63.86q-.45-8.06-.88-16.1C-21.2,11.26-24.1-41.64-26.88-92.21c-.3-5.61-.57-11.2-.58-16.89,3.69-46.07,44.69-70.07,70.69-108.07,4-7,2-14-3-19-29-25-82-34-79.47-81.36q-.69-12.75-1.36-24.73c-4.81-87.83-7.87-143.69-7.89-144.13"/><path class="cls-3" d="M12.09,769.43S-.26,544.25-14.47,284.65c-.29-5.3-.44-10.63-.22-16,6.92-38.8,42.92-60.8,63.92-93.8,10-15-1-29-14-36-23-11-52-22-59-48.51a78.19,78.19,0,0,1-2.16-16c-3-54-5.87-107.26-8.66-158.25-.29-5.66-.59-11.29-.81-16.93.68-46.32,39.68-75.32,67.68-109.32,8-10,4-22-6-29-30-19-74-31-73.3-72.49q-.36-6.46-.7-12.74c-5.24-96.21-8.63-158.86-8.7-161.14"/><path class="cls-3" d="M15.7,761.46l-.27-8.76c0-.77-11.5-210.05-25-456.79q-.44-7.71-.85-15.47c-2.33-44.61,39.67-68.61,61.67-104.61,6-10,9-21,0-29-24-19-60-25-70.72-56.48A72.93,72.93,0,0,1-21.72,74.7c-2.9-52.93-5.77-105.31-8.52-155.61q-.47-8.49-.89-16.92c-2.64-45.34,33.36-77.34,63.36-107.34,9-9,13-23,2-32-28-23-76-31-77-73.14-.25-4.36-.48-8.68-.71-12.93-5.58-102-9.19-168.5-9.17-169"/><path class="cls-3" d="M31.62,727.86S20.19,526.73,6.68,288.49c-.3-5.29-.6-10.6-.71-16-.74-17.69,9.26-32.69,18.26-47.69,15-26,57-48,42-77s-70-29-71.46-71.17c-.4-5.45-.71-10.91-1-16.36C-9,11.21-11.78-37.33-14.41-84q-.5-8.52-1-17c-4.4-44.2,30.6-77.2,61.6-104.2,13-11,16-27,1-38-29-20-71-31-74.53-70-.3-4.31-.54-8.57-.77-12.76-5.19-92.21-8.56-152.59-8.66-155.88"/><path class="cls-3" d="M7.79,769s-11.85-216-25.7-468.79l-.87-15.84c-4-47.5,43-72.5,65-109.5,5-9,6-19-2-26-24-20-64-25-72.49-58.72a88,88,0,0,1-2-16c-3-53.94-5.87-107.2-8.66-158.17-.25-5.68-.51-11.32-.44-17.1,1.62-47,40.62-74,67.62-110,6-8,4-18-3-24-30-23-78-32-76.61-76.51q-.36-6.46-.7-12.73c-5.24-96.13-8.63-158.69-8.71-160.88"/><path class="cls-3" d="M-6.32,688.65s-10-174.51-22.37-388.93q-.43-7.67-.89-15.39c-3.19-46.5,42.81-69.5,65.81-106.5,5-8,7-19-1-26-29-22-77-31-76.72-74.85l-.93-16.13c-2.16-37.63-4.31-75-6.41-111.58q-.49-8.49-1-16.92c-12-57.52,30-99.52,65-141.52,7-10,0-21-9-28-26-17-65-25-68.88-60.35-.57-4.3-.83-8.65-1.08-13-5.91-103.18-9.82-171.89-9.89-174.08"/><path class="cls-3" d="M-14.61,727.45s-11.52-201.62-25.11-441a72.13,72.13,0,0,1,.47-15.84c-.52-5.8,2.48-10.8,4.48-16.8,14-36,85-61,58-98-21-28-74-34-74.77-77.64q-.45-8.07-.91-16.13c-2.44-43-4.85-85.6-7.18-127q-.43-8.68-.87-17.3c-3.27-47.95,29.73-82.95,59.73-117.95,12-15,3-32-13-39-26-12-60-27-59.1-61.28q-.39-6.8-.75-13.4C-79.28-415.19-83-484.16-83.29-492.39"/><path class="cls-3" d="M-9.73,727.54s-11.5-201.24-25.08-440a91.25,91.25,0,0,1,.1-15.76c1.94-11,6.94-21,12.94-31,16-29,76-56,49-87-23-26-72-32-73.83-73.94q-.46-8.06-.92-16.09C-49.95,21-52.35-21.52-54.68-62.76q-.47-8.64-.91-17.22c-7.18-54.19,37.82-88.19,64.82-130.19,5-8,1-18-6-23-27-19-68-27-70.92-64.23-.46-4.43-.71-8.87-1-13.25C-74.28-411.47-78-479.87-78.26-487.52"/><path class="cls-3" d="M44.79,729.92s-11.47-201.75-25-440.17q-.43-7.61-.87-15.27c-1.69-43.65,37.31-70.65,58.31-105.65,5-9,10-21,1-29-26-22-72-28-70.83-68.53Q7,63.45,6.51,55.64C3.55,3.51.64-47.9-2.14-97q-.48-8.42-.94-16.74c-1.69-48.45,45.31-71.45,72.31-105.45,6-8,0-17-6-23-28-25-78-35-78-78.84q-.7-12.51-1.36-24.2c-4.39-77.92-7.17-127.6-7.25-130"/><path class="cls-3" d="M37.28,765.6s-12.58-222.76-27-479.52c-.3-5.35-.6-10.72-.57-16.16.55-16.09,7.55-29.09,15.55-42.09,15-27,60-51,45-80-16-30-71-32-71.91-74.11q-.47-8.16-.91-16.31c-3-54.28-6-107.65-8.87-158.39-.31-5.46-.57-10.9-.51-16.45,3.2-43.74,45.2-65.74,70.2-99.74,8-10,1-20-8-27-30-21-73-33-73.82-74.65q-.68-12.21-1.3-23.65c-4.21-76.25-6.89-126-7.08-132.29q-.14-4.47-.27-9.19"/><path class="cls-3" d="M41.4,762.46S29.17,545.94,15,293.45q-.45-7.89-.89-15.83c-2.86-41.79,31.14-69.79,55.14-101.79,11-14,15-32-3-41-24-13-55-22-62.44-51-.79-5.25-1.17-10.62-1.47-16C-.7,14-3.66-39-6.49-89.7Q-7-98-7.42-106.21c-5.35-51,45.65-76,71.65-115,8-12-5-20-14-27-27-18-63-29-68.93-64.35-.39-4.18-.64-8.33-.87-12.42-5-90-8.2-150-8.42-157.43"/><path class="cls-3" d="M57.61,720.49S46.37,523,33,288.79q-.47-8-.88-16c-1.93-43.93,36.07-72.93,58.07-108.93,7-11,8-25-4-32-25-15-60-23-64.89-56.29C20.6,70.17,20.29,64.68,20,59.19c-3.12-54.86-6.2-109-9.12-160.47q-.48-8.34-.94-16.58c-1.68-48.31,55.32-68.31,70.32-105.31,11-28-39-39-60-58-12-11-23-25-22-41.56Q-2.43-335-3.09-346.55c-4.35-76.64-7.08-124.91-7.11-125.84"/><path class="cls-3" d="M50,756.41s-12-213-26.08-461.91q-.45-8-.9-15.94c-1.76-18.73,5.24-35.73,14.24-52.73,15-28,67-59,40-88-19-20-55-25-64.34-54.67a117.4,117.4,0,0,1-1.8-16C7.73,7.55,4.44-51.13,1.33-106.62a142.55,142.55,0,0,1-.23-16.44c4.13-40.11,40.13-63.11,67.13-89.11,12-11,7-26-5-34-30-21-74-35-74-76.73Q-11.41-335-12-346.33c-4.19-75.51-6.84-124.46-7-129.93"/><path class="cls-3" d="M54.28,753.45S42.23,540.83,28.22,292.51l-.9-15.9c-2.09-40.78,28.91-70.78,52.91-102.78,9-12,17-29,3-39-24-17-57-23-65.8-53.16a89.79,89.79,0,0,1-2-15.9C12.09,6.34,8.8-52.15,5.7-107.44c-.3-5.41-.58-10.79-.34-16.33,3.87-45.4,48.87-63.4,73.87-98.4,4-6,0-13-4-18-29-27-79-38-81.58-82.62q-.66-12-1.29-23.3c-4.17-75.05-6.81-123.52-7-128.48"/><path class="cls-3" d="M62,747.52S50.14,538.14,36.27,292.71q-.44-7.83-.88-15.71c-5.16-49.17,40.84-79.17,60.84-120.17,3-8,4-17-3-23-27-19-68-27-69.62-65.45q-.45-8-.91-16c-3-53.36-6-105.85-8.77-155.79q-.48-8.43-.94-16.76c-.76-42,40.24-65,66.24-93,30-34-37-49-58-71-9-8-16-18-18.28-30A246,246,0,0,1,.73-338.7c-4.44-79.61-7.26-131.15-7.4-135.59"/><path class="cls-3" d="M66.15,745.11S54.29,536,40.43,291.1q-.43-7.82-.88-15.68c-2.32-16.59,3.68-32.59,10.68-48.59,13-31,72-65,42-95-21-21-65-28-64.45-64.55q-.45-8-.9-16c-3-53.23-6-105.57-8.76-155.36q-.48-8.4-.94-16.7c.05-44.4,41.05-68.4,70.05-94.4,5-5,9-13,5-20-24-34-73-38-84.9-78.86A202.12,202.12,0,0,1,5-338.42C.52-417.63-2.29-468.72-2.41-472.69"/><path class="cls-3" d="M23.25,762.68S11.41,547.09-2.41,295.16q-.44-7.87-.86-15.8c-1.5-44.53,40.5-70.53,62.5-107.53,5-8,7-19-1-26-24-21-65-25-71.41-60a123.32,123.32,0,0,1-1.58-16c-3-53.72-5.85-106.76-8.63-157.48q-.46-8.43-.9-16.79c-.48-46.78,39.52-74.78,67.52-106.78,7-8,7-20-1-27-29-23-77-33-78-75.69q-.7-12.81-1.36-24.87c-4.84-88.38-7.92-144.91-8-146.12"/><path class="cls-3" d="M27.43,761.84s-11.83-215.4-25.64-467Q1.36,287,.93,279.09c-3.7-47.26,43.3-73.26,63.3-111.26,5-9,4-18-4-25-24-19-61-24-69.15-56.94A120.56,120.56,0,0,1-10.55,70C-13.49,16.31-16.4-36.62-19.17-87.23q-.46-8.42-.92-16.74c-2.68-45.2,36.32-75.2,65.32-104.2,7-8,12-20,3-29-27-25-78-33-79.75-75.73q-.73-12.75-1.38-24.78c-4.83-88.05-7.89-144.22-7.92-145"/><path class="cls-3" d="M105.63,776.37s-13.3-236.9-28.28-504.71c-.3-5.25-.59-10.52-.73-15.85,2.61-47,43.61-76,60.61-117,5-13-3-25-15-30-23-8-50-19-56-44.77-.69-5.14-1.07-10.4-1.37-15.68C61.62-9.69,58.44-66.57,55.45-120.19c-.3-5.45-.59-10.87-.63-16.31,2.41-38.67,40.41-54.67,68.41-76.67,19-13,7-30-8-40-29-19-63-35-70.74-70.14-.78-8.13-1.21-16-1.64-23.67-4.21-76.32-6.88-125.3-7-129.6"/><path class="cls-3" d="M96.69,776s-13-232.68-27.79-497.14Q68.47,271,68,263.23c-.8-13.4,4.2-26.4,8.2-38.4,13-35,71-69,45-103-18-23-64-26-64.58-63.85-.33-5.21-.62-10.43-.91-15.64C52.84-9.77,50-60.84,47.33-109.33q-.45-8.13-.89-16.17c-3.21-39.67,31.79-62.67,62.79-82.67,10-7,21-18,12-29-27-35-88-47-86.37-99.07q-.63-11.56-1.21-22.32C30.16-423,28-464.8,27.76-471.52"/><path class="cls-3" d="M100.76,771.6S87.72,539.31,73,275.49c-.28-5.17-.57-10.35-.83-15.56,1.07-43.1,34.07-72.1,55.07-107.1,9-15,10-34-8-41-26-10-59-24-58.51-56.57q-.44-7.82-.87-15.61c-2.89-52-5.72-102.86-8.4-151.19q-.45-8.1-.89-16.1c-2.33-36.53,28.67-59.53,57.67-76.53,14-9,29-26,13-40-32-27-84-44-82.23-93.29q-.61-11.51-1.2-22.19c-3.49-64.07-5.68-105.42-5.87-111.71"/><path class="cls-3" d="M117.53,786.17S104.2,548.3,89.16,278.82q-.45-7.92-.89-15.88c-5-51.11,42-83.11,59-128.11,2-7,5-15-1-20-22-23-69-22-69.4-60.89-.5-5.24-.8-10.55-1.09-15.85C72.79-14.9,69.9-66.77,67.17-116q-.45-8.25-.91-16.39c-2-44.81,52-55.81,73-87.81,19-30-34-43-53-61-12-11-26-23-29.36-40.27a190.55,190.55,0,0,1-2.38-23.94c-4.26-77.5-7-127.76-7.15-133.41"/><path class="cls-3" d="M93.58,785.19S80.27,547.83,65.26,279.24q-.45-7.9-.89-15.83c.86-40.58,31.86-69.58,52.86-103.58,7-12,16-29,2-39-27-17-70-26-66.48-65.58q-.44-7.95-.88-15.86C48.92-13.39,46.05-65,43.32-114c-.3-5.48-.6-10.91-.85-16.33.76-18.86,10.76-35.86,24.76-49.86,17-18,57-27,50-52-9-30-47-37-69-59-7-8-14-16-15.19-27.13A191.28,191.28,0,0,1,30.68-342c-4.23-76.87-6.92-126.45-7.08-131.38"/><path class="cls-3" d="M84.57,786.45S71.49,552.74,56.68,286.59q-.43-7.83-.88-15.69c-1.57-19.07,5.43-36.07,13.43-53.07,14-30,66-63,39-92-20-21-63-26-63.85-61.6C44,59,43.74,53.71,43.45,48.46,40.54-4,37.7-55.54,35-104.48q-.47-8.2-.9-16.31c-5.87-51.38,51.13-67.38,76.13-105.38,4-5-1-11-5-16-31-29-84-43-82.81-91.75q-.63-11.73-1.22-22.66c-3.54-65.49-5.78-108.33-6-116.15"/><path class="cls-3" d="M88.68,783.19S75.61,549.89,60.82,284.4q-.43-7.81-.87-15.66c-3.72-43.91,32.28-74.91,54.28-110.91,11-16,9-35-10-42-25-9-55-23-55.73-53.19q-.45-7.87-.88-15.74C44.71-5.45,41.87-56.78,39.17-105.54c-.3-5.46-.6-10.87-.89-16.26-5.05-47.37,43-68.37,73-96.37,11-11,0-24-10-32-32-23-75-40-74.6-83.84q-.63-11.67-1.22-22.53c-3.52-65.1-5.75-107.53-6-114.93"/><path class="cls-3" d="M80.58,782.63s-13.3-236.9-28.28-504.7c-.15-5.29-.3-10.59-.16-16,.09-27.11,16.09-48.11,32.09-70.11,14-20,48-53,15-71-23-12-53-22-58.3-50.39-.53-5.21-.82-10.5-1.12-15.78-3.24-58.07-6.42-114.95-9.4-168.57-.31-5.44-.61-10.86-.72-16.28,4.54-43,46.54-61,74.54-90a13.9,13.9,0,0,0-1-19c-26-29-73-37-83.24-78a216.22,216.22,0,0,1-2.18-23.54c-4.22-76.31-6.89-125.28-7-129.56"/><path class="cls-3" d="M71.51,773.34S58.63,544,44,282.09c-.28-5.13-.57-10.28-.67-15.49-1.05-20.77,10.95-38.77,21-56.77,14-25,63-57,31-81-25-19-64-30-63.53-65.66l-.87-15.55C27.93-4.13,25.09-54.9,22.4-103.21q-.46-8.22-.92-16.35c-2.25-45.61,41.75-69.61,71.75-97.61,9-9,4-22-6-29-28-23-71-35-76.92-75-.5-8.07-.93-15.9-1.35-23.45C4.77-420.1,2.14-468.22,2-471.6"/><path class="cls-3" d="M75.74,774.21S62.86,544.8,48.19,282.9c-.29-5.14-.58-10.29-.75-15.48-1.21-45.59,41.79-74.59,58.79-113.59,15-34-36-37-55-55-10-9-15-22-15.3-34.89l-.87-15.56c-2.9-51.76-5.74-102.54-8.43-150.86q-.46-8.22-.92-16.35c-2.48-41.34,32.52-67.34,63.52-90.34,7-6,17-14,12-23-16-30-53-36-75-62-6-8-10-16-11.62-26.3-.57-8.06-1-15.89-1.43-23.44C9-419.47,6.37-467.62,6.26-471"/><path class="cls-3" d="M131.11,800.74S117,549.12,101.44,268.61c-.3-5.4-.56-10.82-.65-16.3-.56-11.48,2.44-21.48,5.44-32.48,12-40,75-81,44-115-19-20-65-27-61.47-64.73Q88.31,32,87.86,24c-2.67-48.23-5.28-95.4-7.76-140.35q-.43-8-.88-15.95c-4-47.85,52-57.85,77-88.85,6-8,2-17-5-23-30-27-75-42-82.73-85.13-.53-7.94-1-15.64-1.36-23.08-4-74.42-6.63-123.11-6.88-130.51"/><path class="cls-3" d="M121,778s-13.08-233.6-27.88-499.6q-.44-7.81-.87-15.68c-4-40.88,25-71.88,46-104.88,9-16,25-41,4-52-24-13-57-20-60.87-49.87A152.16,152.16,0,0,1,79.93,40.4C77-12.08,74.19-63.53,71.49-112.43q-.45-8.2-.9-16.3c-4.36-49.44,51.64-60.44,76.64-94.44,6-7,1-16-5-21-33-28-86-48-83.29-97.53q-.63-11.71-1.22-22.63c-3.53-65.43-5.76-108.2-6-116"/><path class="cls-3" d="M125.3,780.53S111.82,539.59,96.74,268.07q-.42-8-.85-16c-.66-11.22,3.34-21.22,6.34-32.22,12-39,72-76,45-111-18-23-66-27-63-66.94q-.45-8-.89-16c-2.94-53.2-5.81-105.2-8.51-154.41a121.16,121.16,0,0,1,0-16.28c7.41-33.38,41.41-47.38,67.41-66.38,9-7,17-19,7-29-27-28-69-40-82.78-78.07-2.2-8.23-2.9-16.33-3.32-24.19-4.24-78.57-7-130.9-7.26-140"/><path class="cls-3" d="M144.55,810.52s-14.26-255.92-30-541.15q-.42-7.77-.86-15.58c-2.42-49,37.58-84,55.58-127,3-9,7-20,0-27-19-21-60-17-66.29-50.48-.76-5-1.13-10.12-1.42-15.29-2.85-51.7-5.63-102.33-8.27-150.52q-.45-8.15-.89-16.2c-4.13-34.51,29.87-52.51,55.87-69.51,12-9,34-21,20-36-28-33-81-47-86.79-95.2q-.68-12.18-1.29-23.64c-4.1-76.31-6.75-127-7.05-136.48"/><path class="cls-3" d="M134.13,787.9S120.34,541,105,264.43c-.29-5.32-.53-10.66-.49-16.12,1.7-41.48,31.7-70.48,50.7-105.48,9-15,16-39-5-47-22-8-50-15-55.76-41.41a89.58,89.58,0,0,1-1.91-15.56C89.62-14.37,86.76-66.53,84-116.07q-.44-8-.87-15.82c-3.94-48.28,52.06-58.28,78.06-90.28,6-8-1-17-7-23-30-26-73-42-81.53-83-.63-7.95-1-15.68-1.44-23.15-4-74.76-6.59-124.66-6.89-134.54"/><path class="cls-3" d="M138.75,790.39s-13.82-247.86-29.18-525.94c-.3-5.35-.57-10.71-.61-16.17-.73-39.45,30.27-68.45,47.27-101.45,7-15,23-37,4-48-25-16-67-23-63.17-61.3q-.44-8-.88-16c-2.64-48-5.21-95-7.67-140q-.44-8-.87-15.94c-1.41-20.74,11.59-36.74,28.59-49.74s37-20,50-38c6-10-3-19-11-26-30-24-74-42-78-84.32-.69-8-1.11-15.85-1.51-23.41-4-75.67-6.65-126.53-7-137.38"/><path class="cls-3" d="M146.83,795.9s-13.84-248.65-29.24-528c-.3-5.37-.59-10.75-.83-16.17-3.53-49.89,39.47-84.89,56.47-128.89,3-10,7-24-4-30-25-12-64-18-64.18-53q-.45-8.07-.88-16.12c-2.65-48.28-5.23-95.59-7.7-140.81q-.43-8.07-.87-16.05c-3.37-48,54.63-56,79.63-90,3-5,1-11-2-15-29-33-84-46-88.38-94.54q-.69-12.19-1.28-23.66c-4.06-76.44-6.69-128.1-7-139.78"/><path class="cls-3" d="M151.12,798.44s-13.86-249.31-29.3-529.7c-.29-5.4-.59-10.8-.85-16.23a110.17,110.17,0,0,1,3.26-34.68c9-44,91-105,34-132-20-10-48-20-48.94-46.09q-.5-8.09-.92-16.18c-2.65-48.49-5.24-96-7.71-141.48q-.45-8.1-.88-16.13c-3.55-44.12,51.45-53.12,72.45-84.12,24-37-48-48-67-78-8-12-16-24-16.26-38.67q-.64-12.27-1.26-23.84C83.63-435.73,81-488,80.61-500.36"/><path class="cls-3" d="M107.83,768.72s-13-232.25-27.75-496c-.29-5.17-.58-10.35-.8-15.57,1-46.34,41-76.34,58.95-115.34,4-9,6-22-3-27-27-17-69-24-67.42-62.25L66.94,37C64.05-15,61.23-65.85,58.55-114.15q-.45-8.1-.89-16.1c-1.43-19.92,8.57-36.92,23.57-49.92,18-16,49-24,51-45,4-35-49-43-71-70-11-13-15-29-15.12-44.79q-.61-11.49-1.2-22.17c-3.48-64-5.66-105.32-5.85-111.56"/><path class="cls-3" d="M111.9,768.37S98.85,536,84.11,272c-.29-5.18-.58-10.37-.81-15.58-1.07-16.57,6.93-31.57,13.93-46.57,14-30,75-76,32-101-23-14-59-24-57.41-57.25Q71.39,43.75,71,36C68.06-16,65.23-67,62.54-115.37q-.45-8.11-.89-16.12c-1.42-43.68,44.58-60.68,73.58-85.68,8-8,6-19-2-26-27-26-68-38-80.21-74.8a131.62,131.62,0,0,1-3-23.61c-4.19-76.77-6.88-127.17-7.1-134.3"/><path class="cls-3" d="M-65.24-497-55.31-321l.76,13.47c.78,41.32,43.78,50.32,72.78,70.32,9,6,14,16,7,26-29,39-74,72-67.3,123.71q.42,8.7.92,17.42l8,142.1A124.81,124.81,0,0,0-31.49,88c7.72,38.84,60.72,37.84,74.72,67.84,13,33-35,54-52,83-7,13-13,25-12.58,39.88.17,5.18.46,10.33.75,15.45L3.21,716"/><path class="cls-3" d="M-69.74-495.41l10,177.12q.38,6.68.76,13.54c.25,42.58,48.25,49.58,76.25,71.58,11,9,4,22-3,31-26,31-59,59-60.88,101-.32,6.08-.14,11.93.07,17.8L-38.45,61.2l.92,16.37c.76,40.26,46.76,48.26,69.76,72.26,34,35-41,66-53,103-2,7-5,13-5.15,20a138.73,138.73,0,0,0,.27,15.95l24.5,436"/></g></g><g id="Layer_2" data-name="Layer 2"><rect class="cls-4" x="1.57" width="296.68" height="256.83"/></g></svg>