<svg id="Layer_1" data-name="Layer 1" xmlns="http://www.w3.org/2000/svg" viewBox="0 0 241.49 281.2"><defs><style>.cls-1{fill:#fff;}</style></defs><title>white-logo</title><path class="cls-1" d="M83.73,236.89l3.15,1.63-5.53,20.06,13-16.22,3.07,1.58-18,21.8-2.95-1.52Z"/><path class="cls-1" d="M104.66,245.87l3.56.81-.53,28.23-3.49-.8.35-7.06-5.39-1.23-2.83,6.49-3.46-.8Zm0,18.37.57-12.64-5,11.64Z"/><path class="cls-1" d="M118,248l3.78-.11.67,24.86,6.93-.18.08,2.76-10.72.29Z"/><path class="cls-1" d="M140.55,271.59a9.83,9.83,0,0,1-3.51-5.14l3-1.79a10.83,10.83,0,0,0,2.14,3.86,2.94,2.94,0,0,0,3.17.81,2.86,2.86,0,0,0,1.92-1.4,3.46,3.46,0,0,0,.07-2.52,5.16,5.16,0,0,0-1.44-2.54,12.3,12.3,0,0,0-2.83-1.79l-5.49-2.71a7.69,7.69,0,0,1-2.63-2,8.37,8.37,0,0,1-1.53-3.17,6.24,6.24,0,0,1,.37-5,7.47,7.47,0,0,1,9.18-2.5,8.87,8.87,0,0,1,3.35,4.65l-2.85,1.73a8.92,8.92,0,0,0-1.9-3.35,2.83,2.83,0,0,0-3-.54,2.7,2.7,0,0,0-2,3.73,4.75,4.75,0,0,0,.95,1.88,5.47,5.47,0,0,0,1.77,1.25l5.53,2.71a14,14,0,0,1,3.66,2.58,8.64,8.64,0,0,1,2.17,3.82,6.76,6.76,0,0,1-10.08,7.43Z"/><path class="cls-1" d="M148.63,241.89l5.08-3q3.78-2.24,6.39-1.39t4.81,4.58l5.15,8.76q2.31,3.94,1.9,6.78c-.28,1.89-1.61,3.53-4,4.94l-5.34,3.14Zm17.71,18.44a4.33,4.33,0,0,0,2.07-2.13,3.49,3.49,0,0,0-.13-2.39,28.13,28.13,0,0,0-1.88-3.63l-4.54-7.73a17.47,17.47,0,0,0-2.07-3,2.87,2.87,0,0,0-2-1,5.24,5.24,0,0,0-2.73.91l-1.76,1,11.15,19Z"/><path class="cls-1" d="M164.59,220.07l2.58-2.49,2,7.46-1.3,1.26Zm18.77,29.17q-2.84-.47-5.87-3.6l-7.27-7.54q-3-3.09-3.27-5.9c-.2-1.87.66-3.72,2.55-5.55s3.78-2.6,5.64-2.33,3.78,1.43,5.75,3.48l7.3,7.56a10.85,10.85,0,0,1,3.34,6q.36,2.88-2.46,5.6C187.15,248.78,185.25,249.54,183.36,249.24Zm4.77-7.38A7.79,7.79,0,0,0,186,238.6l-8.41-8.71a7.34,7.34,0,0,0-3.12-2.18,3.07,3.07,0,0,0-2.89,1.1,3.1,3.1,0,0,0-1.23,2.88,7.27,7.27,0,0,0,2.06,3.19l8.41,8.72a7.76,7.76,0,0,0,3.18,2.24,3.06,3.06,0,0,0,3-1.09A3,3,0,0,0,188.13,241.86Z"/><path class="cls-1" d="M182.55,216.41l-2.65,3.74-2.34-1.66L185,208l2.34,1.65-2.57,3.64L205,227.63l-2.19,3.09Z"/><path class="cls-1" d="M191.33,202.29l-2.06,4.1-2.56-1.29,5.75-11.46,2.56,1.29-2,4L215.15,210l-1.7,3.38Z"/><path class="cls-1" d="M194.4,188.43l1.27-3.5,26,9.4-1.26,3.5Z"/><path class="cls-1" d="M197.92,178.24l1.2-5.32q.91-4,3-5.52c1.41-1,3.37-1.21,5.9-.64q5.19,1.17,5.55,4.68l14.36-.71-.8,3.56-13.43.61-.64,2.88,12.64,2.85-.83,3.69Zm12.77-2.48a5,5,0,0,0-.2-3.63c-.49-.83-1.57-1.43-3.26-1.81a7.72,7.72,0,0,0-2.69-.23,2.58,2.58,0,0,0-1.69,1,6.08,6.08,0,0,0-1,2.48l-.37,1.63,8.92,2Z"/><polygon class="cls-1" points="40.96 93.96 90.77 212 135.16 98.38 159.53 175.42 182.22 175.34 136.7 38.71 91.22 154.24 67.49 92.87 40.96 93.96"/><circle class="cls-1" cx="132.37" cy="177.83" r="11.13"/></svg>